<svg xmlns="http://www.w3.org/2000/svg" xmlns:xlink="http://www.w3.org/1999/xlink" contentStyleType="text/css" data-diagram-type="SEQUENCE" height="749px" preserveAspectRatio="none" style="width:1396px;height:749px;background:#FFFFFF;" version="1.1" viewBox="0 0 1396 749" width="1396px" zoomAndPan="magnify"><?plantuml 1.2026.6?><defs/><g><g class="title" data-source-line="1"><text fill="#000000" font-family="sans-serif" font-size="14" font-weight="700" lengthAdjust="spacing" textLength="354.0059" x="517.6062" y="28.5352">Events v2 Control Acceptance and Result Waiting</text></g><g class="participant-lifeline" data-entity-uid="part1" data-qualified-name="http" data-source-line="14" id="part1-lifeline"><g><title>Future HTTP handler</title><rect fill="#000000" fill-opacity="0.00000" height="547.5898" width="8" x="73.8667" y="118.9766"/><line style="stroke:#181818;stroke-width:0.5;stroke-dasharray:5,5;" x1="77" x2="77" y1="118.9766" y2="666.5664"/></g></g><g class="participant-lifeline" data-entity-uid="part2" data-qualified-name="service" data-source-line="15" id="part2-lifeline"><g><title>V2 control service</title><rect fill="#000000" fill-opacity="0.00000" height="547.5898" width="8" x="255.6377" y="118.9766"/><line style="stroke:#181818;stroke-width:0.5;stroke-dasharray:5,5;" x1="258.7056" x2="258.7056" y1="118.9766" y2="666.5664"/></g></g><g class="participant-lifeline" data-entity-uid="part3" data-qualified-name="stream" data-source-line="16" id="part3-lifeline"><g><title>RuntimeEventStream</title><rect fill="#000000" fill-opacity="0.00000" height="547.5898" width="8" x="434.5332" y="118.9766"/><line style="stroke:#181818;stroke-width:0.5;stroke-dasharray:5,5;" x1="438.5093" x2="438.5093" y1="118.9766" y2="666.5664"/></g></g><g class="participant-lifeline" data-entity-uid="part4" data-qualified-name="waits" data-source-line="17" id="part4-lifeline"><g><title>Result wait registry</title><rect fill="#000000" fill-opacity="0.00000" height="547.5898" width="8" x="619.7129" y="118.9766"/><line style="stroke:#181818;stroke-width:0.5;stroke-dasharray:5,5;" x1="623.6416" x2="623.6416" y1="118.9766" y2="666.5664"/></g></g><g class="participant-lifeline" data-entity-uid="part5" data-qualified-name="encoder" data-source-line="18" id="part5-lifeline"><g><title>V2 encoder</title><rect fill="#000000" fill-opacity="0.00000" height="547.5898" width="8" x="747.3013" y="118.9766"/><line style="stroke:#181818;stroke-width:0.5;stroke-dasharray:5,5;" x1="750.7842" x2="750.7842" y1="118.9766" y2="666.5664"/></g></g><g class="participant-lifeline" data-entity-uid="part6" data-qualified-name="persistence" data-source-line="19" id="part6-lifeline"><g><title>Execution persistence</title><rect fill="#000000" fill-opacity="0.00000" height="547.5898" width="8" x="879.9131" y="118.9766"/><line style="stroke:#181818;stroke-width:0.5;stroke-dasharray:5,5;" x1="883.8184" x2="883.8184" y1="118.9766" y2="666.5664"/></g></g><g class="participant-lifeline" data-entity-uid="part7" data-qualified-name="poller" data-source-line="20" id="part7-lifeline"><g><title>Result polling service</title><rect fill="#000000" fill-opacity="0.00000" height="547.5898" width="8" x="1046.2671" y="118.9766"/><line style="stroke:#181818;stroke-width:0.5;stroke-dasharray:5,5;" x1="1050.0078" x2="1050.0078" y1="118.9766" y2="666.5664"/></g></g><g class="participant-lifeline" data-entity-uid="part8" data-qualified-name="reader" data-source-line="21" id="part8-lifeline"><g><title>Committed result reader</title><rect fill="#000000" fill-opacity="0.00000" height="547.5898" width="8" x="1294.8916" y="118.9766"/><line style="stroke:#181818;stroke-width:0.5;stroke-dasharray:5,5;" x1="1298.5649" x2="1298.5649" y1="118.9766" y2="666.5664"/></g></g><g class="participant participant-head" data-entity-uid="part1" data-qualified-name="http" data-source-line="14" id="part1-head"><text fill="#000000" font-family="sans-serif" font-size="14" lengthAdjust="spacing" textLength="139.7334" x="5" y="116.0234">Future HTTP handler</text><ellipse cx="77.8667" cy="50.9883" fill="#E2E2F0" rx="8" ry="8" style="stroke:#181818;stroke-width:0.5;"/><path d="M77.8667,58.9883 L77.8667,85.9883 M64.8667,66.9883 L90.8667,66.9883 M77.8667,85.9883 L64.8667,100.9883 M77.8667,85.9883 L90.8667,100.9883" fill="none" style="stroke:#181818;stroke-width:0.5;"/></g><g class="participant participant-tail" data-entity-uid="part1" data-qualified-name="http" data-source-line="14" id="part1-tail"><text fill="#000000" font-family="sans-serif" font-size="14" lengthAdjust="spacing" textLength="139.7334" x="5" y="679.1016">Future HTTP handler</text><ellipse cx="77.8667" cy="690.5547" fill="#E2E2F0" rx="8" ry="8" style="stroke:#181818;stroke-width:0.5;"/><path d="M77.8667,698.5547 L77.8667,725.5547 M64.8667,706.5547 L90.8667,706.5547 M77.8667,725.5547 L64.8667,740.5547 M77.8667,725.5547 L90.8667,740.5547" fill="none" style="stroke:#181818;stroke-width:0.5;"/></g><g class="participant participant-head" data-entity-uid="part2" data-qualified-name="service" data-source-line="15" id="part2-head"><rect fill="#E2E2F0" height="30.4883" rx="2.5" ry="2.5" style="stroke:#181818;stroke-width:0.5;" width="135.8643" x="191.7056" y="87.4883"/><text fill="#000000" font-family="sans-serif" font-size="14" lengthAdjust="spacing" textLength="121.8643" x="198.7056" y="108.0234">V2 control service</text></g><g class="participant participant-tail" data-entity-uid="part2" data-qualified-name="service" data-source-line="15" id="part2-tail"><rect fill="#E2E2F0" height="30.4883" rx="2.5" ry="2.5" style="stroke:#181818;stroke-width:0.5;" width="135.8643" x="191.7056" y="665.5664"/><text fill="#000000" font-family="sans-serif" font-size="14" lengthAdjust="spacing" textLength="121.8643" x="198.7056" y="686.1016">V2 control service</text></g><g class="participant participant-head" data-entity-uid="part3" data-qualified-name="stream" data-source-line="16" id="part3-head"><path d="M363.5093,92.4883 L513.5571,92.4883 C518.5571,92.4883 518.5571,105.7324 518.5571,105.7324 C518.5571,105.7324 518.5571,118.9766 513.5571,118.9766 L363.5093,118.9766 C358.5093,118.9766 358.5093,105.7324 358.5093,105.7324 C358.5093,105.7324 358.5093,92.4883 363.5093,92.4883" fill="#E2E2F0" style="stroke:#181818;stroke-width:0.5;"/><path d="M513.5571,92.4883 C508.5571,92.4883 508.5571,105.7324 508.5571,105.7324 C508.5571,118.9766 513.5571,118.9766 513.5571,118.9766" fill="none" style="stroke:#181818;stroke-width:0.5;"/><text fill="#000000" font-family="sans-serif" font-size="14" lengthAdjust="spacing" textLength="140.0479" x="363.5093" y="111.0234">RuntimeEventStream</text></g><g class="participant participant-tail" data-entity-uid="part3" data-qualified-name="stream" data-source-line="16" id="part3-tail"><path d="M363.5093,665.5664 L513.5571,665.5664 C518.5571,665.5664 518.5571,678.8105 518.5571,678.8105 C518.5571,678.8105 518.5571,692.0547 513.5571,692.0547 L363.5093,692.0547 C358.5093,692.0547 358.5093,678.8105 358.5093,678.8105 C358.5093,678.8105 358.5093,665.5664 363.5093,665.5664" fill="#E2E2F0" style="stroke:#181818;stroke-width:0.5;"/><path d="M513.5571,665.5664 C508.5571,665.5664 508.5571,678.8105 508.5571,678.8105 C508.5571,692.0547 513.5571,692.0547 513.5571,692.0547" fill="none" style="stroke:#181818;stroke-width:0.5;"/><text fill="#000000" font-family="sans-serif" font-size="14" lengthAdjust="spacing" textLength="140.0479" x="363.5093" y="684.1016">RuntimeEventStream</text></g><g class="participant participant-head" data-entity-uid="part4" data-qualified-name="waits" data-source-line="17" id="part4-head"><rect fill="#E2E2F0" height="30.4883" rx="2.5" ry="2.5" style="stroke:#181818;stroke-width:0.5;" width="144.1426" x="551.6416" y="87.4883"/><text fill="#000000" font-family="sans-serif" font-size="14" lengthAdjust="spacing" textLength="130.1426" x="558.6416" y="108.0234">Result wait registry</text></g><g class="participant participant-tail" data-entity-uid="part4" data-qualified-name="waits" data-source-line="17" id="part4-tail"><rect fill="#E2E2F0" height="30.4883" rx="2.5" ry="2.5" style="stroke:#181818;stroke-width:0.5;" width="144.1426" x="551.6416" y="665.5664"/><text fill="#000000" font-family="sans-serif" font-size="14" lengthAdjust="spacing" textLength="130.1426" x="558.6416" y="686.1016">Result wait registry</text></g><g class="participant participant-head" data-entity-uid="part5" data-qualified-name="encoder" data-source-line="18" id="part5-head"><rect fill="#E2E2F0" height="30.4883" rx="2.5" ry="2.5" style="stroke:#181818;stroke-width:0.5;" width="91.0342" x="705.7842" y="87.4883"/><text fill="#000000" font-family="sans-serif" font-size="14" lengthAdjust="spacing" textLength="77.0342" x="712.7842" y="108.0234">V2 encoder</text></g><g class="participant participant-tail" data-entity-uid="part5" data-qualified-name="encoder" data-source-line="18" id="part5-tail"><rect fill="#E2E2F0" height="30.4883" rx="2.5" ry="2.5" style="stroke:#181818;stroke-width:0.5;" width="91.0342" x="705.7842" y="665.5664"/><text fill="#000000" font-family="sans-serif" font-size="14" lengthAdjust="spacing" textLength="77.0342" x="712.7842" y="686.1016">V2 encoder</text></g><g class="participant participant-head" data-entity-uid="part6" data-qualified-name="persistence" data-source-line="19" id="part6-head"><text fill="#000000" font-family="sans-serif" font-size="14" lengthAdjust="spacing" textLength="148.1895" x="806.8184" y="116.0234">Execution persistence</text><path d="M865.9131,66.4883 C865.9131,56.4883 883.9131,56.4883 883.9131,56.4883 C883.9131,56.4883 901.9131,56.4883 901.9131,66.4883 L901.9131,92.4883 C901.9131,102.4883 883.9131,102.4883 883.9131,102.4883 C883.9131,102.4883 865.9131,102.4883 865.9131,92.4883 L865.9131,66.4883" fill="#E2E2F0" style="stroke:#181818;stroke-width:0.5;"/><path d="M865.9131,66.4883 C865.9131,76.4883 883.9131,76.4883 883.9131,76.4883 C883.9131,76.4883 901.9131,76.4883 901.9131,66.4883" fill="none" style="stroke:#181818;stroke-width:0.5;"/></g><g class="participant participant-tail" data-entity-uid="part6" data-qualified-name="persistence" data-source-line="19" id="part6-tail"><text fill="#000000" font-family="sans-serif" font-size="14" lengthAdjust="spacing" textLength="148.1895" x="806.8184" y="679.1016">Execution persistence</text><path d="M865.9131,692.0547 C865.9131,682.0547 883.9131,682.0547 883.9131,682.0547 C883.9131,682.0547 901.9131,682.0547 901.9131,692.0547 L901.9131,718.0547 C901.9131,728.0547 883.9131,728.0547 883.9131,728.0547 C883.9131,728.0547 865.9131,728.0547 865.9131,718.0547 L865.9131,692.0547" fill="#E2E2F0" style="stroke:#181818;stroke-width:0.5;"/><path d="M865.9131,692.0547 C865.9131,702.0547 883.9131,702.0547 883.9131,702.0547 C883.9131,702.0547 901.9131,702.0547 901.9131,692.0547" fill="none" style="stroke:#181818;stroke-width:0.5;"/></g><g class="participant participant-head" data-entity-uid="part7" data-qualified-name="poller" data-source-line="20" id="part7-head"><rect fill="#E2E2F0" height="30.4883" rx="2.5" ry="2.5" style="stroke:#181818;stroke-width:0.5;" width="158.5186" x="971.0078" y="87.4883"/><text fill="#000000" font-family="sans-serif" font-size="14" lengthAdjust="spacing" textLength="144.5186" x="978.0078" y="108.0234">Result polling service</text></g><g class="participant participant-tail" data-entity-uid="part7" data-qualified-name="poller" data-source-line="20" id="part7-tail"><rect fill="#E2E2F0" height="30.4883" rx="2.5" ry="2.5" style="stroke:#181818;stroke-width:0.5;" width="158.5186" x="971.0078" y="665.5664"/><text fill="#000000" font-family="sans-serif" font-size="14" lengthAdjust="spacing" textLength="144.5186" x="978.0078" y="686.1016">Result polling service</text></g><g class="participant participant-head" data-entity-uid="part8" data-qualified-name="reader" data-source-line="21" id="part8-head"><text fill="#000000" font-family="sans-serif" font-size="14" lengthAdjust="spacing" textLength="166.6533" x="1212.5649" y="116.0234">Committed result reader</text><path d="M1280.8916,66.4883 C1280.8916,56.4883 1298.8916,56.4883 1298.8916,56.4883 C1298.8916,56.4883 1316.8916,56.4883 1316.8916,66.4883 L1316.8916,92.4883 C1316.8916,102.4883 1298.8916,102.4883 1298.8916,102.4883 C1298.8916,102.4883 1280.8916,102.4883 1280.8916,92.4883 L1280.8916,66.4883" fill="#E2E2F0" style="stroke:#181818;stroke-width:0.5;"/><path d="M1280.8916,66.4883 C1280.8916,76.4883 1298.8916,76.4883 1298.8916,76.4883 C1298.8916,76.4883 1316.8916,76.4883 1316.8916,66.4883" fill="none" style="stroke:#181818;stroke-width:0.5;"/></g><g class="participant participant-tail" data-entity-uid="part8" data-qualified-name="reader" data-source-line="21" id="part8-tail"><text fill="#000000" font-family="sans-serif" font-size="14" lengthAdjust="spacing" textLength="166.6533" x="1212.5649" y="679.1016">Committed result reader</text><path d="M1280.8916,692.0547 C1280.8916,682.0547 1298.8916,682.0547 1298.8916,682.0547 C1298.8916,682.0547 1316.8916,682.0547 1316.8916,692.0547 L1316.8916,718.0547 C1316.8916,728.0547 1298.8916,728.0547 1298.8916,728.0547 C1298.8916,728.0547 1280.8916,728.0547 1280.8916,718.0547 L1280.8916,692.0547" fill="#E2E2F0" style="stroke:#181818;stroke-width:0.5;"/><path d="M1280.8916,692.0547 C1280.8916,702.0547 1298.8916,702.0547 1298.8916,702.0547 C1298.8916,702.0547 1316.8916,702.0547 1316.8916,692.0547" fill="none" style="stroke:#181818;stroke-width:0.5;"/></g><g class="message" data-entity-1="part1" data-entity-2="part2" data-source-line="23" id="msg1"><polygon fill="#181818" points="247.6377,146.2871,257.6377,150.2871,247.6377,154.2871,251.6377,150.2871" style="stroke:#181818;stroke-width:1;stroke-linejoin:miter;stroke-miterlimit:10;"/><line style="stroke:#181818;stroke-width:1;" x1="77.8667" x2="253.6377" y1="150.2871" y2="150.2871"/><text fill="#000000" font-family="sans-serif" font-size="13" lengthAdjust="spacing" textLength="157.771" x="89.8667" y="145.5449">interrupt or confirmation</text></g><g class="message" data-entity-1="part2" data-entity-2="part3" data-source-line="24" id="msg2"><polygon fill="#181818" points="426.5332,175.5977,436.5332,179.5977,426.5332,183.5977,430.5332,179.5977" style="stroke:#181818;stroke-width:1;stroke-linejoin:miter;stroke-miterlimit:10;"/><line style="stroke:#181818;stroke-width:1;" x1="259.6377" x2="432.5332" y1="179.5977" y2="179.5977"/><text fill="#000000" font-family="sans-serif" font-size="13" lengthAdjust="spacing" textLength="146.0088" x="276.0811" y="174.8555">create bounded stream</text></g><g class="message" data-entity-1="part2" data-entity-2="part4" data-source-line="25" id="msg3"><polygon fill="#181818" points="611.7129,204.9082,621.7129,208.9082,611.7129,212.9082,615.7129,208.9082" style="stroke:#181818;stroke-width:1;stroke-linejoin:miter;stroke-miterlimit:10;"/><line style="stroke:#181818;stroke-width:1;" x1="259.6377" x2="617.7129" y1="208.9082" y2="208.9082"/><text fill="#000000" font-family="sans-serif" font-size="13" lengthAdjust="spacing" textLength="134.4751" x="374.4377" y="204.166">reserve response slot</text></g><g class="message" data-entity-1="part2" data-entity-2="part3" data-source-line="26" id="msg4"><polygon fill="#181818" points="426.5332,234.2188,436.5332,238.2188,426.5332,242.2188,430.5332,238.2188" style="stroke:#181818;stroke-width:1;stroke-linejoin:miter;stroke-miterlimit:10;"/><line style="stroke:#181818;stroke-width:1;" x1="259.6377" x2="432.5332" y1="238.2188" y2="238.2188"/><text fill="#000000" font-family="sans-serif" font-size="13" lengthAdjust="spacing" textLength="154.8955" x="271.6377" y="233.4766">register one close action</text></g><g class="message" data-entity-1="part2" data-entity-2="part5" data-source-line="27" id="msg5"><polygon fill="#181818" points="739.3013,263.5293,749.3013,267.5293,739.3013,271.5293,743.3013,267.5293" style="stroke:#181818;stroke-width:1;stroke-linejoin:miter;stroke-miterlimit:10;"/><line style="stroke:#181818;stroke-width:1;" x1="259.6377" x2="745.3013" y1="267.5293" y2="267.5293"/><text fill="#000000" font-family="sans-serif" font-size="13" lengthAdjust="spacing" textLength="145.3613" x="432.7888" y="262.7871">encode receipt preview</text></g><g class="message" data-entity-1="part5" data-entity-2="part2" data-source-line="28" id="msg6"><polygon fill="#181818" points="270.6377,292.8398,260.6377,296.8398,270.6377,300.8398,266.6377,296.8398" style="stroke:#181818;stroke-width:1;stroke-linejoin:miter;stroke-miterlimit:10;"/><line style="stroke:#181818;stroke-width:1;stroke-dasharray:2,2;" x1="264.6377" x2="750.3013" y1="296.8398" y2="296.8398"/><text fill="#000000" font-family="sans-serif" font-size="13" lengthAdjust="spacing" textLength="125.6011" x="442.6689" y="292.0977">required data frame</text></g><g class="message" data-entity-1="part2" data-entity-2="part3" data-source-line="29" id="msg7"><polygon fill="#181818" points="426.5332,322.1504,436.5332,326.1504,426.5332,330.1504,430.5332,326.1504" style="stroke:#181818;stroke-width:1;stroke-linejoin:miter;stroke-miterlimit:10;"/><line style="stroke:#181818;stroke-width:1;" x1="259.6377" x2="432.5332" y1="326.1504" y2="326.1504"/><text fill="#000000" font-family="sans-serif" font-size="13" lengthAdjust="spacing" textLength="149.0366" x="274.5671" y="321.4082">check required capacity</text></g><g class="message" data-entity-1="part2" data-entity-2="part6" data-source-line="30" id="msg8"><polygon fill="#181818" points="871.9131,351.4609,881.9131,355.4609,871.9131,359.4609,875.9131,355.4609" style="stroke:#181818;stroke-width:1;stroke-linejoin:miter;stroke-miterlimit:10;"/><line style="stroke:#181818;stroke-width:1;" x1="259.6377" x2="877.9131" y1="355.4609" y2="355.4609"/><text fill="#000000" font-family="sans-serif" font-size="13" lengthAdjust="spacing" textLength="164.2139" x="489.6685" y="350.7188">accept control transaction</text></g><g class="message" data-entity-1="part6" data-entity-2="part2" data-source-line="31" id="msg9"><polygon fill="#181818" points="270.6377,380.7715,260.6377,384.7715,270.6377,388.7715,266.6377,384.7715" style="stroke:#181818;stroke-width:1;stroke-linejoin:miter;stroke-miterlimit:10;"/><line style="stroke:#181818;stroke-width:1;stroke-dasharray:2,2;" x1="264.6377" x2="882.9131" y1="384.7715" y2="384.7715"/><text fill="#000000" font-family="sans-serif" font-size="13" lengthAdjust="spacing" textLength="148.5415" x="497.5046" y="380.0293">receipt and fixed target</text></g><g class="message" data-entity-1="part2" data-entity-2="part3" data-source-line="32" id="msg10"><polygon fill="#181818" points="426.5332,410.082,436.5332,414.082,426.5332,418.082,430.5332,414.082" style="stroke:#181818;stroke-width:1;stroke-linejoin:miter;stroke-miterlimit:10;"/><line style="stroke:#181818;stroke-width:1;" x1="259.6377" x2="432.5332" y1="414.082" y2="414.082"/><text fill="#000000" font-family="sans-serif" font-size="13" lengthAdjust="spacing" textLength="130.9521" x="283.6094" y="409.3398">enqueue receipt first</text></g><g class="message" data-entity-1="part2" data-entity-2="part4" data-source-line="33" id="msg11"><polygon fill="#181818" points="611.7129,439.3926,621.7129,443.3926,611.7129,447.3926,615.7129,443.3926" style="stroke:#181818;stroke-width:1;stroke-linejoin:miter;stroke-miterlimit:10;"/><line style="stroke:#181818;stroke-width:1;" x1="259.6377" x2="617.7129" y1="443.3926" y2="443.3926"/><text fill="#000000" font-family="sans-serif" font-size="13" lengthAdjust="spacing" textLength="208.2412" x="337.5547" y="438.6504">bind target and receipt sequence</text></g><g class="message" data-entity-1="part2" data-entity-2="part7" data-source-line="34" id="msg12"><polygon fill="#181818" points="1038.2671,468.7031,1048.2671,472.7031,1038.2671,476.7031,1042.2671,472.7031" style="stroke:#181818;stroke-width:1;stroke-linejoin:miter;stroke-miterlimit:10;"/><line style="stroke:#181818;stroke-width:1;" x1="259.6377" x2="1044.2671" y1="472.7031" y2="472.7031"/><text fill="#000000" font-family="sans-serif" font-size="13" lengthAdjust="spacing" textLength="149.8682" x="580.0183" y="467.9609">notify committed target</text></g><g class="message" data-entity-1="part7" data-entity-2="part8" data-source-line="35" id="msg13"><polygon fill="#181818" points="1286.8916,498.0137,1296.8916,502.0137,1286.8916,506.0137,1290.8916,502.0137" style="stroke:#181818;stroke-width:1;stroke-linejoin:miter;stroke-miterlimit:10;"/><line style="stroke:#181818;stroke-width:1;" x1="1050.2671" x2="1292.8916" y1="502.0137" y2="502.0137"/><text fill="#000000" font-family="sans-serif" font-size="13" lengthAdjust="spacing" textLength="158.5264" x="1095.3162" y="497.2715">read authoritative results</text></g><g class="message" data-entity-1="part8" data-entity-2="part7" data-source-line="36" id="msg14"><polygon fill="#181818" points="1061.2671,527.3242,1051.2671,531.3242,1061.2671,535.3242,1057.2671,531.3242" style="stroke:#181818;stroke-width:1;stroke-linejoin:miter;stroke-miterlimit:10;"/><line style="stroke:#181818;stroke-width:1;stroke-dasharray:2,2;" x1="1055.2671" x2="1297.8916" y1="531.3242" y2="531.3242"/><text fill="#000000" font-family="sans-serif" font-size="13" lengthAdjust="spacing" textLength="224.6245" x="1062.2671" y="526.582">committed events and terminal flag</text></g><g class="message" data-entity-1="part7" data-entity-2="part4" data-source-line="37" id="msg15"><polygon fill="#181818" points="634.7129,556.6348,624.7129,560.6348,634.7129,564.6348,630.7129,560.6348" style="stroke:#181818;stroke-width:1;stroke-linejoin:miter;stroke-miterlimit:10;"/><line style="stroke:#181818;stroke-width:1;" x1="628.7129" x2="1049.2671" y1="560.6348" y2="560.6348"/><text fill="#000000" font-family="sans-serif" font-size="13" lengthAdjust="spacing" textLength="172.5864" x="750.6968" y="555.8926">deliver per response cursor</text></g><g class="message" data-entity-1="part4" data-entity-2="part3" data-source-line="38" id="msg16"><polygon fill="#181818" points="449.5332,585.9453,439.5332,589.9453,449.5332,593.9453,445.5332,589.9453" style="stroke:#181818;stroke-width:1;stroke-linejoin:miter;stroke-miterlimit:10;"/><line style="stroke:#181818;stroke-width:1;" x1="443.5332" x2="622.7129" y1="589.9453" y2="589.9453"/><text fill="#000000" font-family="sans-serif" font-size="13" lengthAdjust="spacing" textLength="161.1797" x="450.5332" y="585.2031">enqueue complete events</text></g><g class="message" data-entity-1="part4" data-entity-2="part3" data-source-line="39" id="msg17"><polygon fill="#181818" points="449.5332,615.2559,439.5332,619.2559,449.5332,623.2559,445.5332,619.2559" style="stroke:#181818;stroke-width:1;stroke-linejoin:miter;stroke-miterlimit:10;"/><line style="stroke:#181818;stroke-width:1;" x1="443.5332" x2="622.7129" y1="619.2559" y2="619.2559"/><text fill="#000000" font-family="sans-serif" font-size="13" lengthAdjust="spacing" textLength="130.6602" x="465.793" y="614.5137">complete at terminal</text></g><g class="message" data-entity-1="part3" data-entity-2="part4" data-source-line="40" id="msg18"><polygon fill="#181818" points="611.7129,644.5664,621.7129,648.5664,611.7129,652.5664,615.7129,648.5664" style="stroke:#181818;stroke-width:1;stroke-linejoin:miter;stroke-miterlimit:10;"/><line style="stroke:#181818;stroke-width:1;" x1="438.5332" x2="617.7129" y1="648.5664" y2="648.5664"/><text fill="#000000" font-family="sans-serif" font-size="13" lengthAdjust="spacing" textLength="140.7847" x="460.7307" y="643.8242">close reservation once</text></g><?plantuml-src lLPDazis3BthLs2SGq_-aFozXyvat7JQJZFTsSqaPuY4R7ObKYKfR_pl2vBIMavytfDf-H5uU7Y0vPMl2JwTINi7vm8EHdjhQlWe1BKUjI10BU69N5Tx-8RAAttCVaau51vAT5GhJG_GgcbZj9d-YsUSIdBggA4WAd1PvBd4pGxbRbikv5vWkLmlQRFFoyMYb4Ybv8X_yRLHjDrYLwunNpCotopNHLLMUx7Uh5PYKLJRV2loajQY47pppwQjgU4Aq2kZ7q1i5qAijrMvN4cic82GifAxzNgF6x5VY2skI5Rx1LzzDfqLdAqnigl9pOMHNDyKZnnjAcerTrRC6rHw7ghYdvkvmARjdAZnjKT7yDnssgk6i5Lp2chEdzA3hqKlQTJucUnP2Pg5Q1ymQlmkB59oRmcRbDleGsqSlKloP9xWdISwAkVj9N6mv5YEPB1IQVcEP1vDpJOxthH36w-goy4qZVAU0fj71QudrA9uuS1k7YdRoCEHSsmuD_Fkmz_gJC_f-sVKZBGp-awYynG2XWhHmmghlInokInNShDPqGgBVSNJK97OhVDjljXkYzMEbfpwdp8cOc7eX6Tbx4CQ4D7F9rxdioNhM5K729O4gPQ7aYfZ2KmCmdK2Tlvah0eJmeBRg86RSPxVqfooCLmOdQ4b_DboPGG2kNBbBqD8aUI9CS4fIK0Lq_VWJrmWToWk4e6QrGJ7qrTVE5XRusKspBXa2fPx56Ijr7UkCV61rxHTk3Phd8FM6i6AaWCLQZl4FX-upu1Md9Jdh5rWT49zf5dcNfHkqM83ZlxhGlZFV9ixyR4E5GecHZRZbMKiJ7xlujq_ldnv1BulQx8JG0SdxzkCetWbL8lQm-HhyQQvIsw9mFwSSQQEOFBpc2LKFDu6VBeMouMdUOZWyCJzb9mBCR9drvypYHx3feJ9f-WnDjtWWb1tn8w-tytVfWcuAIeykmd_DWn3YxYSWKmwPbcG3AQ_3e7W0LHGsdRiGvQQnQkKRU9gpWPCW4Tf62tuqnEKfjEI4_MIZP1H5xZZJLSRVpTaafKi6Ct-27kEFVKZWLvCXgVJs_2qbiwANhC1CBqfphAvb6MYGIMes6zqlwmJYPShUfYZCNRK8hwG9lhDRFplgbtFUWpyaKtY71PCcYMFF5ltPI6Tt3fSuhuuVq_fi8pxG37oS64Oh9iYecVuKbgVmuAuCka134sEYQnHtbz9MO-PZYDVGr9wJmcSkBsDqbX3LUDnb6IeGV9x1E-P8F9ectNM6Pibp3rfE1M_Ix0TKwOxo3S4hxk1GzR_EagVN9Si6xtFNXJqFm00?></g></svg>