<svg xmlns="http://www.w3.org/2000/svg" xmlns:xlink="http://www.w3.org/1999/xlink" contentStyleType="text/css" data-diagram-type="DESCRIPTION" height="479px" preserveAspectRatio="none" style="width:1503px;height:479px;background:#FFFFFF;" version="1.1" viewBox="0 0 1503 479" width="1503px" zoomAndPan="magnify"><?plantuml 1.2026.6?><defs/><g><!--cluster CampusClaw--><g class="cluster" data-qualified-name="CampusClaw" data-source-line="14" id="ent0001"><path d="M8.5,108.28 L102.5029,108.28 A3.75,3.75 0 0 1 105.0029,110.78 L112.0029,130.7683 L1096.62,130.7683 A2.5,2.5 0 0 1 1099.12,133.2683 L1099.12,377.78 A2.5,2.5 0 0 1 1096.62,380.28 L8.5,380.28 A2.5,2.5 0 0 1 6,377.78 L6,110.78 A2.5,2.5 0 0 1 8.5,108.28" fill="none" style="stroke:#000000;stroke-width:1.5;"/><line style="stroke:#000000;stroke-width:1.5;" x1="6" x2="112.0029" y1="130.7683" y2="130.7683"/><text fill="#000000" font-family="sans-serif" font-size="14" font-weight="700" lengthAdjust="spacing" textLength="93.0029" x="10" y="123.8152">CampusClaw</text></g><!--entity model--><g class="entity" data-qualified-name="CampusClaw.model" data-source-line="15" id="ent0002"><rect fill="#F1F1F1" height="36.4883" rx="2.5" ry="2.5" style="stroke:#181818;stroke-width:0.5;" width="121.4453" x="54.43" y="290.04"/><text fill="#000000" font-family="sans-serif" font-size="14" lengthAdjust="spacing" textLength="101.4453" x="64.43" y="313.5752">Model Provider</text></g><!--entity runtime--><g class="entity" data-qualified-name="CampusClaw.runtime" data-source-line="16" id="ent0003"><rect fill="#F1F1F1" height="36.4883" rx="2.5" ry="2.5" style="stroke:#181818;stroke-width:0.5;" width="186.2979" x="22" y="219.04"/><text fill="#000000" font-family="sans-serif" font-size="14" lengthAdjust="spacing" textLength="166.2979" x="32" y="242.5752">Managed Runtime Client</text></g><!--entity tool--><g class="entity" data-qualified-name="CampusClaw.tool" data-source-line="17" id="ent0004"><rect fill="#F1F1F1" height="36.4883" rx="2.5" ry="2.5" style="stroke:#181818;stroke-width:0.5;" width="94.0332" x="68.13" y="148.04"/><text fill="#000000" font-family="sans-serif" font-size="14" lengthAdjust="spacing" textLength="74.0332" x="78.13" y="171.5752">Tool Client</text></g><!--entity properties--><g class="entity" data-qualified-name="CampusClaw.properties" data-source-line="18" id="ent0005"><rect fill="#F1F1F1" height="36.4883" rx="2.5" ry="2.5" style="stroke:#181818;stroke-width:0.5;" width="216.082" x="453.12" y="219.04"/><text fill="#000000" font-family="sans-serif" font-size="14" lengthAdjust="spacing" textLength="196.082" x="463.12" y="242.5752">CampusMateClientProperties</text></g><!--entity base--><g class="entity" data-qualified-name="CampusClaw.base" data-source-line="19" id="ent0006"><path d="M840.61,153.54 C840.61,143.54 925.0704,143.54 925.0704,143.54 C925.0704,143.54 1009.5309,143.54 1009.5309,153.54 L1009.5309,179.0283 C1009.5309,189.0283 925.0704,189.0283 925.0704,189.0283 C925.0704,189.0283 840.61,189.0283 840.61,179.0283 L840.61,153.54" fill="#F1F1F1" style="stroke:#181818;stroke-width:0.5;"/><path d="M840.61,153.54 C840.61,163.54 925.0704,163.54 925.0704,163.54 C925.0704,163.54 1009.5309,163.54 1009.5309,153.54" fill="none" style="stroke:#181818;stroke-width:0.5;"/><text fill="#000000" font-family="sans-serif" font-size="14" lengthAdjust="spacing" textLength="148.9209" x="850.61" y="181.0752">campusmate.base-url</text></g><!--entity observed--><g class="entity" data-qualified-name="CampusClaw.observed" data-source-line="20" id="ent0007"><rect fill="#F1F1F1" height="48.9766" rx="2.5" ry="2.5" style="stroke:#181818;stroke-width:0.5;" width="256.1465" x="799" y="227.79"/><rect fill="#F1F1F1" height="48.9766" rx="2.5" ry="2.5" style="stroke:#181818;stroke-width:0.5;" width="256.1465" x="795" y="223.79"/><text fill="#000000" font-family="sans-serif" font-size="14" lengthAdjust="spacing" textLength="174.6719" x="803" y="245.3252">Observed in mate-service</text><text fill="#000000" font-family="sans-serif" font-size="14" lengthAdjust="spacing" textLength="240.1465" x="803" y="261.8134">Chat + Agent info + Agent runtime</text></g><!--entity target_only--><g class="entity" data-qualified-name="CampusClaw.target_only" data-source-line="21" id="ent0008"><rect fill="#F1F1F1" height="48.9766" rx="2.5" ry="2.5" style="stroke:#181818;stroke-width:0.5;" width="312.0986" x="771.02" y="315.79"/><rect fill="#F1F1F1" height="48.9766" rx="2.5" ry="2.5" style="stroke:#181818;stroke-width:0.5;" width="312.0986" x="767.02" y="311.79"/><text fill="#000000" font-family="sans-serif" font-size="14" lengthAdjust="spacing" textLength="191.29" x="775.02" y="333.3252">Target-only in mate-service</text><text fill="#000000" font-family="sans-serif" font-size="14" lengthAdjust="spacing" textLength="296.0986" x="775.02" y="349.8134">Skill query + Tool metadata + Tool execute</text></g><!--entity campusmate--><g class="entity" data-qualified-name="campusmate" data-source-line="24" id="ent0009"><path d="M1320.6003,235.1711 C1325.0888,229.8888 1331.5638,230.0639 1334.8063,236.6613 C1336.9933,230.5173 1342.3467,230.6815 1346.1607,234.8741 C1350.2219,228.8601 1355.1394,228.7034 1359.0769,235.0039 C1361.7467,226.7274 1368.7335,227.5737 1373.3245,233.0073 C1377.6547,227.7516 1381.4631,227.8979 1385.624,233.2044 C1389.6399,227.7458 1393.8846,226.065 1398.3059,232.7821 C1401.9713,226.9258 1408.1129,227.0761 1411.5282,233.0613 C1415.9239,226.78 1421.217,228.2663 1424.6326,234.1198 C1428.5794,228.7823 1432.3071,228.329 1436.8392,233.4358 C1440.5198,227.6966 1446.0806,228.0566 1448.4515,234.6672 C1452.4199,228.385 1459.033,227.187 1463.1409,234.5167 C1468.6028,229.8782 1472.5359,231.0316 1475.8797,237.0488 C1484.5986,237.4641 1488.4782,244.1625 1482.7623,251.4679 C1488.1048,260.3915 1485.3595,267.0348 1474.4609,267.6017 C1471.4236,273.025 1466.0558,272.5007 1463.2196,267.3872 C1460.3529,272.3511 1456.5132,273.1598 1452.3892,268.8564 C1449.9381,274.7123 1445.6083,275.803 1441.5183,270.4452 C1438.44,276.2424 1434.8871,275.8138 1431.2001,271.0392 C1428.4425,277.6771 1424.0233,277.3151 1419.7608,272.5488 C1416.2538,277.1555 1411.2902,277.1137 1408.3895,271.8504 C1405.8886,276.6562 1402.2485,277.7249 1398.0472,273.8844 C1393.7198,278.4823 1390.56,277.3781 1387.8039,272.2325 C1384.2104,276.9148 1380.0346,277.3475 1376.8426,271.8022 C1373.0868,276.997 1369.5196,276.126 1365.9038,271.6439 C1361.5545,276.2713 1357.1896,276.2314 1354.4107,269.9843 C1350.2738,273.8276 1345.3477,274.4768 1343.3274,267.7623 C1340.1623,272.7837 1334.5967,273.0267 1331.179,268.0699 C1327.9222,271.614 1324.1082,272.2598 1322.0204,266.8712 C1312.9473,266.34 1307.2976,261.1334 1312.2695,251.6216 C1308.1878,243.2149 1309.7451,236.0135 1320.6003,235.1711" fill="#F1F1F1" style="stroke:#181818;stroke-width:0.5;"/><text fill="#000000" font-family="sans-serif" font-size="14" lengthAdjust="spacing" textLength="139.7129" x="1327.12" y="255.5752">CampusMate Service</text></g><g class="entity" data-qualified-name="GMN19" data-source-line="37" id="ent0020"><path d="M416.3,6 L416.3,92.5527 A0,0 0 0 0 416.3,92.5527 L557.16,92.5527 L561.16,218.55 L565.16,92.5527 L706.0217,92.5527 A0,0 0 0 0 706.0217,92.5527 L706.0217,16 L696.0217,6 L416.3,6 A0,0 0 0 0 416.3,6" fill="#FEFFDD" style="stroke:#181818;stroke-width:0.5;"/><path d="M696.0217,6 L696.0217,16 L706.0217,16 L696.0217,6" fill="#FEFFDD" style="stroke:#181818;stroke-width:0.5;"/><text fill="#000000" font-family="sans-serif" font-size="13" lengthAdjust="spacing" textLength="166.5308" x="422.3" y="23.5684">Shared configuration only.</text><text fill="#000000" font-family="sans-serif" font-size="13" lengthAdjust="spacing" textLength="162.665" x="422.3" y="38.8789">Model, Runtime, and Tool</text><text fill="#000000" font-family="sans-serif" font-size="13" lengthAdjust="spacing" textLength="201.1826" x="422.3" y="54.1895">keep separate local parameters.</text><text fill="#000000" font-family="sans-serif" font-size="13" lengthAdjust="spacing" textLength="262.3804" x="422.3" y="69.5">Canonical module: environment required.</text><text fill="#000000" font-family="sans-serif" font-size="13" lengthAdjust="spacing" textLength="268.7217" x="422.3" y="84.8105">Corporate mirror: localhost HTTPS default.</text></g><!--link model to properties--><g class="link" data-entity-1="ent0002" data-entity-2="ent0005" data-link-type="dependency" data-source-line="26" id="lnk10"><path d="M176.03,298.7 C246.81,287.39 360.9827,269.1295 447.8427,255.2395" fill="none" id="model-to-properties" style="stroke:#181818;stroke-width:1;"/><polygon fill="#181818" points="452.78,254.45,443.2613,251.9213,447.8427,255.2395,444.5245,259.821,452.78,254.45" style="stroke:#181818;stroke-width:1;stroke-linejoin:miter;stroke-miterlimit:10;"/><text fill="#000000" font-family="sans-serif" font-size="13" lengthAdjust="spacing" textLength="70.186" x="277.3" y="262.9884">model chat</text></g><!--link runtime to properties--><g class="link" data-entity-1="ent0003" data-entity-2="ent0005" data-link-type="dependency" data-source-line="27" id="lnk11"><path d="M208.69,237.28 C279.85,237.28 373.29,237.28 447.9,237.28" fill="none" id="runtime-to-properties" style="stroke:#181818;stroke-width:1;"/><polygon fill="#181818" points="452.9,237.28,443.9,233.28,447.9,237.28,443.9,241.28,452.9,237.28" style="stroke:#181818;stroke-width:1;stroke-linejoin:miter;stroke-miterlimit:10;"/><text fill="#000000" font-family="sans-serif" font-size="13" lengthAdjust="spacing" textLength="146.1802" x="239.3" y="233.8484">agent runtime and skill</text></g><!--link tool to properties--><g class="link" data-entity-1="ent0004" data-entity-2="ent0005" data-link-type="dependency" data-source-line="28" id="lnk12"><path d="M162.41,173.68 C230.6,184.58 355.0827,204.4907 447.7827,219.3107" fill="none" id="tool-to-properties" style="stroke:#181818;stroke-width:1;"/><polygon fill="#181818" points="452.72,220.1,444.4643,214.7294,447.7827,219.3107,443.2014,222.629,452.72,220.1" style="stroke:#181818;stroke-width:1;stroke-linejoin:miter;stroke-miterlimit:10;"/><text fill="#000000" font-family="sans-serif" font-size="13" lengthAdjust="spacing" textLength="129.543" x="247.8" y="183.8284">agent, skill, and tool</text></g><!--link properties to base--><g class="link" data-entity-1="ent0005" data-entity-2="ent0006" data-link-type="dependency" data-source-line="29" id="lnk13"><path d="M657.25,218.63 C714.11,207.47 780.7836,194.3932 835.4936,183.6532" fill="none" id="properties-to-base" style="stroke:#181818;stroke-width:1;"/><polygon fill="#181818" points="840.4,182.69,830.798,180.4986,835.4936,183.6532,832.3391,188.3488,840.4,182.69" style="stroke:#181818;stroke-width:1;stroke-linejoin:miter;stroke-miterlimit:10;"/></g><!--link properties to observed--><g class="link" data-entity-1="ent0005" data-entity-2="ent0007" data-link-type="dependency" data-source-line="30" id="lnk14"><path d="M669.27,241.13 C708.56,242.54 748.4632,243.9698 789.5132,245.4498" fill="none" id="properties-to-observed" style="stroke:#181818;stroke-width:1;"/><polygon fill="#181818" points="794.51,245.63,785.66,241.3083,789.5132,245.4498,785.3717,249.3031,794.51,245.63" style="stroke:#181818;stroke-width:1;stroke-linejoin:miter;stroke-miterlimit:10;"/></g><!--link properties to target_only--><g class="link" data-entity-1="ent0005" data-entity-2="ent0008" data-link-type="dependency" data-source-line="31" id="lnk15"><path d="M628.96,255.92 C684.72,271.48 760.1042,292.5155 822.8242,310.0255" fill="none" id="properties-to-target_only" style="stroke:#181818;stroke-width:1;"/><polygon fill="#181818" points="827.64,311.37,820.0471,305.0973,822.8242,310.0255,817.8959,312.8026,827.64,311.37" style="stroke:#181818;stroke-width:1;stroke-linejoin:miter;stroke-miterlimit:10;"/></g><!--link base to campusmate--><g class="link" data-entity-1="ent0006" data-entity-2="ent0009" data-link-type="dependency" data-source-line="32" id="lnk16"><path d="M1009.74,178.89 C1082.03,190.08 1189.21,207.39 1282.12,225.28 C1291.76,227.14 1296.9367,228.1624 1306.9367,230.2624" fill="none" id="base-to-campusmate" style="stroke:#181818;stroke-width:1;"/><polygon fill="#181818" points="1311.83,231.29,1303.8442,225.5257,1306.9367,230.2624,1302.2,233.355,1311.83,231.29" style="stroke:#181818;stroke-width:1;stroke-linejoin:miter;stroke-miterlimit:10;"/><text fill="#000000" font-family="sans-serif" font-size="13" lengthAdjust="spacing" textLength="64.4033" x="1166.62" y="192.5484">one origin</text></g><!--link observed to campusmate--><g class="link" data-entity-1="ent0007" data-entity-2="ent0009" data-link-type="dependency" data-source-line="33" id="lnk17"><path d="M1055.41,250.28 C1137.18,250.28 1235.51,250.28 1306.79,250.28" fill="none" id="observed-to-campusmate" style="stroke:#181818;stroke-width:1;"/><polygon fill="#181818" points="1311.79,250.28,1302.79,246.28,1306.79,250.28,1302.79,254.28,1311.79,250.28" style="stroke:#181818;stroke-width:1;stroke-linejoin:miter;stroke-miterlimit:10;"/><text fill="#000000" font-family="sans-serif" font-size="13" lengthAdjust="spacing" textLength="165.3628" x="1116.12" y="246.8484">implemented at 956b547f</text></g><!--link target_only to campusmate--><g class="link" data-entity-1="ent0008" data-entity-2="ent0009" data-link-type="dependency" data-source-line="34" id="lnk18"><path d="M1083.19,311.91 C1145.27,301.12 1217.15,288.15 1282.12,275.28 C1291.75,273.37 1296.9187,272.327 1306.9187,270.207" fill="none" id="target_only-to-campusmate" style="stroke:#181818;stroke-width:1;stroke-dasharray:7,7;"/><polygon fill="#181818" points="1311.81,269.17,1302.1761,267.1235,1306.9187,270.207,1303.8352,274.9495,1311.81,269.17" style="stroke:#181818;stroke-width:1;stroke-linejoin:miter;stroke-miterlimit:10;"/><text fill="#000000" font-family="sans-serif" font-size="13" lengthAdjust="spacing" textLength="127.5308" x="1135.12" y="271.8484">server-side pending</text></g><g class="legend" data-source-line="44"><rect fill="#DDDDDD" height="59.4648" rx="7.5" ry="7.5" style="stroke:#000000;stroke-width:1;" width="417.6748" x="539.4017" y="401.28"/><text fill="#000000" font-family="sans-serif" font-size="14" lengthAdjust="spacing" textLength="265.4395" x="544.4017" y="419.8152">Solid: observed server implementation.</text><text fill="#000000" font-family="sans-serif" font-size="14" lengthAdjust="spacing" textLength="268.666" x="544.4017" y="436.3034">Dotted: target-only server dependency.</text><text fill="#000000" font-family="sans-serif" font-size="14" lengthAdjust="spacing" textLength="407.6748" x="544.4017" y="452.7917">HTTP contracts are unchanged by this configuration design.</text></g><?plantuml-src XLPBR-Cs4BxhLmnysKFzY6DBVXmA1Dv33njq4QUt0WLDZImY5AabAIT6qV_U6T8FsUcYbo0Yv_bzCn_z1RQsSn813wf48t4DZIqxZNuYRQdCVYJsQC98QZNnJauQeSp4eOzEVYBQLYifWh9cV6mqQ6NGmt8rciuVG0J8Ynqk4J5VpQUvoAjbKUJBiYXckLZi5hXShgQFnQoSZRCly48bu3kMe9fMOqDPOzmrR4JJTlvP1DneHSVVdMtH1OL-27owHNTG4fzjYVfP62hOaGdtusuCalSGX2dZyQkr-gaBTcDDfVQTY-cuQbpcizaknrsL5_DgLIxBnSEY4c8wpNTOp9Qbd2qMULvmrHmRNG--RxhPr29GqE2irdJ7-PuOnQzOAQCuI_ysG4F5Z7mg4bQ4MJvVLBaKqqSfbYiibjLYzZ1zh5QFOZv_A7OFSbK9JlxxZhq8iXtMug2iMqEe7IB8cvQSjS53YL8BHyR9v9pFEhLNniSgFHxGG2j23Mzuz51P1zPWZu6pMwzr6uiuSqMj3rEte4nbXzVkmNKcg8Oo4dlHt0D-A1yOWb3ZBGmxuP6dYHEz2hV7CB967waBh_QKQFkcj8OV7RhZ49X9Q328KWIHKiOZ_43PKT7KDiZ8FlctQ9Wg6X_OTI4sX6xaYJ_WAvhvL13zwHVnv6Ij0ihGSR1Qc3sHpU3uEgAQS4mmgW_uxVNrUx_JM0BzqpLCrn44LN_YAXRc4wAoSoeSWK9IZLJAEjO0VxnyEpCKuHbfAuMEJ15BGcaeoP4gzq6uqBNmNXEHoXo4LYL7feKeEnbY2S7H4eSroCWg3SNx_wrsUzaumgyIdQPnOiPEFGSBTGYjNqyciQxQ-h1UvgifY2hGX3pAtRGefjKuys_AjCA9Xb4hxJkNN0djiNSZRTCIhYPimr4ZE8ASmDQOQQm2vwAaDH6f-8Qgox9Mo3VQUXYaETrGHmFuEuDhA1X4TO2pBWn0U1Owr7TMKJvAU3cDQfACQ7sQtblxE6Kzeq3VjnO_5w_eS4MMt7Xw8zs3H0qln9WFHftJqPm_OdoI3fa6Qt0H0MAYlq9_6bv6-AMtZPUFKpCnfZtvtyVjRzsdqBtrew0t-tV-FYrVmYN6-ejZPVzacTIsA_lOm4cYe_6r-IoB7C5ez6iFALWdwdWBGtPMbKysuaPqul9mqHbpz1FhOJ992XAvxDcmIyJ_xko2tzrvl-V8AXzUUuEa7cc5idEGpqQNrv0kYSxpyv3rmiDuVEVq7wAMPSRItSw6O1kmrUteRPE8tRuR77jCbt5tXkUbkEehNRqXjfIDDvU2drM9rXXfyJqxRuInHl5v-c6n1ZG7vQnf8ZtuewD5BgEbTQsDSHhb73zc5pM9ShezYyyuevQ0syb85FRyaThYHYmftlf2oWc9kzyKdEqhUI1PXjwOdumlRqJiFYgvv0TRo924l3Ff0OXA7chbxu1BZrGiCzNtBm00?></g></svg>