<svg xmlns="http://www.w3.org/2000/svg" xmlns:xlink="http://www.w3.org/1999/xlink" contentStyleType="text/css" data-diagram-type="DESCRIPTION" height="449px" preserveAspectRatio="none" style="width:1435px;height:449px;background:#FFFFFF;" version="1.1" viewBox="0 0 1435 449" width="1435px" zoomAndPan="magnify"><?plantuml 1.2026.6?><defs/><g><!--cluster CampusClaw--><g class="cluster" data-qualified-name="CampusClaw" data-source-line="13" id="ent0001"><path d="M8.5,77.97 L102.5029,77.97 A3.75,3.75 0 0 1 105.0029,80.47 L112.0029,100.4583 L1029.08,100.4583 A2.5,2.5 0 0 1 1031.58,102.9583 L1031.58,347.47 A2.5,2.5 0 0 1 1029.08,349.97 L8.5,349.97 A2.5,2.5 0 0 1 6,347.47 L6,80.47 A2.5,2.5 0 0 1 8.5,77.97" fill="none" style="stroke:#000000;stroke-width:1.5;"/><line style="stroke:#000000;stroke-width:1.5;" x1="6" x2="112.0029" y1="100.4583" y2="100.4583"/><text fill="#000000" font-family="sans-serif" font-size="14" font-weight="700" lengthAdjust="spacing" textLength="93.0029" x="10" y="93.5052">CampusClaw</text></g><!--entity model--><g class="entity" data-qualified-name="CampusClaw.model" data-source-line="14" id="ent0002"><rect fill="#F1F1F1" height="36.4883" rx="2.5" ry="2.5" style="stroke:#181818;stroke-width:0.5;" width="121.4453" x="54.43" y="259.73"/><text fill="#000000" font-family="sans-serif" font-size="14" lengthAdjust="spacing" textLength="101.4453" x="64.43" y="283.2652">Model Provider</text></g><!--entity runtime--><g class="entity" data-qualified-name="CampusClaw.runtime" data-source-line="15" id="ent0003"><rect fill="#F1F1F1" height="36.4883" rx="2.5" ry="2.5" style="stroke:#181818;stroke-width:0.5;" width="186.2979" x="22" y="188.73"/><text fill="#000000" font-family="sans-serif" font-size="14" lengthAdjust="spacing" textLength="166.2979" x="32" y="212.2652">Managed Runtime Client</text></g><!--entity tool--><g class="entity" data-qualified-name="CampusClaw.tool" data-source-line="16" id="ent0004"><rect fill="#F1F1F1" height="36.4883" rx="2.5" ry="2.5" style="stroke:#181818;stroke-width:0.5;" width="94.0332" x="68.13" y="117.73"/><text fill="#000000" font-family="sans-serif" font-size="14" lengthAdjust="spacing" textLength="74.0332" x="78.13" y="141.2652">Tool Client</text></g><!--entity properties--><g class="entity" data-qualified-name="CampusClaw.properties" data-source-line="17" id="ent0005"><rect fill="#F1F1F1" height="36.4883" rx="2.5" ry="2.5" style="stroke:#181818;stroke-width:0.5;" width="216.082" x="419.35" y="188.73"/><text fill="#000000" font-family="sans-serif" font-size="14" lengthAdjust="spacing" textLength="196.082" x="429.35" y="212.2652">CampusMateClientProperties</text></g><!--entity base--><g class="entity" data-qualified-name="CampusClaw.base" data-source-line="18" id="ent0006"><path d="M773.07,123.23 C773.07,113.23 857.5304,113.23 857.5304,113.23 C857.5304,113.23 941.9909,113.23 941.9909,123.23 L941.9909,148.7183 C941.9909,158.7183 857.5304,158.7183 857.5304,158.7183 C857.5304,158.7183 773.07,158.7183 773.07,148.7183 L773.07,123.23" fill="#F1F1F1" style="stroke:#181818;stroke-width:0.5;"/><path d="M773.07,123.23 C773.07,133.23 857.5304,133.23 857.5304,133.23 C857.5304,133.23 941.9909,133.23 941.9909,123.23" fill="none" style="stroke:#181818;stroke-width:0.5;"/><text fill="#000000" font-family="sans-serif" font-size="14" lengthAdjust="spacing" textLength="148.9209" x="783.07" y="150.7652">campusmate.base-url</text></g><!--entity observed--><g class="entity" data-qualified-name="CampusClaw.observed" data-source-line="19" id="ent0007"><rect fill="#F1F1F1" height="48.9766" rx="2.5" ry="2.5" style="stroke:#181818;stroke-width:0.5;" width="256.1465" x="731.46" y="197.48"/><rect fill="#F1F1F1" height="48.9766" rx="2.5" ry="2.5" style="stroke:#181818;stroke-width:0.5;" width="256.1465" x="727.46" y="193.48"/><text fill="#000000" font-family="sans-serif" font-size="14" lengthAdjust="spacing" textLength="174.6719" x="735.46" y="215.0152">Observed in mate-service</text><text fill="#000000" font-family="sans-serif" font-size="14" lengthAdjust="spacing" textLength="240.1465" x="735.46" y="231.5034">Chat + Agent info + Agent runtime</text></g><!--entity target_only--><g class="entity" data-qualified-name="CampusClaw.target_only" data-source-line="20" id="ent0008"><rect fill="#F1F1F1" height="48.9766" rx="2.5" ry="2.5" style="stroke:#181818;stroke-width:0.5;" width="312.0986" x="703.48" y="285.48"/><rect fill="#F1F1F1" height="48.9766" rx="2.5" ry="2.5" style="stroke:#181818;stroke-width:0.5;" width="312.0986" x="699.48" y="281.48"/><text fill="#000000" font-family="sans-serif" font-size="14" lengthAdjust="spacing" textLength="191.29" x="707.48" y="303.0152">Target-only in mate-service</text><text fill="#000000" font-family="sans-serif" font-size="14" lengthAdjust="spacing" textLength="296.0986" x="707.48" y="319.5034">Skill query + Tool metadata + Tool execute</text></g><!--entity campusmate--><g class="entity" data-qualified-name="campusmate" data-source-line="23" id="ent0009"><path d="M1253.0603,204.8611 C1257.5488,199.5788 1264.0238,199.7539 1267.2663,206.3513 C1269.4533,200.2073 1274.8067,200.3715 1278.6207,204.5641 C1282.6819,198.5501 1287.5994,198.3934 1291.5369,204.6939 C1294.2067,196.4174 1301.1935,197.2637 1305.7845,202.6973 C1310.1147,197.4416 1313.9231,197.5879 1318.084,202.8944 C1322.0999,197.4358 1326.3446,195.755 1330.7659,202.4721 C1334.4313,196.6158 1340.5729,196.7661 1343.9882,202.7513 C1348.3839,196.47 1353.677,197.9563 1357.0926,203.8098 C1361.0394,198.4723 1364.7671,198.019 1369.2992,203.1258 C1372.9798,197.3866 1378.5406,197.7466 1380.9115,204.3572 C1384.8799,198.075 1391.493,196.877 1395.6009,204.2067 C1401.0628,199.5682 1404.9959,200.7216 1408.3397,206.7388 C1417.0586,207.1541 1420.9382,213.8525 1415.2223,221.1579 C1420.5648,230.0815 1417.8195,236.7248 1406.9209,237.2917 C1403.8836,242.715 1398.5158,242.1907 1395.6796,237.0772 C1392.8129,242.0411 1388.9732,242.8498 1384.8492,238.5464 C1382.3981,244.4023 1378.0683,245.493 1373.9783,240.1352 C1370.9,245.9324 1367.3471,245.5038 1363.6601,240.7292 C1360.9025,247.3671 1356.4833,247.0051 1352.2208,242.2388 C1348.7138,246.8455 1343.7502,246.8037 1340.8495,241.5404 C1338.3486,246.3462 1334.7085,247.4149 1330.5072,243.5744 C1326.1798,248.1723 1323.02,247.0681 1320.2639,241.9225 C1316.6704,246.6048 1312.4946,247.0375 1309.3026,241.4922 C1305.5468,246.687 1301.9796,245.816 1298.3638,241.3339 C1294.0145,245.9613 1289.6496,245.9214 1286.8707,239.6743 C1282.7338,243.5176 1277.8077,244.1668 1275.7874,237.4523 C1272.6223,242.4737 1267.0567,242.7167 1263.639,237.7599 C1260.3822,241.304 1256.5682,241.9498 1254.4804,236.5612 C1245.4073,236.03 1239.7576,230.8234 1244.7295,221.3116 C1240.6478,212.9049 1242.2051,205.7035 1253.0603,204.8611" fill="#F1F1F1" style="stroke:#181818;stroke-width:0.5;"/><text fill="#000000" font-family="sans-serif" font-size="14" lengthAdjust="spacing" textLength="139.7129" x="1259.58" y="225.2652">CampusMate Service</text></g><g class="entity" data-qualified-name="GMN19" data-source-line="36" id="ent0020"><path d="M416.3,6 L416.3,61.9316 A0,0 0 0 0 416.3,61.9316 L523.39,61.9316 L527.39,188.39 L531.39,61.9316 L638.4826,61.9316 A0,0 0 0 0 638.4826,61.9316 L638.4826,16 L628.4826,6 L416.3,6 A0,0 0 0 0 416.3,6" fill="#FEFFDD" style="stroke:#181818;stroke-width:0.5;"/><path d="M628.4826,6 L628.4826,16 L638.4826,16 L628.4826,6" fill="#FEFFDD" style="stroke:#181818;stroke-width:0.5;"/><text fill="#000000" font-family="sans-serif" font-size="13" lengthAdjust="spacing" textLength="166.5308" x="422.3" y="23.5684">Shared configuration only.</text><text fill="#000000" font-family="sans-serif" font-size="13" lengthAdjust="spacing" textLength="162.665" x="422.3" y="38.8789">Model, Runtime, and Tool</text><text fill="#000000" font-family="sans-serif" font-size="13" lengthAdjust="spacing" textLength="201.1826" x="422.3" y="54.1895">keep separate local parameters.</text></g><!--link model to properties--><g class="link" data-entity-1="ent0002" data-entity-2="ent0005" data-link-type="dependency" data-source-line="25" id="lnk10"><path d="M176.26,267.88 C231.02,258.65 314.12,244.56 386.3,231.97 C397.86,229.95 405.0266,228.7017 417.0566,226.5717" fill="none" id="model-to-properties" style="stroke:#181818;stroke-width:1;"/><polygon fill="#181818" points="421.98,225.7,412.4205,223.3304,417.0566,226.5717,413.8152,231.2078,421.98,225.7" style="stroke:#181818;stroke-width:1;stroke-linejoin:miter;stroke-miterlimit:10;"/><text fill="#000000" font-family="sans-serif" font-size="13" lengthAdjust="spacing" textLength="70.186" x="277.3" y="228.5384">model chat</text></g><!--link runtime to properties--><g class="link" data-entity-1="ent0003" data-entity-2="ent0005" data-link-type="dependency" data-source-line="26" id="lnk11"><path d="M208.73,206.97 C271.11,206.97 348.62,206.97 413.91,206.97" fill="none" id="runtime-to-properties" style="stroke:#181818;stroke-width:1;"/><polygon fill="#181818" points="418.91,206.97,409.91,202.97,413.91,206.97,409.91,210.97,418.91,206.97" style="stroke:#181818;stroke-width:1;stroke-linejoin:miter;stroke-miterlimit:10;"/><text fill="#000000" font-family="sans-serif" font-size="13" lengthAdjust="spacing" textLength="146.1802" x="239.3" y="203.5384">agent runtime and skill</text></g><!--link tool to properties--><g class="link" data-entity-1="ent0004" data-entity-2="ent0005" data-link-type="dependency" data-source-line="27" id="lnk12"><path d="M162.54,143.75 C216.37,152.81 307.79,168.28 386.3,181.97 C397.86,183.99 405.0266,185.2383 417.0566,187.3683" fill="none" id="tool-to-properties" style="stroke:#181818;stroke-width:1;"/><polygon fill="#181818" points="421.98,188.24,413.8152,182.7322,417.0566,187.3683,412.4205,190.6096,421.98,188.24" style="stroke:#181818;stroke-width:1;stroke-linejoin:miter;stroke-miterlimit:10;"/><text fill="#000000" font-family="sans-serif" font-size="13" lengthAdjust="spacing" textLength="129.543" x="247.8" y="153.3084">agent, skill, and tool</text></g><!--link properties to base--><g class="link" data-entity-1="ent0005" data-entity-2="ent0006" data-link-type="dependency" data-source-line="28" id="lnk13"><path d="M614.6,188.32 C663.41,177.76 719.2832,165.6677 767.7032,155.1877" fill="none" id="properties-to-base" style="stroke:#181818;stroke-width:1;"/><polygon fill="#181818" points="772.59,154.13,762.9475,152.1244,767.7032,155.1877,764.6398,159.9433,772.59,154.13" style="stroke:#181818;stroke-width:1;stroke-linejoin:miter;stroke-miterlimit:10;"/></g><!--link properties to observed--><g class="link" data-entity-1="ent0005" data-entity-2="ent0007" data-link-type="dependency" data-source-line="29" id="lnk14"><path d="M635.83,211.23 C664.99,212.38 691.8739,213.4417 722.1039,214.6417" fill="none" id="properties-to-observed" style="stroke:#181818;stroke-width:1;"/><polygon fill="#181818" points="727.1,214.84,718.2657,210.4862,722.1039,214.6417,717.9484,218.4799,727.1,214.84" style="stroke:#181818;stroke-width:1;stroke-linejoin:miter;stroke-miterlimit:10;"/></g><!--link properties to target_only--><g class="link" data-entity-1="ent0005" data-entity-2="ent0008" data-link-type="dependency" data-source-line="30" id="lnk15"><path d="M582.11,225.61 C615.71,237.08 659.97,251.86 699.48,263.97 C718.16,269.69 733.3698,274.1653 752.6498,279.6353" fill="none" id="properties-to-target_only" style="stroke:#181818;stroke-width:1;"/><polygon fill="#181818" points="757.46,281,749.8935,274.6954,752.6498,279.6353,747.71,282.3917,757.46,281" style="stroke:#181818;stroke-width:1;stroke-linejoin:miter;stroke-miterlimit:10;"/></g><!--link base to campusmate--><g class="link" data-entity-1="ent0006" data-entity-2="ent0009" data-link-type="dependency" data-source-line="31" id="lnk16"><path d="M942.2,148.58 C1014.49,159.77 1121.67,177.08 1214.58,194.97 C1224.22,196.83 1229.3967,197.8524 1239.3967,199.9524" fill="none" id="base-to-campusmate" style="stroke:#181818;stroke-width:1;"/><polygon fill="#181818" points="1244.29,200.98,1236.3042,195.2157,1239.3967,199.9524,1234.66,203.045,1244.29,200.98" style="stroke:#181818;stroke-width:1;stroke-linejoin:miter;stroke-miterlimit:10;"/><text fill="#000000" font-family="sans-serif" font-size="13" lengthAdjust="spacing" textLength="64.4033" x="1099.08" y="162.2384">one origin</text></g><!--link observed to campusmate--><g class="link" data-entity-1="ent0007" data-entity-2="ent0009" data-link-type="dependency" data-source-line="32" id="lnk17"><path d="M987.87,219.97 C1069.64,219.97 1167.97,219.97 1239.25,219.97" fill="none" id="observed-to-campusmate" style="stroke:#181818;stroke-width:1;"/><polygon fill="#181818" points="1244.25,219.97,1235.25,215.97,1239.25,219.97,1235.25,223.97,1244.25,219.97" style="stroke:#181818;stroke-width:1;stroke-linejoin:miter;stroke-miterlimit:10;"/><text fill="#000000" font-family="sans-serif" font-size="13" lengthAdjust="spacing" textLength="165.3628" x="1048.58" y="216.5384">implemented at 956b547f</text></g><!--link target_only to campusmate--><g class="link" data-entity-1="ent0008" data-entity-2="ent0009" data-link-type="dependency" data-source-line="33" id="lnk18"><path d="M1015.65,281.6 C1077.73,270.81 1149.62,257.84 1214.58,244.97 C1224.21,243.06 1229.3787,242.017 1239.3787,239.897" fill="none" id="target_only-to-campusmate" style="stroke:#181818;stroke-width:1;stroke-dasharray:7,7;"/><polygon fill="#181818" points="1244.27,238.86,1234.6361,236.8135,1239.3787,239.897,1236.2952,244.6395,1244.27,238.86" style="stroke:#181818;stroke-width:1;stroke-linejoin:miter;stroke-miterlimit:10;"/><text fill="#000000" font-family="sans-serif" font-size="13" lengthAdjust="spacing" textLength="127.5308" x="1067.58" y="241.5384">server-side pending</text></g><g class="legend" data-source-line="41"><rect fill="#DDDDDD" height="59.4648" rx="7.5" ry="7.5" style="stroke:#000000;stroke-width:1;" width="417.6748" x="505.6317" y="370.97"/><text fill="#000000" font-family="sans-serif" font-size="14" lengthAdjust="spacing" textLength="265.4395" x="510.6317" y="389.5052">Solid: observed server implementation.</text><text fill="#000000" font-family="sans-serif" font-size="14" lengthAdjust="spacing" textLength="268.666" x="510.6317" y="405.9934">Dotted: target-only server dependency.</text><text fill="#000000" font-family="sans-serif" font-size="14" lengthAdjust="spacing" textLength="407.6748" x="510.6317" y="422.4817">HTTP contracts are unchanged by this configuration design.</text></g><?plantuml-src TLLDR-Cs4BthLmnysKDj9uujMVQXG90zzB115vlqLg2Wg955X29LaafY5FtldI4jHtQw5yCav-FDUpEZB_1a1oSHy5NLQ2JkeRFreD7VI5ihSrY80vgma5hTU2TlEg7CZKCVdVoDw7kjf0ZAckMnqw2LGG_bRh7Qt888a1SLbeYOxpQhNEHDMHHvMHV5EXVRQejbkLlT5UjwlSo-m0-2W6zOW-fwZHrbZN7ty22wVl2F8k23LdJztTaUNL3evy2tJ-XUbSH7MwD-58O0EpBXUjo5GVAUWp1rl7wsLjyFmJvOqwZ3u68wHerblbvNELPDNcoQNLtMszjj8yHgbLTOhCjQhhVRF2yODST6Dw7lc-uUMX4eQ71MQthZVFVCubTib56SPVeQe2Cm2vz0meuuopVR9fTYTIT5kSEYRBRhszLTixiJcyrjKTtANICu-UyLUn5b5RRYLLctXz0wH90N9JbhWuSQfHQEZ9F9cCywTL36HvGUNz50Bq8BBtZqq5W7rk14WT5jKhgD84QjgFHvgXQKQUpyetfmWmcgeuoaNZJtWE_A1wOWj7X9GoKySZTnecVX3XWMrkWZLU7LWH8zlIYjuUy1tN4Eh2Hq64GjWaWfunM-enm8D9KDCgfF_ZqQbehQ1weXn8BGBJpf1_n4FPy0qSyKnBsJhGeemy31Mc4E93QJuzl8Qk8nqQZUuRVdv-_JIYC4-ZDqBDSH1A4_QHM1-SIe79mAHw2GX96Wx2C6-EF7jr6XICz2MobqL8fK4af3JOw4t0VXmj33Mqj2AlCgjAgNcNzHfXTET0osjczisGZjSV8YRTTJEIOyXQD6S5GfrQWnqzWG7HQelfRuK_n29MLPB-GB3HlCKdiyQF4sWtyo-0W5ipYKC8xZ38Jd_OBwoYfERGq_JXsI9ZLQdvhcqZwAEp4ATBwq-FdEY0xz-KXkt3IHvPcCNjo7IxvO34v7Spx4-3InCkavEyyUYJxjt3yDpm3yCXc2y-5KJ8nfJ_xNSQVD_YdqfEifw4NRZ-TJpoTUOgo_E5RsRvP9ROTwoWsSDcCq_YW-ow96i5ZyEc4AzaawRlwGZSFyoKPSp7hiMGQTiKO_iPudapIuKSk93Rj4_g_kplnTtKzhZghovKTja8OsJMis1lbiTFu8qIF9EMxbR18Ubiihf__P9LbcBBrLDWJRWMqkM-yfxOxBTSsnb_GOPsS-3iN7MgEd5yIUil7aKl1n6T0OOq17guHo0-VDQ7eFV4ZvEQEbZR0_itU2VFNDvUnVoGF9CapwyMHytg4HPjnqaZzeGeQqw0QJ5cJSTA5L_gh2jCGZp8JlFm00?></g></svg>