<svg xmlns="http://www.w3.org/2000/svg" xmlns:xlink="http://www.w3.org/1999/xlink" contentStyleType="text/css" data-diagram-type="DESCRIPTION" height="461px" preserveAspectRatio="none" style="width:539px;height:461px;background:#FFFFFF;" version="1.1" viewBox="0 0 539 461" width="539px" zoomAndPan="magnify"><?plantuml 1.2026.6?><defs/><g><!--cluster old--><g class="cluster" data-qualified-name="old" data-source-line="47" id="ent0001"><rect fill="none" height="237" rx="2.5" ry="2.5" style="stroke:#181818;stroke-width:1;" width="252.79" x="7" y="136.31"/><text fill="#000000" font-family="sans-serif" font-size="14" font-weight="700" lengthAdjust="spacing" textLength="171.0146" x="47.8877" y="151.8452">Observed configuration</text></g><!--cluster target--><g class="cluster" data-qualified-name="target" data-source-line="53" id="ent0005"><rect fill="none" height="385" rx="2.5" ry="2.5" style="stroke:#181818;stroke-width:1;" width="226.16" x="299.67" y="62.31"/><text fill="#000000" font-family="sans-serif" font-size="14" font-weight="700" lengthAdjust="spacing" textLength="149.3105" x="338.0947" y="77.8452">Target configuration</text></g><!--entity old_model--><g class="entity" data-qualified-name="old.old_model" data-source-line="48" id="ent0002"><rect fill="#F1F1F1" height="38.9766" rx="2.5" ry="2.5" style="stroke:#181818;stroke-width:0.5;" width="220.7852" x="23" y="318.82"/><text fill="#000000" font-family="sans-serif" font-size="14" lengthAdjust="spacing" textLength="200.7852" x="33" y="335.3552">campusmate.model-manager</text><text fill="#000000" font-family="sans-serif" font-size="14" lengthAdjust="spacing" textLength="145.4277" x="33" y="351.8434">base-url + chat-path</text></g><!--entity old_runtime--><g class="entity" data-qualified-name="old.old_runtime" data-source-line="49" id="ent0003"><rect fill="#F1F1F1" height="38.9766" rx="2.5" ry="2.5" style="stroke:#181818;stroke-width:0.5;" width="164.1357" x="51.32" y="244.82"/><text fill="#000000" font-family="sans-serif" font-size="14" lengthAdjust="spacing" textLength="144.1357" x="61.32" y="261.3552">campusmate.runtime</text><text fill="#000000" font-family="sans-serif" font-size="14" lengthAdjust="spacing" textLength="128.9189" x="61.32" y="277.8434">base-url + 2 paths</text></g><!--entity old_tool--><g class="entity" data-qualified-name="old.old_tool" data-source-line="50" id="ent0004"><rect fill="#F1F1F1" height="38.9766" rx="2.5" ry="2.5" style="stroke:#181818;stroke-width:0.5;" width="188.082" x="39.35" y="170.82"/><text fill="#000000" font-family="sans-serif" font-size="14" lengthAdjust="spacing" textLength="33.8379" x="49.35" y="187.3552">mate</text><text fill="#000000" font-family="sans-serif" font-size="14" lengthAdjust="spacing" textLength="168.082" x="49.35" y="203.8434">innerGWSerive + 4 paths</text></g><!--entity new_base--><g class="entity" data-qualified-name="target.new_base" data-source-line="54" id="ent0006"><rect fill="#F1F1F1" height="38.9766" rx="2.5" ry="2.5" style="stroke:#181818;stroke-width:0.5;" width="168.9209" x="328.29" y="170.82"/><text fill="#000000" font-family="sans-serif" font-size="14" lengthAdjust="spacing" textLength="148.9209" x="338.29" y="187.3552">campusmate.base-url</text><text fill="#000000" font-family="sans-serif" font-size="14" lengthAdjust="spacing" textLength="131.2021" x="338.29" y="203.8434">one required origin</text></g><!--entity new_endpoints--><g class="entity" data-qualified-name="target.new_endpoints" data-source-line="55" id="ent0007"><rect fill="#F1F1F1" height="38.9766" rx="2.5" ry="2.5" style="stroke:#181818;stroke-width:0.5;" width="178.6963" x="323.4" y="244.82"/><text fill="#000000" font-family="sans-serif" font-size="14" lengthAdjust="spacing" textLength="158.6963" x="333.4" y="261.3552">campusmate.endpoints</text><text fill="#000000" font-family="sans-serif" font-size="14" lengthAdjust="spacing" textLength="147.7314" x="333.4" y="277.8434">six unique operations</text></g><!--entity new_model--><g class="entity" data-qualified-name="target.new_model" data-source-line="56" id="ent0008"><rect fill="#F1F1F1" height="38.9766" rx="2.5" ry="2.5" style="stroke:#181818;stroke-width:0.5;" width="183.2285" x="321.13" y="392.82"/><text fill="#000000" font-family="sans-serif" font-size="14" lengthAdjust="spacing" textLength="133.2051" x="331.13" y="409.3552">campusmate.model</text><text fill="#000000" font-family="sans-serif" font-size="14" lengthAdjust="spacing" textLength="163.2285" x="331.13" y="425.8434">model-local parameters</text></g><!--entity new_runtime--><g class="entity" data-qualified-name="target.new_runtime" data-source-line="57" id="ent0009"><rect fill="#F1F1F1" height="38.9766" rx="2.5" ry="2.5" style="stroke:#181818;stroke-width:0.5;" width="194.1592" x="315.67" y="318.82"/><text fill="#000000" font-family="sans-serif" font-size="14" lengthAdjust="spacing" textLength="144.1357" x="325.67" y="335.3552">campusmate.runtime</text><text fill="#000000" font-family="sans-serif" font-size="14" lengthAdjust="spacing" textLength="174.1592" x="325.67" y="351.8434">runtime-local parameters</text></g><!--entity new_tool--><g class="entity" data-qualified-name="target.new_tool" data-source-line="58" id="ent0010"><rect fill="#F1F1F1" height="38.9766" rx="2.5" ry="2.5" style="stroke:#181818;stroke-width:0.5;" width="137.3594" x="344.07" y="96.82"/><text fill="#000000" font-family="sans-serif" font-size="14" lengthAdjust="spacing" textLength="117.3594" x="354.07" y="113.3552">campusmate.tool</text><text fill="#000000" font-family="sans-serif" font-size="14" lengthAdjust="spacing" textLength="53.6895" x="354.07" y="129.8434">enabled</text></g><g class="entity" data-qualified-name="GMN20" data-source-line="72" id="ent0021"><path d="M303.79,6 L303.79,46.6211 L521.7133,46.6211 L521.7133,16 L511.7133,6 L303.79,6" fill="#FEFFDD" style="stroke:#181818;stroke-width:0.5;"/><path d="M511.7133,6 L511.7133,16 L521.7133,16 L511.7133,6" fill="#FEFFDD" style="stroke:#181818;stroke-width:1;"/><text fill="#000000" font-family="sans-serif" font-size="13" lengthAdjust="spacing" textLength="177.9185" x="309.79" y="23.5684">Runtime and Tool share one</text><text fill="#000000" font-family="sans-serif" font-size="13" lengthAdjust="spacing" textLength="196.9233" x="309.79" y="38.8789">skill-info-path-template entry.</text></g><!--link old_model to new_base--><g class="link" data-entity-1="ent0002" data-entity-2="ent0006" data-link-type="dependency" data-source-line="61" id="lnk11"><path d="M243.25,318.45 C252.22,313.85 260.59,308.21 267.79,301.31 C292.73,277.39 267.07,251.58 291.67,227.31 C301.76,217.35 309.8269,211.9152 323.1669,206.5852" fill="none" id="old_model-to-new_base" style="stroke:#181818;stroke-width:1;"/><polygon fill="#181818" points="327.81,204.73,317.9683,204.3548,323.1669,206.5852,320.9365,211.7838,327.81,204.73" style="stroke:#181818;stroke-width:1;stroke-linejoin:miter;stroke-miterlimit:10;"/></g><!--link old_runtime to new_base--><g class="link" data-entity-1="ent0003" data-entity-2="ent0006" data-link-type="dependency" data-source-line="62" id="lnk12"><path d="M209.08,244.38 C248.71,233.81 292.439,222.1391 332.089,211.5591" fill="none" id="old_runtime-to-new_base" style="stroke:#181818;stroke-width:1;"/><polygon fill="#181818" points="336.92,210.27,327.193,208.7256,332.089,211.5591,329.2555,216.4551,336.92,210.27" style="stroke:#181818;stroke-width:1;stroke-linejoin:miter;stroke-miterlimit:10;"/></g><!--link old_tool to new_base--><g class="link" data-entity-1="ent0004" data-entity-2="ent0006" data-link-type="dependency" data-source-line="63" id="lnk13"><path d="M227.91,190.31 C260.3,190.31 291.39,190.31 322.95,190.31" fill="none" id="old_tool-to-new_base" style="stroke:#181818;stroke-width:1;"/><polygon fill="#181818" points="327.95,190.31,318.95,186.31,322.95,190.31,318.95,194.31,327.95,190.31" style="stroke:#181818;stroke-width:1;stroke-linejoin:miter;stroke-miterlimit:10;"/></g><!--link old_model to new_endpoints--><g class="link" data-entity-1="ent0002" data-entity-2="ent0007" data-link-type="dependency" data-source-line="64" id="lnk14"><path d="M209.08,318.38 C248.71,307.81 292.439,296.1391 332.089,285.5591" fill="none" id="old_model-to-new_endpoints" style="stroke:#181818;stroke-width:1;"/><polygon fill="#181818" points="336.92,284.27,327.193,282.7256,332.089,285.5591,329.2555,290.4551,336.92,284.27" style="stroke:#181818;stroke-width:1;stroke-linejoin:miter;stroke-miterlimit:10;"/></g><!--link old_runtime to new_endpoints--><g class="link" data-entity-1="ent0003" data-entity-2="ent0007" data-link-type="dependency" data-source-line="65" id="lnk15"><path d="M215.73,264.31 C249.46,264.31 283.68,264.31 318.13,264.31" fill="none" id="old_runtime-to-new_endpoints" style="stroke:#181818;stroke-width:1;"/><polygon fill="#181818" points="323.13,264.31,314.13,260.31,318.13,264.31,314.13,268.31,323.13,264.31" style="stroke:#181818;stroke-width:1;stroke-linejoin:miter;stroke-miterlimit:10;"/></g><!--link old_tool to new_endpoints--><g class="link" data-entity-1="ent0004" data-entity-2="ent0007" data-link-type="dependency" data-source-line="66" id="lnk16"><path d="M209.08,210.24 C248.71,220.81 292.439,232.4809 332.089,243.0609" fill="none" id="old_tool-to-new_endpoints" style="stroke:#181818;stroke-width:1;"/><polygon fill="#181818" points="336.92,244.35,329.2555,238.1649,332.089,243.0609,327.193,245.8944,336.92,244.35" style="stroke:#181818;stroke-width:1;stroke-linejoin:miter;stroke-miterlimit:10;"/></g><!--link old_model to new_model--><g class="link" data-entity-1="ent0002" data-entity-2="ent0008" data-link-type="dependency" data-source-line="67" id="lnk17"><path d="M209.08,358.24 C248.71,368.81 292.439,380.4809 332.089,391.0609" fill="none" id="old_model-to-new_model" style="stroke:#181818;stroke-width:1;"/><polygon fill="#181818" points="336.92,392.35,329.2555,386.1649,332.089,391.0609,327.193,393.8944,336.92,392.35" style="stroke:#181818;stroke-width:1;stroke-linejoin:miter;stroke-miterlimit:10;"/></g><!--link old_runtime to new_runtime--><g class="link" data-entity-1="ent0003" data-entity-2="ent0009" data-link-type="dependency" data-source-line="68" id="lnk18"><path d="M209.08,284.24 C248.71,294.81 292.439,306.4809 332.089,317.0609" fill="none" id="old_runtime-to-new_runtime" style="stroke:#181818;stroke-width:1;"/><polygon fill="#181818" points="336.92,318.35,329.2555,312.1649,332.089,317.0609,327.193,319.8944,336.92,318.35" style="stroke:#181818;stroke-width:1;stroke-linejoin:miter;stroke-miterlimit:10;"/></g><!--link old_tool to new_tool--><g class="link" data-entity-1="ent0004" data-entity-2="ent0010" data-link-type="dependency" data-source-line="69" id="lnk19"><path d="M209.08,170.38 C250.96,159.21 297.9791,146.6692 338.7491,135.7892" fill="none" id="old_tool-to-new_tool" style="stroke:#181818;stroke-width:1;"/><polygon fill="#181818" points="343.58,134.5,333.853,132.9558,338.7491,135.7892,335.9157,140.6853,343.58,134.5" style="stroke:#181818;stroke-width:1;stroke-linejoin:miter;stroke-miterlimit:10;"/></g><!--link new_endpoints to GMN20--><g class="link" data-entity-1="ent0007" data-entity-2="ent0021" data-link-type="association" data-source-line="72" id="lnk22"><path d="M323.05,251.26 C303.15,243.2 286.06,230.32 279.73,209.81 C265.18,162.67 265.18,145.95 279.73,98.81 C282.5,89.81 284.46,87.37 291.67,81.31 C308.72,66.97 330.12,55.63 350.17,47.06" fill="none" id="new_endpoints-GMN20" style="stroke:#181818;stroke-width:1;stroke-dasharray:7,7;"/></g><?plantuml-src XPH1Rvj048Nl_8fHBZbKM7Li2CwXfqezLgeZzO8K3Um0Ao-pP7TnQbNzxzs568UOA3TWzdspxus6MzZhtfG4T9I2kAG7mAvJiaGdDQzEhG8bcInaktYz_Ghe84aBoeWesMtN2IPLbgP99j9qa-1zSKzPjblVfHknMKMty9sih1aCeTNy02qw0cG19RPTRuVNqDR9wWIk8R3O4WZzmjPvJGkMp56Mj83wrNjLEz8UjLPGQhPzI-B2sH-aKl3Sapc1xiWCbdpPwBvkGFIZJO83dUmgiWV97PhGj45_1SarLAWiHOeg1qw3aNNZG4X3PI15KNX0hXN1pSyYNDLtzzUePDsFpMu0BMWbu6y4thCHS7Dnlcgr81Mto5YJoRb0It5l57o1ia4NT-YQC-1fEBi4CMCEC_aT1AsTnAzd9daGvYoPoVpulISZZ-HLstSgvrED_irSFgAfoIruT6DXqURvOZbh9Z-_vzudA43xEEMePdfv2gUMrCIYqvATpTdAFz2pz0EzZDDEWEdWXr7dF2QkT8aAXbcJ8tD1V1xowyF7YFTHlu64F7CcnaAHc0JdbASXGnn_koJoPdpNXQ2z_ZgdN69PGishCzwyD8UEGIq1p_wlS8FFYBNVjq8xfrlGrTNShfRQhwBnq-OGg0th74kkzB0QiQEsKs5__V_3d5QH1q7W_mS0?></g></svg>