<svg xmlns="http://www.w3.org/2000/svg" xmlns:xlink="http://www.w3.org/1999/xlink" contentStyleType="text/css" data-diagram-type="ACTIVITY" height="577px" preserveAspectRatio="none" style="width:462px;height:577px;background:#FFFFFF;" version="1.1" viewBox="0 0 462 577" width="462px" zoomAndPan="magnify"><?plantuml 1.2026.6?><defs/><g><g class="title" data-source-line="37"><text fill="#000000" font-family="sans-serif" font-size="14" font-weight="700" lengthAdjust="spacing" textLength="231.1846" x="114.7681" y="33.5352">Atomic public event persistence</text></g><ellipse cx="244.3794" cy="62.4883" fill="#222222" rx="10" ry="10" style="stroke:#222222;stroke-width:1;"/><rect fill="#F1F1F1" height="34.1328" rx="12.5" ry="12.5" style="stroke:#181818;stroke-width:0.5;" width="221.6094" x="133.5747" y="92.4883"/><text fill="#000000" font-family="sans-serif" font-size="12" lengthAdjust="spacing" textLength="201.6094" x="143.5747" y="114.0898">Begin transaction and lock Session</text><rect fill="#F1F1F1" height="34.1328" rx="12.5" ry="12.5" style="stroke:#181818;stroke-width:0.5;" width="274.291" x="107.2339" y="146.6211"/><text fill="#000000" font-family="sans-serif" font-size="12" lengthAdjust="spacing" textLength="254.291" x="117.2339" y="168.2227">Allocate shared sequence and append Entry</text><rect fill="#F1F1F1" height="34.1328" rx="12.5" ry="12.5" style="stroke:#181818;stroke-width:0.5;" width="351.3535" x="68.7026" y="200.7539"/><text fill="#000000" font-family="sans-serif" font-size="12" lengthAdjust="spacing" textLength="331.3535" x="78.7026" y="222.3555">Append internal Record and accumulate Usage if present</text><rect fill="#F1F1F1" height="34.1328" rx="12.5" ry="12.5" style="stroke:#181818;stroke-width:0.5;" width="329.6211" x="79.5688" y="254.8867"/><text fill="#000000" font-family="sans-serif" font-size="12" lengthAdjust="spacing" textLength="309.6211" x="89.5688" y="276.4883">Normalize public formation time to UTC milliseconds</text><rect fill="#F1F1F1" height="34.1328" rx="12.5" ry="12.5" style="stroke:#181818;stroke-width:0.5;" width="311.4395" x="88.6597" y="309.0195"/><text fill="#000000" font-family="sans-serif" font-size="12" lengthAdjust="spacing" textLength="291.4395" x="98.6597" y="330.6211">Allocate shared sequence and insert public events</text><polygon fill="#F1F1F1" points="187.6338,363.1523,301.125,363.1523,313.125,375.1523,301.125,387.1523,187.6338,387.1523,175.6338,375.1523,187.6338,363.1523" style="stroke:#181818;stroke-width:0.5;stroke-linejoin:miter;stroke-miterlimit:10;"/><text fill="#000000" font-family="sans-serif" font-size="11" lengthAdjust="spacing" textLength="113.4912" x="187.6338" y="379.3096">All writes succeeded?</text><text fill="#000000" font-family="sans-serif" font-size="11" lengthAdjust="spacing" textLength="17.4829" x="158.1509" y="372.832">yes</text><text fill="#000000" font-family="sans-serif" font-size="11" lengthAdjust="spacing" textLength="13.5835" x="313.125" y="372.832">no</text><rect fill="#F1F1F1" height="34.1328" rx="12.5" ry="12.5" style="stroke:#181818;stroke-width:0.5;" width="134.9727" x="65.2129" y="397.1523"/><text fill="#000000" font-family="sans-serif" font-size="12" lengthAdjust="spacing" textLength="114.9727" x="75.2129" y="418.7539">Commit transaction</text><rect fill="#F1F1F1" height="34.1328" rx="12.5" ry="12.5" style="stroke:#181818;stroke-width:0.5;" width="233.3984" x="16" y="451.2852"/><text fill="#000000" font-family="sans-serif" font-size="12" lengthAdjust="spacing" textLength="213.3984" x="26" y="472.8867">Return committed identities to caller</text><rect fill="#F1F1F1" height="34.1328" rx="12.5" ry="12.5" style="stroke:#181818;stroke-width:0.5;" width="173.3223" x="269.3984" y="397.1523"/><text fill="#000000" font-family="sans-serif" font-size="12" lengthAdjust="spacing" textLength="153.3223" x="279.3984" y="418.7539">Roll back all related writes</text><polygon fill="#F1F1F1" points="244.3794,491.418,256.3794,503.418,244.3794,515.418,232.3794,503.418,244.3794,491.418" style="stroke:#181818;stroke-width:0.5;stroke-linejoin:miter;stroke-miterlimit:10;"/><ellipse cx="244.3794" cy="546.418" fill="none" rx="11" ry="11" style="stroke:#222222;stroke-width:1;"/><ellipse cx="244.3794" cy="546.418" fill="#222222" rx="6" ry="6" style="stroke:#222222;stroke-width:1;"/><line style="stroke:#181818;stroke-width:1;" x1="244.3794" x2="244.3794" y1="72.4883" y2="92.4883"/><polygon fill="#181818" points="240.3794,82.4883,244.3794,92.4883,248.3794,82.4883,244.3794,86.4883" style="stroke:#181818;stroke-width:1;stroke-linejoin:miter;stroke-miterlimit:10;"/><line style="stroke:#181818;stroke-width:1;" x1="244.3794" x2="244.3794" y1="126.6211" y2="146.6211"/><polygon fill="#181818" points="240.3794,136.6211,244.3794,146.6211,248.3794,136.6211,244.3794,140.6211" style="stroke:#181818;stroke-width:1;stroke-linejoin:miter;stroke-miterlimit:10;"/><line style="stroke:#181818;stroke-width:1;" x1="244.3794" x2="244.3794" y1="180.7539" y2="200.7539"/><polygon fill="#181818" points="240.3794,190.7539,244.3794,200.7539,248.3794,190.7539,244.3794,194.7539" style="stroke:#181818;stroke-width:1;stroke-linejoin:miter;stroke-miterlimit:10;"/><line style="stroke:#181818;stroke-width:1;" x1="244.3794" x2="244.3794" y1="234.8867" y2="254.8867"/><polygon fill="#181818" points="240.3794,244.8867,244.3794,254.8867,248.3794,244.8867,244.3794,248.8867" style="stroke:#181818;stroke-width:1;stroke-linejoin:miter;stroke-miterlimit:10;"/><line style="stroke:#181818;stroke-width:1;" x1="244.3794" x2="244.3794" y1="289.0195" y2="309.0195"/><polygon fill="#181818" points="240.3794,299.0195,244.3794,309.0195,248.3794,299.0195,244.3794,303.0195" style="stroke:#181818;stroke-width:1;stroke-linejoin:miter;stroke-miterlimit:10;"/><line style="stroke:#181818;stroke-width:1;" x1="132.6992" x2="132.6992" y1="431.2852" y2="451.2852"/><polygon fill="#181818" points="128.6992,441.2852,132.6992,451.2852,136.6992,441.2852,132.6992,445.2852" style="stroke:#181818;stroke-width:1;stroke-linejoin:miter;stroke-miterlimit:10;"/><line style="stroke:#181818;stroke-width:1;" x1="175.6338" x2="132.6992" y1="375.1523" y2="375.1523"/><line style="stroke:#181818;stroke-width:1;" x1="132.6992" x2="132.6992" y1="375.1523" y2="397.1523"/><polygon fill="#181818" points="128.6992,387.1523,132.6992,397.1523,136.6992,387.1523,132.6992,391.1523" style="stroke:#181818;stroke-width:1;stroke-linejoin:miter;stroke-miterlimit:10;"/><line style="stroke:#181818;stroke-width:1;" x1="313.125" x2="356.0596" y1="375.1523" y2="375.1523"/><line style="stroke:#181818;stroke-width:1;" x1="356.0596" x2="356.0596" y1="375.1523" y2="397.1523"/><polygon fill="#181818" points="352.0596,387.1523,356.0596,397.1523,360.0596,387.1523,356.0596,391.1523" style="stroke:#181818;stroke-width:1;stroke-linejoin:miter;stroke-miterlimit:10;"/><line style="stroke:#181818;stroke-width:1;" x1="132.6992" x2="132.6992" y1="485.418" y2="503.418"/><line style="stroke:#181818;stroke-width:1;" x1="132.6992" x2="232.3794" y1="503.418" y2="503.418"/><polygon fill="#181818" points="222.3794,499.418,232.3794,503.418,222.3794,507.418,226.3794,503.418" style="stroke:#181818;stroke-width:1;stroke-linejoin:miter;stroke-miterlimit:10;"/><line style="stroke:#181818;stroke-width:1;" x1="356.0596" x2="356.0596" y1="431.2852" y2="503.418"/><line style="stroke:#181818;stroke-width:1;" x1="356.0596" x2="256.3794" y1="503.418" y2="503.418"/><polygon fill="#181818" points="266.3794,499.418,256.3794,503.418,266.3794,507.418,262.3794,503.418" style="stroke:#181818;stroke-width:1;stroke-linejoin:miter;stroke-miterlimit:10;"/><line style="stroke:#181818;stroke-width:1;" x1="244.3794" x2="244.3794" y1="343.1523" y2="363.1523"/><polygon fill="#181818" points="240.3794,353.1523,244.3794,363.1523,248.3794,353.1523,244.3794,357.1523" style="stroke:#181818;stroke-width:1;stroke-linejoin:miter;stroke-miterlimit:10;"/><line style="stroke:#181818;stroke-width:1;" x1="244.3794" x2="244.3794" y1="515.418" y2="535.418"/><polygon fill="#181818" points="240.3794,525.418,244.3794,535.418,248.3794,525.418,244.3794,529.418" style="stroke:#181818;stroke-width:1;stroke-linejoin:miter;stroke-miterlimit:10;"/><?plantuml-src XL9DZzD03BtdLrZYGFVG1YqIeFI0TWiNn8VKikBiphYjOSOJnfEMykln95tKFI1EezZFpy_lfN0917SbHNRG3zjW3nr92lIKbRMGE6gUmoODsH5iKIcmK0SzpsEIDF-EHmJ_vlRrgvSlRly2EuZ93u6qTScpxEUuDywv2zngTcr4bhPEMZks3cC_g0jukg17S9i7AHm9UswljBIVplTOMDTJTqEgd6HDVL8kAPyNbVOPzZs9VoybdxznEJoeKRQNOhrEFoRtWxpf_R9LoaVoiAK37Zdb3f8GRFfiGg1a54LNR0MaaoYK0m7zCYsrE_83YeTn0Pmo5zA5iRuZvRr09jGa7KW2EpHoARPecahvCkGEAFP4F4D8Ii150LMJOwpewqmgyuVHRpvItbSxkd-61cmyi1gzNPctWDaTJ9yhGtxSkcYqO2vDTqzxbYVNrgk2cGGNXvTDTnUiOA903vXDcjBFOTnKiPEvqt4LEtso5Cg20TRaKlOJqhaX3g4IJGxm3lfCQlfjy7FA4GF_fiV3ThKmIgfvGqdmy7K5aKDWDLBn-ZzfB1PnUMAKpTZMcOrTGWCTd2FovD_Ur905PcVIcmQWMut9NPkphEKrcP5obIjx8-R2HcOY7OP0UTbGi4ndaaQgTRA5MpHNhMj_HnWZdXGOL3plB97K_m40?></g></svg>