<svg xmlns="http://www.w3.org/2000/svg" xmlns:xlink="http://www.w3.org/1999/xlink" contentStyleType="text/css" data-diagram-type="CLASS" height="1217px" preserveAspectRatio="none" style="width:1696px;height:1217px;background:#FFFFFF;" version="1.1" viewBox="0 0 1696 1217" width="1696px" zoomAndPan="magnify"><?plantuml 1.2026.6?><defs/><g><g class="title" data-source-line="1"><text fill="#000000" font-family="sans-serif" font-size="14" font-weight="700" lengthAdjust="spacing" textLength="296.1465" x="696.8901" y="23.5352">Durable Runtime Execution Control Store</text></g><!--class RuntimeExecutionPersistenceService--><g class="entity" data-qualified-name="RuntimeExecutionPersistenceService" data-source-line="18" id="ent0001"><rect fill="#F1F1F1" height="130.4414" rx="2.5" ry="2.5" style="stroke:#181818;stroke-width:0.5;" width="278.4014" x="661.15" y="44.4883"/><ellipse cx="676.15" cy="60.4883" fill="#ADD1B2" rx="11" ry="11" style="stroke:#181818;stroke-width:1;"/><path d="M678.6231,66.6313 Q678.0421,66.9302 677.4029,67.0796 Q676.7638,67.229 676.0582,67.229 Q673.5514,67.229 672.2315,65.5771 Q670.9117,63.9253 670.9117,60.8042 Q670.9117,57.6748 672.2315,56.0229 Q673.5514,54.3711 676.0582,54.3711 Q676.7638,54.3711 677.4112,54.5205 Q678.0587,54.6699 678.6231,54.9688 L678.6231,57.6914 Q677.9923,57.1104 677.3988,56.8406 Q676.8053,56.5708 676.1744,56.5708 Q674.8297,56.5708 674.1449,57.6375 Q673.4601,58.7041 673.4601,60.8042 Q673.4601,62.896 674.1449,63.9626 Q674.8297,65.0293 676.1744,65.0293 Q676.8053,65.0293 677.3988,64.7595 Q677.9923,64.4897 678.6231,63.9087 Z " fill="#000000"/><text fill="#000000" font-family="sans-serif" font-size="14" lengthAdjust="spacing" textLength="246.4014" x="690.15" y="65.7793">RuntimeExecutionPersistenceService</text><line style="stroke:#181818;stroke-width:0.5;" x1="662.15" x2="938.5514" y1="76.4883" y2="76.4883"/><line style="stroke:#181818;stroke-width:0.5;" x1="662.15" x2="938.5514" y1="84.4883" y2="84.4883"/><text fill="#000000" font-family="sans-serif" font-size="14" lengthAdjust="spacing" textLength="124.708" x="667.15" y="102.0234">acceptMessage(...)</text><text fill="#000000" font-family="sans-serif" font-size="14" lengthAdjust="spacing" textLength="126.2666" x="667.15" y="118.5117">acceptInterrupt(...)</text><text fill="#000000" font-family="sans-serif" font-size="14" lengthAdjust="spacing" textLength="163.6387" x="667.15" y="135">markToolConfirming(...)</text><text fill="#000000" font-family="sans-serif" font-size="14" lengthAdjust="spacing" textLength="185.6846" x="667.15" y="151.4883">acceptToolConfirmation(...)</text><text fill="#000000" font-family="sans-serif" font-size="14" lengthAdjust="spacing" textLength="133.5537" x="667.15" y="167.9766">commitTerminal(...)</text></g><!--class ExecutionTargetDTO--><g class="entity" data-qualified-name="ExecutionTargetDTO" data-source-line="26" id="ent0002"><rect fill="#F1F1F1" height="113.9531" rx="2.5" ry="2.5" style="stroke:#181818;stroke-width:0.5;" width="172.6973" x="7" y="259.6583"/><ellipse cx="22" cy="275.6583" fill="#ADD1B2" rx="11" ry="11" style="stroke:#181818;stroke-width:1;"/><path d="M24.4731,281.8013 Q23.8921,282.1002 23.2529,282.2496 Q22.6138,282.399 21.9082,282.399 Q19.4014,282.399 18.0815,280.7471 Q16.7617,279.0953 16.7617,275.9742 Q16.7617,272.8448 18.0815,271.1929 Q19.4014,269.5411 21.9082,269.5411 Q22.6138,269.5411 23.2612,269.6905 Q23.9087,269.8399 24.4731,270.1388 L24.4731,272.8614 Q23.8423,272.2804 23.2488,272.0106 Q22.6553,271.7408 22.0244,271.7408 Q20.6797,271.7408 19.9949,272.8075 Q19.3101,273.8741 19.3101,275.9742 Q19.3101,278.066 19.9949,279.1326 Q20.6797,280.1993 22.0244,280.1993 Q22.6553,280.1993 23.2488,279.9295 Q23.8423,279.6597 24.4731,279.0787 Z " fill="#000000"/><text fill="#000000" font-family="sans-serif" font-size="14" lengthAdjust="spacing" textLength="140.6973" x="36" y="280.9493">ExecutionTargetDTO</text><line style="stroke:#181818;stroke-width:0.5;" x1="8" x2="178.6973" y1="291.6583" y2="291.6583"/><text fill="#000000" font-family="sans-serif" font-size="14" lengthAdjust="spacing" textLength="63.3896" x="13" y="309.1934">sessionId</text><text fill="#000000" font-family="sans-serif" font-size="14" lengthAdjust="spacing" textLength="79.4609" x="13" y="325.6817">executionId</text><text fill="#000000" font-family="sans-serif" font-size="14" lengthAdjust="spacing" textLength="77.5674" x="13" y="342.17">rootEventId</text><text fill="#000000" font-family="sans-serif" font-size="14" lengthAdjust="spacing" textLength="71.3057" x="13" y="358.6583">segmentId</text><line style="stroke:#181818;stroke-width:0.5;" x1="8" x2="178.6973" y1="365.6114" y2="365.6114"/></g><!--class RuntimeExecutionControlRepository--><g class="entity" data-qualified-name="RuntimeExecutionControlRepository" data-source-line="33" id="ent0003"><rect fill="#F1F1F1" height="163.418" rx="2.5" ry="2.5" style="stroke:#181818;stroke-width:0.5;" width="634.8496" x="214.92" y="234.9283"/><ellipse cx="405.3453" cy="250.9283" fill="#B4A7E5" rx="11" ry="11" style="stroke:#181818;stroke-width:1;"/><path d="M401.773,247.1934 L401.773,245.0352 L409.1524,245.0352 L409.1524,247.1934 L406.6871,247.1934 L406.6871,255.2701 L409.1524,255.2701 L409.1524,257.4283 L401.773,257.4283 L401.773,255.2701 L404.2384,255.2701 L404.2384,247.1934 Z " fill="#000000"/><text fill="#000000" font-family="sans-serif" font-size="14" font-style="italic" lengthAdjust="spacing" textLength="245.499" x="425.8453" y="256.2193">RuntimeExecutionControlRepository</text><line style="stroke:#181818;stroke-width:0.5;" x1="215.92" x2="848.7696" y1="266.9283" y2="266.9283"/><line style="stroke:#181818;stroke-width:0.5;" x1="215.92" x2="848.7696" y1="274.9283" y2="274.9283"/><text fill="#000000" font-family="sans-serif" font-size="14" lengthAdjust="spacing" textLength="301.6289" x="220.92" y="292.4634">register(target, triggerEventSeq, acceptedAt)</text><text fill="#000000" font-family="sans-serif" font-size="14" lengthAdjust="spacing" textLength="425.1338" x="220.92" y="308.9517">requestInterrupt(sessionId, targetEventId, eventId, acceptedAt)</text><text fill="#000000" font-family="sans-serif" font-size="14" lengthAdjust="spacing" textLength="387.5566" x="220.92" y="325.44">markConfirming(target, toolCallId, appender, terminalAt)</text><text fill="#000000" font-family="sans-serif" font-size="14" lengthAdjust="spacing" textLength="622.8496" x="220.92" y="341.9283">acceptConfirmation(sessionId, toolCallId, eventId, segmentId, result, appender, acceptedAt)</text><text fill="#000000" font-family="sans-serif" font-size="14" lengthAdjust="spacing" textLength="402.5684" x="220.92" y="358.4166">claimConfirmation(confirmingTarget, toolCallId, claimedAt)</text><text fill="#000000" font-family="sans-serif" font-size="14" lengthAdjust="spacing" textLength="338.126" x="220.92" y="374.9048">acknowledgeConfirmation(decision, completedAt)</text><text fill="#000000" font-family="sans-serif" font-size="14" lengthAdjust="spacing" textLength="351.9346" x="220.92" y="391.3931">markTerminal(target, appender, reason, terminalAt)</text></g><!--class RuntimeSessionRepository--><g class="entity" data-qualified-name="RuntimeSessionRepository" data-source-line="43" id="ent0004"><rect fill="#F1F1F1" height="97.4648" rx="2.5" ry="2.5" style="stroke:#181818;stroke-width:0.5;" width="368.8838" x="884.91" y="267.9083"/><ellipse cx="975.3734" cy="283.9083" fill="#B4A7E5" rx="11" ry="11" style="stroke:#181818;stroke-width:1;"/><path d="M971.8011,280.1734 L971.8011,278.0152 L979.1805,278.0152 L979.1805,280.1734 L976.7152,280.1734 L976.7152,288.2501 L979.1805,288.2501 L979.1805,290.4083 L971.8011,290.4083 L971.8011,288.2501 L974.2664,288.2501 L974.2664,280.1734 Z " fill="#000000"/><text fill="#000000" font-family="sans-serif" font-size="14" font-style="italic" lengthAdjust="spacing" textLength="179.457" x="995.8734" y="289.1993">RuntimeSessionRepository</text><line style="stroke:#181818;stroke-width:0.5;" x1="885.91" x2="1252.7938" y1="299.9083" y2="299.9083"/><line style="stroke:#181818;stroke-width:0.5;" x1="885.91" x2="1252.7938" y1="307.9083" y2="307.9083"/><text fill="#000000" font-family="sans-serif" font-size="14" lengthAdjust="spacing" textLength="356.8838" x="890.91" y="325.4434">acceptUserEvent(sessionId, entry, event, acceptedAt)</text><text fill="#000000" font-family="sans-serif" font-size="14" lengthAdjust="spacing" textLength="181.8496" x="890.91" y="341.9317">appendEntry(entry, events)</text><text fill="#000000" font-family="sans-serif" font-size="14" lengthAdjust="spacing" textLength="256.7578" x="890.91" y="358.42">finishExecution(sessionId, terminalAt)</text></g><!--class MyBatisRuntimeExecutionControlRepository--><g class="entity" data-qualified-name="MyBatisRuntimeExecutionControlRepository" data-source-line="49" id="ent0005"><rect fill="#F1F1F1" height="48" rx="2.5" ry="2.5" style="stroke:#181818;stroke-width:0.5;" width="329.0762" x="367.81" y="458.3483"/><ellipse cx="382.81" cy="474.3483" fill="#ADD1B2" rx="11" ry="11" style="stroke:#181818;stroke-width:1;"/><path d="M385.2831,480.4913 Q384.7021,480.7902 384.0629,480.9396 Q383.4238,481.089 382.7182,481.089 Q380.2114,481.089 378.8915,479.4371 Q377.5717,477.7853 377.5717,474.6642 Q377.5717,471.5348 378.8915,469.8829 Q380.2114,468.2311 382.7182,468.2311 Q383.4238,468.2311 384.0712,468.3805 Q384.7187,468.5299 385.2831,468.8288 L385.2831,471.5514 Q384.6523,470.9704 384.0588,470.7006 Q383.4653,470.4308 382.8344,470.4308 Q381.4897,470.4308 380.8049,471.4975 Q380.1201,472.5641 380.1201,474.6642 Q380.1201,476.756 380.8049,477.8226 Q381.4897,478.8893 382.8344,478.8893 Q383.4653,478.8893 384.0588,478.6195 Q384.6523,478.3497 385.2831,477.7687 Z " fill="#000000"/><text fill="#000000" font-family="sans-serif" font-size="14" lengthAdjust="spacing" textLength="297.0762" x="396.81" y="479.6393">MyBatisRuntimeExecutionControlRepository</text><line style="stroke:#181818;stroke-width:0.5;" x1="368.81" x2="695.8862" y1="490.3483" y2="490.3483"/><line style="stroke:#181818;stroke-width:0.5;" x1="368.81" x2="695.8862" y1="498.3483" y2="498.3483"/></g><!--class RuntimeExecutionControlMapper--><g class="entity" data-qualified-name="RuntimeExecutionControlMapper" data-source-line="50" id="ent0006"><rect fill="#F1F1F1" height="48" rx="2.5" ry="2.5" style="stroke:#181818;stroke-width:0.5;" width="256.3145" x="655.19" y="566.3483"/><ellipse cx="670.19" cy="582.3483" fill="#ADD1B2" rx="11" ry="11" style="stroke:#181818;stroke-width:1;"/><path d="M672.6631,588.4913 Q672.0821,588.7902 671.4429,588.9396 Q670.8038,589.089 670.0982,589.089 Q667.5914,589.089 666.2715,587.4371 Q664.9517,585.7853 664.9517,582.6642 Q664.9517,579.5348 666.2715,577.8829 Q667.5914,576.2311 670.0982,576.2311 Q670.8038,576.2311 671.4512,576.3805 Q672.0987,576.5299 672.6631,576.8288 L672.6631,579.5514 Q672.0323,578.9704 671.4388,578.7006 Q670.8453,578.4308 670.2144,578.4308 Q668.8697,578.4308 668.1849,579.4975 Q667.5001,580.5641 667.5001,582.6642 Q667.5001,584.756 668.1849,585.8226 Q668.8697,586.8893 670.2144,586.8893 Q670.8453,586.8893 671.4388,586.6195 Q672.0323,586.3497 672.6631,585.7687 Z " fill="#000000"/><text fill="#000000" font-family="sans-serif" font-size="14" lengthAdjust="spacing" textLength="224.3145" x="684.19" y="587.6393">RuntimeExecutionControlMapper</text><line style="stroke:#181818;stroke-width:0.5;" x1="656.19" x2="910.5045" y1="598.3483" y2="598.3483"/><line style="stroke:#181818;stroke-width:0.5;" x1="656.19" x2="910.5045" y1="606.3483" y2="606.3483"/></g><!--class t_session_executions--><g class="entity" data-qualified-name="t_session_executions" data-source-line="52" id="ent0007"><rect fill="#F1F1F1" height="130.4414" rx="2.5" ry="2.5" style="stroke:#181818;stroke-width:0.5;" width="175.5342" x="695.58" y="674.3483"/><ellipse cx="710.58" cy="690.3483" fill="#ADD1B2" rx="11" ry="11" style="stroke:#181818;stroke-width:1;"/><path d="M714.1943,696.8483 L706.4745,696.8483 L706.4745,684.4552 L714.1943,684.4552 L714.1943,686.6134 L708.9233,686.6134 L708.9233,689.2863 L713.6962,689.2863 L713.6962,691.4445 L708.9233,691.4445 L708.9233,694.6901 L714.1943,694.6901 Z " fill="#000000"/><text fill="#000000" font-family="sans-serif" font-size="14" lengthAdjust="spacing" textLength="143.5342" x="724.58" y="695.6393">t_session_executions</text><line style="stroke:#181818;stroke-width:0.5;" x1="696.58" x2="870.1142" y1="706.3483" y2="706.3483"/><text fill="#000000" font-family="sans-serif" font-size="14" lengthAdjust="spacing" textLength="70.4033" x="701.58" y="723.8834">session_id</text><text fill="#000000" font-family="sans-serif" font-size="14" lengthAdjust="spacing" textLength="86.4746" x="701.58" y="740.3717">execution_id</text><text fill="#000000" font-family="sans-serif" font-size="14" lengthAdjust="spacing" textLength="91.793" x="701.58" y="756.86">root_event_id</text><text fill="#000000" font-family="sans-serif" font-size="14" lengthAdjust="spacing" textLength="33.1406" x="701.58" y="773.3483">state</text><text fill="#000000" font-family="sans-serif" font-size="14" lengthAdjust="spacing" textLength="134.3604" x="701.58" y="789.8366">current_segment_id</text><line style="stroke:#181818;stroke-width:0.5;" x1="696.58" x2="870.1142" y1="796.7897" y2="796.7897"/></g><!--class t_session_execution_segments--><g class="entity" data-qualified-name="t_session_execution_segments" data-source-line="60" id="ent0008"><rect fill="#F1F1F1" height="130.4414" rx="2.5" ry="2.5" style="stroke:#181818;stroke-width:0.5;" width="240.9951" x="698.85" y="864.7883"/><ellipse cx="713.85" cy="880.7883" fill="#ADD1B2" rx="11" ry="11" style="stroke:#181818;stroke-width:1;"/><path d="M717.4643,887.2883 L709.7445,887.2883 L709.7445,874.8952 L717.4643,874.8952 L717.4643,877.0534 L712.1933,877.0534 L712.1933,879.7263 L716.9662,879.7263 L716.9662,881.8845 L712.1933,881.8845 L712.1933,885.1301 L717.4643,885.1301 Z " fill="#000000"/><text fill="#000000" font-family="sans-serif" font-size="14" lengthAdjust="spacing" textLength="208.9951" x="727.85" y="886.0793">t_session_execution_segments</text><line style="stroke:#181818;stroke-width:0.5;" x1="699.85" x2="938.8451" y1="896.7883" y2="896.7883"/><text fill="#000000" font-family="sans-serif" font-size="14" lengthAdjust="spacing" textLength="78.3193" x="704.85" y="914.3234">segment_id</text><text fill="#000000" font-family="sans-serif" font-size="14" lengthAdjust="spacing" textLength="113.1143" x="704.85" y="930.8117">segment_ordinal</text><text fill="#000000" font-family="sans-serif" font-size="14" lengthAdjust="spacing" textLength="109.6279" x="704.85" y="947.3">trigger_event_id</text><text fill="#000000" font-family="sans-serif" font-size="14" lengthAdjust="spacing" textLength="33.1406" x="704.85" y="963.7883">state</text><text fill="#000000" font-family="sans-serif" font-size="14" lengthAdjust="spacing" textLength="119.9775" x="704.85" y="980.2766">terminal_event_id</text><line style="stroke:#181818;stroke-width:0.5;" x1="699.85" x2="938.8451" y1="987.2297" y2="987.2297"/></g><!--class t_session_execution_segment_events--><g class="entity" data-qualified-name="t_session_execution_segment_events" data-source-line="68" id="ent0009"><rect fill="#F1F1F1" height="97.4648" rx="2.5" ry="2.5" style="stroke:#181818;stroke-width:0.5;" width="284.7656" x="852.97" y="1079.9583"/><ellipse cx="867.97" cy="1095.9583" fill="#ADD1B2" rx="11" ry="11" style="stroke:#181818;stroke-width:1;"/><path d="M871.5843,1102.4583 L863.8645,1102.4583 L863.8645,1090.0652 L871.5843,1090.0652 L871.5843,1092.2234 L866.3133,1092.2234 L866.3133,1094.8963 L871.0862,1094.8963 L871.0862,1097.0545 L866.3133,1097.0545 L866.3133,1100.3001 L871.5843,1100.3001 Z " fill="#000000"/><text fill="#000000" font-family="sans-serif" font-size="14" lengthAdjust="spacing" textLength="252.7656" x="881.97" y="1101.2493">t_session_execution_segment_events</text><line style="stroke:#181818;stroke-width:0.5;" x1="853.97" x2="1136.7356" y1="1111.9583" y2="1111.9583"/><text fill="#000000" font-family="sans-serif" font-size="14" lengthAdjust="spacing" textLength="78.3193" x="858.97" y="1129.4934">segment_id</text><text fill="#000000" font-family="sans-serif" font-size="14" lengthAdjust="spacing" textLength="56.6289" x="858.97" y="1145.9817">event_id</text><text fill="#000000" font-family="sans-serif" font-size="14" lengthAdjust="spacing" textLength="67.5186" x="858.97" y="1162.47">event_seq</text><line style="stroke:#181818;stroke-width:0.5;" x1="853.97" x2="1136.7356" y1="1169.4231" y2="1169.4231"/></g><!--class t_session_tool_confirmations--><g class="entity" data-qualified-name="t_session_tool_confirmations" data-source-line="74" id="ent0010"><rect fill="#F1F1F1" height="146.9297" rx="2.5" ry="2.5" style="stroke:#181818;stroke-width:0.5;" width="229.1553" x="558.77" y="1055.2283"/><ellipse cx="573.77" cy="1071.2283" fill="#ADD1B2" rx="11" ry="11" style="stroke:#181818;stroke-width:1;"/><path d="M577.3843,1077.7283 L569.6645,1077.7283 L569.6645,1065.3352 L577.3843,1065.3352 L577.3843,1067.4934 L572.1133,1067.4934 L572.1133,1070.1663 L576.8862,1070.1663 L576.8862,1072.3245 L572.1133,1072.3245 L572.1133,1075.5701 L577.3843,1075.5701 Z " fill="#000000"/><text fill="#000000" font-family="sans-serif" font-size="14" lengthAdjust="spacing" textLength="197.1553" x="587.77" y="1076.5193">t_session_tool_confirmations</text><line style="stroke:#181818;stroke-width:0.5;" x1="559.77" x2="786.9253" y1="1087.2283" y2="1087.2283"/><text fill="#000000" font-family="sans-serif" font-size="14" lengthAdjust="spacing" textLength="150.3838" x="564.77" y="1104.7634">confirmation_event_id</text><text fill="#000000" font-family="sans-serif" font-size="14" lengthAdjust="spacing" textLength="143.377" x="564.77" y="1121.2517">previous_segment_id</text><text fill="#000000" font-family="sans-serif" font-size="14" lengthAdjust="spacing" textLength="78.3193" x="564.77" y="1137.74">segment_id</text><text fill="#000000" font-family="sans-serif" font-size="14" lengthAdjust="spacing" textLength="76.3369" x="564.77" y="1154.2283">tool_call_id</text><text fill="#000000" font-family="sans-serif" font-size="14" lengthAdjust="spacing" textLength="38.6367" x="564.77" y="1170.7166">result</text><text fill="#000000" font-family="sans-serif" font-size="14" lengthAdjust="spacing" textLength="33.1406" x="564.77" y="1187.2048">state</text><line style="stroke:#181818;stroke-width:0.5;" x1="559.77" x2="786.9253" y1="1194.158" y2="1194.158"/></g><!--class t_sessions--><g class="entity" data-qualified-name="t_sessions" data-source-line="83" id="ent0011"><rect fill="#F1F1F1" height="48" rx="2.5" ry="2.5" style="stroke:#181818;stroke-width:0.5;" width="101.918" x="731.39" y="458.3483"/><ellipse cx="746.39" cy="474.3483" fill="#ADD1B2" rx="11" ry="11" style="stroke:#181818;stroke-width:1;"/><path d="M750.0043,480.8483 L742.2845,480.8483 L742.2845,468.4552 L750.0043,468.4552 L750.0043,470.6134 L744.7333,470.6134 L744.7333,473.2863 L749.5062,473.2863 L749.5062,475.4445 L744.7333,475.4445 L744.7333,478.6901 L750.0043,478.6901 Z " fill="#000000"/><text fill="#000000" font-family="sans-serif" font-size="14" lengthAdjust="spacing" textLength="69.918" x="760.39" y="479.6393">t_sessions</text><line style="stroke:#181818;stroke-width:0.5;" x1="732.39" x2="832.308" y1="490.3483" y2="490.3483"/><line style="stroke:#181818;stroke-width:0.5;" x1="732.39" x2="832.308" y1="498.3483" y2="498.3483"/></g><!--class t_session_entries--><g class="entity" data-qualified-name="t_session_entries" data-source-line="84" id="ent0012"><rect fill="#F1F1F1" height="48" rx="2.5" ry="2.5" style="stroke:#181818;stroke-width:0.5;" width="148.2178" x="868.24" y="458.3483"/><ellipse cx="883.24" cy="474.3483" fill="#ADD1B2" rx="11" ry="11" style="stroke:#181818;stroke-width:1;"/><path d="M886.8543,480.8483 L879.1345,480.8483 L879.1345,468.4552 L886.8543,468.4552 L886.8543,470.6134 L881.5833,470.6134 L881.5833,473.2863 L886.3562,473.2863 L886.3562,475.4445 L881.5833,475.4445 L881.5833,478.6901 L886.8543,478.6901 Z " fill="#000000"/><text fill="#000000" font-family="sans-serif" font-size="14" lengthAdjust="spacing" textLength="116.2178" x="897.24" y="479.6393">t_session_entries</text><line style="stroke:#181818;stroke-width:0.5;" x1="869.24" x2="1015.4578" y1="490.3483" y2="490.3483"/><line style="stroke:#181818;stroke-width:0.5;" x1="869.24" x2="1015.4578" y1="498.3483" y2="498.3483"/></g><!--class t_session_events--><g class="entity" data-qualified-name="t_session_events" data-source-line="85" id="ent0013"><rect fill="#F1F1F1" height="48" rx="2.5" ry="2.5" style="stroke:#181818;stroke-width:0.5;" width="145.6885" x="1182.5" y="566.3483"/><ellipse cx="1197.5" cy="582.3483" fill="#ADD1B2" rx="11" ry="11" style="stroke:#181818;stroke-width:1;"/><path d="M1201.1143,588.8483 L1193.3945,588.8483 L1193.3945,576.4552 L1201.1143,576.4552 L1201.1143,578.6134 L1195.8433,578.6134 L1195.8433,581.2863 L1200.6162,581.2863 L1200.6162,583.4445 L1195.8433,583.4445 L1195.8433,586.6901 L1201.1143,586.6901 Z " fill="#000000"/><text fill="#000000" font-family="sans-serif" font-size="14" lengthAdjust="spacing" textLength="113.6885" x="1211.5" y="587.6393">t_session_events</text><line style="stroke:#181818;stroke-width:0.5;" x1="1183.5" x2="1327.1885" y1="598.3483" y2="598.3483"/><line style="stroke:#181818;stroke-width:0.5;" x1="1183.5" x2="1327.1885" y1="606.3483" y2="606.3483"/></g><!--class t_session_event_projection--><g class="entity" data-qualified-name="t_session_event_projection" data-source-line="86" id="ent0014"><rect fill="#F1F1F1" height="48" rx="2.5" ry="2.5" style="stroke:#181818;stroke-width:0.5;" width="214.4922" x="1051.1" y="458.3483"/><ellipse cx="1066.1" cy="474.3483" fill="#ADD1B2" rx="11" ry="11" style="stroke:#181818;stroke-width:1;"/><path d="M1069.7143,480.8483 L1061.9945,480.8483 L1061.9945,468.4552 L1069.7143,468.4552 L1069.7143,470.6134 L1064.4433,470.6134 L1064.4433,473.2863 L1069.2162,473.2863 L1069.2162,475.4445 L1064.4433,475.4445 L1064.4433,478.6901 L1069.7143,478.6901 Z " fill="#000000"/><text fill="#000000" font-family="sans-serif" font-size="14" lengthAdjust="spacing" textLength="182.4922" x="1080.1" y="479.6393">t_session_event_projection</text><line style="stroke:#181818;stroke-width:0.5;" x1="1052.1" x2="1264.5922" y1="490.3483" y2="490.3483"/><line style="stroke:#181818;stroke-width:0.5;" x1="1052.1" x2="1264.5922" y1="498.3483" y2="498.3483"/></g><g class="entity" data-qualified-name="GMN32" data-source-line="107" id="ent0033"><path d="M1288.77,281.0183 L1288.77,352.2605 L1681.9267,352.2605 L1681.9267,291.0183 L1671.9267,281.0183 L1288.77,281.0183" fill="#FEFFDD" style="stroke:#181818;stroke-width:0.5;"/><path d="M1671.9267,281.0183 L1671.9267,291.0183 L1681.9267,291.0183 L1671.9267,281.0183" fill="#FEFFDD" style="stroke:#181818;stroke-width:1;"/><text fill="#000000" font-family="sans-serif" font-size="13" lengthAdjust="spacing" textLength="182.2285" x="1294.77" y="298.5866">One outer Spring transaction</text><text fill="#000000" font-family="sans-serif" font-size="13" lengthAdjust="spacing" textLength="372.1567" x="1294.77" y="313.8972">locks Session and exact execution before terminal append.</text><text fill="#000000" font-family="sans-serif" font-size="13" lengthAdjust="spacing" textLength="364.311" x="1294.77" y="329.2077">Interrupt receipts are not linked to the message segment.</text><text fill="#000000" font-family="sans-serif" font-size="13" lengthAdjust="spacing" textLength="359.7661" x="1294.77" y="344.5183">A committed stop prevents confirmation accept or claim.</text></g><!--link RuntimeExecutionPersistenceService to ExecutionTargetDTO--><g class="link" data-entity-1="ent0001" data-entity-2="ent0002" data-link-type="dependency" data-source-line="88" id="lnk15"><path codeLine="88" d="M660.65,121.3583 C534.7,135.1083 346.86,166.0783 197.35,234.9283 C183.34,241.3783 173.5311,247.1076 160.7311,256.3676" fill="none" id="RuntimeExecutionPersistenceService-to-ExecutionTargetDTO" style="stroke:#181818;stroke-width:1;"/><polygon fill="#181818" points="156.68,259.2983,166.3165,257.2639,160.7311,256.3676,161.6274,250.7822,156.68,259.2983" style="stroke:#181818;stroke-width:1;stroke-linejoin:miter;stroke-miterlimit:10;"/></g><!--link RuntimeExecutionPersistenceService to RuntimeExecutionControlRepository--><g class="link" data-entity-1="ent0001" data-entity-2="ent0003" data-link-type="dependency" data-source-line="89" id="lnk16"><path codeLine="89" d="M715.92,175.2683 C691.37,194.0383 668.2126,211.7521 642.5026,231.4021" fill="none" id="RuntimeExecutionPersistenceService-to-RuntimeExecutionControlRepository" style="stroke:#181818;stroke-width:1;"/><polygon fill="#181818" points="638.53,234.4383,648.1096,232.1512,642.5026,231.4021,643.2517,225.795,638.53,234.4383" style="stroke:#181818;stroke-width:1;stroke-linejoin:miter;stroke-miterlimit:10;"/></g><!--link RuntimeExecutionPersistenceService to RuntimeSessionRepository--><g class="link" data-entity-1="ent0001" data-entity-2="ent0004" data-link-type="dependency" data-source-line="90" id="lnk17"><path codeLine="90" d="M885.09,175.2683 C924.36,205.1883 966.2431,237.0877 1002.3831,264.6277" fill="none" id="RuntimeExecutionPersistenceService-to-RuntimeSessionRepository" style="stroke:#181818;stroke-width:1;"/><polygon fill="#181818" points="1006.36,267.6583,1001.626,259.0218,1002.3831,264.6277,996.7771,265.3848,1006.36,267.6583" style="stroke:#181818;stroke-width:1;stroke-linejoin:miter;stroke-miterlimit:10;"/></g><!--reverse link RuntimeExecutionControlRepository to MyBatisRuntimeExecutionControlRepository--><g class="link" data-entity-1="ent0003" data-entity-2="ent0005" data-link-type="extension" data-source-line="91" id="lnk18"><path codeLine="91" d="M532.35,416.5283 C532.35,438.2783 532.35,442.1183 532.35,457.9083" fill="none" id="RuntimeExecutionControlRepository-backto-MyBatisRuntimeExecutionControlRepository" style="stroke:#181818;stroke-width:1;stroke-dasharray:7,7;"/><polygon fill="none" points="532.35,398.5283,526.35,416.5283,538.35,416.5283,532.35,398.5283" style="stroke:#181818;stroke-width:1;stroke-linejoin:miter;stroke-miterlimit:10;"/></g><!--link MyBatisRuntimeExecutionControlRepository to RuntimeExecutionControlMapper--><g class="link" data-entity-1="ent0005" data-entity-2="ent0006" data-link-type="dependency" data-source-line="92" id="lnk19"><path codeLine="92" d="M587.74,506.7383 C629.46,524.3583 681.8037,546.4637 723.4937,564.0637" fill="none" id="MyBatisRuntimeExecutionControlRepository-to-RuntimeExecutionControlMapper" style="stroke:#181818;stroke-width:1;"/><polygon fill="#181818" points="728.1,566.0083,721.3643,558.8229,723.4937,564.0637,718.2529,566.193,728.1,566.0083" style="stroke:#181818;stroke-width:1;stroke-linejoin:miter;stroke-miterlimit:10;"/></g><!--link RuntimeExecutionControlMapper to t_session_executions--><g class="link" data-entity-1="ent0006" data-entity-2="ent0007" data-link-type="dependency" data-source-line="93" id="lnk20"><path codeLine="93" d="M783.35,614.6783 C783.35,630.7283 783.35,647.8883 783.35,669.0383" fill="none" id="RuntimeExecutionControlMapper-to-t_session_executions" style="stroke:#181818;stroke-width:1;"/><polygon fill="#181818" points="783.35,674.0383,787.35,665.0383,783.35,669.0383,779.35,665.0383,783.35,674.0383" style="stroke:#181818;stroke-width:1;stroke-linejoin:miter;stroke-miterlimit:10;"/></g><!--link RuntimeExecutionControlMapper to t_session_execution_segments--><g class="link" data-entity-1="ent0006" data-entity-2="ent0008" data-link-type="dependency" data-source-line="94" id="lnk21"><path codeLine="94" d="M829.38,614.7883 C851.57,628.7883 875.99,648.8283 888.35,674.3483 C913.61,726.5283 902.89,748.6683 888.35,804.7883 C883.03,825.3283 875.922,841.7096 865.612,860.2296" fill="none" id="RuntimeExecutionControlMapper-to-t_session_execution_segments" style="stroke:#181818;stroke-width:1;"/><polygon fill="#181818" points="863.18,864.5983,871.0526,858.6803,865.612,860.2296,864.0627,854.7891,863.18,864.5983" style="stroke:#181818;stroke-width:1;stroke-linejoin:miter;stroke-miterlimit:10;"/></g><!--link RuntimeExecutionControlMapper to t_session_execution_segment_events--><g class="link" data-entity-1="ent0006" data-entity-2="ent0009" data-link-type="dependency" data-source-line="95" id="lnk22"><path codeLine="95" d="M846.26,614.8083 C873.73,628.1883 903.83,647.6883 922.35,674.3483 C1009.44,799.7283 1007.4684,986.2226 1000.7484,1074.7526" fill="none" id="RuntimeExecutionControlMapper-to-t_session_execution_segment_events" style="stroke:#181818;stroke-width:1;"/><polygon fill="#181818" points="1000.37,1079.7383,1005.0397,1071.0669,1000.7484,1074.7526,997.0627,1070.4613,1000.37,1079.7383" style="stroke:#181818;stroke-width:1;stroke-linejoin:miter;stroke-miterlimit:10;"/></g><!--link RuntimeExecutionControlMapper to t_session_tool_confirmations--><g class="link" data-entity-1="ent0006" data-entity-2="ent0010" data-link-type="dependency" data-source-line="96" id="lnk23"><path codeLine="96" d="M737.43,614.8483 C715.28,628.8583 690.84,648.8983 678.35,674.3483 C618.16,796.9283 636.2855,956.6842 654.8455,1050.0842" fill="none" id="RuntimeExecutionControlMapper-to-t_session_tool_confirmations" style="stroke:#181818;stroke-width:1;"/><polygon fill="#181818" points="655.82,1054.9883,657.9892,1045.3813,654.8455,1050.0842,650.1426,1046.9405,655.82,1054.9883" style="stroke:#181818;stroke-width:1;stroke-linejoin:miter;stroke-miterlimit:10;"/></g><!--link RuntimeSessionRepository to t_sessions--><g class="link" data-entity-1="ent0004" data-entity-2="ent0011" data-link-type="dependency" data-source-line="97" id="lnk24"><path codeLine="97" d="M985.18,365.6483 C931.92,396.0283 869.7731,431.4808 827.7531,455.4508" fill="none" id="RuntimeSessionRepository-to-t_sessions" style="stroke:#181818;stroke-width:1;"/><polygon fill="#181818" points="823.41,457.9283,833.2095,456.9433,827.7531,455.4508,829.2455,449.9944,823.41,457.9283" style="stroke:#181818;stroke-width:1;stroke-linejoin:miter;stroke-miterlimit:10;"/></g><!--link RuntimeSessionRepository to t_session_entries--><g class="link" data-entity-1="ent0004" data-entity-2="ent0012" data-link-type="dependency" data-source-line="98" id="lnk25"><path codeLine="98" d="M1032.27,365.4283 C1008.7,395.8183 982.2746,429.8775 963.6346,453.9075" fill="none" id="RuntimeSessionRepository-to-t_session_entries" style="stroke:#181818;stroke-width:1;"/><polygon fill="#181818" points="960.57,457.8583,969.2468,453.1986,963.6346,453.9075,962.9256,448.2953,960.57,457.8583" style="stroke:#181818;stroke-width:1;stroke-linejoin:miter;stroke-miterlimit:10;"/></g><!--link RuntimeSessionRepository to t_session_events--><g class="link" data-entity-1="ent0004" data-entity-2="ent0013" data-link-type="dependency" data-source-line="99" id="lnk26"><path codeLine="99" d="M1185.13,365.7983 C1223.48,387.9783 1261.82,418.4283 1283.35,458.3483 C1302,492.9383 1286.178,534.5339 1271.668,561.8139" fill="none" id="RuntimeSessionRepository-to-t_session_events" style="stroke:#181818;stroke-width:1;"/><polygon fill="#181818" points="1269.32,566.2283,1277.0779,560.1607,1271.668,561.8139,1270.0148,556.404,1269.32,566.2283" style="stroke:#181818;stroke-width:1;stroke-linejoin:miter;stroke-miterlimit:10;"/></g><!--link RuntimeSessionRepository to t_session_event_projection--><g class="link" data-entity-1="ent0004" data-entity-2="ent0014" data-link-type="dependency" data-source-line="100" id="lnk27"><path codeLine="100" d="M1095.33,365.4283 C1111.85,395.8183 1130.1324,429.4352 1143.1924,453.4652" fill="none" id="RuntimeSessionRepository-to-t_session_event_projection" style="stroke:#181818;stroke-width:1;"/><polygon fill="#181818" points="1145.58,457.8583,1144.7968,448.0406,1143.1924,453.4652,1137.7678,451.8608,1145.58,457.8583" style="stroke:#181818;stroke-width:1;stroke-linejoin:miter;stroke-miterlimit:10;"/></g><!--link t_session_executions to t_session_execution_segments--><g class="link" data-entity-1="ent0007" data-entity-2="ent0008" data-link-type="crowfoot" data-source-line="101" id="lnk28"><path codeLine="101" d="M797.1903,813.0163 C800.8503,832.1863 801.8565,837.4708 805.5265,856.6508" fill="none" id="t_session_executions-t_session_execution_segments" style="stroke:#181818;stroke-width:1;"/><line style="stroke:#181818;stroke-width:1;" x1="792.5111" x2="800.3692" y1="809.8375" y2="808.3372"/><line style="stroke:#181818;stroke-width:1;" x1="793.0737" x2="800.9318" y1="812.7842" y2="811.2839"/><line style="stroke:#181818;stroke-width:1;" x1="797.1903" x2="795.69" y1="813.0163" y2="805.1583"/><line style="stroke:#181818;stroke-width:1;" x1="805.5265" x2="812.9231" y1="856.6508" y2="863.3807"/><line style="stroke:#181818;stroke-width:1;" x1="805.5265" x2="801.1369" y1="856.6508" y2="865.6359"/><line style="stroke:#181818;stroke-width:1;" x1="805.5265" x2="807.03" y1="856.6508" y2="864.5083"/><line style="stroke:#181818;stroke-width:1;" x1="809.0794" x2="801.2219" y1="853.9347" y2="855.4382"/></g><!--link t_session_execution_segments to t_session_execution_segment_events--><g class="link" data-entity-1="ent0008" data-entity-2="ent0009" data-link-type="crowfoot" data-source-line="102" id="lnk29"><path codeLine="102" d="M882.5551,1001.6396 C907.0051,1028.9596 917.6357,1040.8557 940.2257,1066.0957" fill="none" id="t_session_execution_segments-t_session_execution_segment_events" style="stroke:#181818;stroke-width:1;"/><line style="stroke:#181818;stroke-width:1;" x1="876.9069" x2="882.8682" y1="1001.3265" y2="995.9914"/><line style="stroke:#181818;stroke-width:1;" x1="878.9075" x2="884.8688" y1="1003.562" y2="998.2269"/><line style="stroke:#181818;stroke-width:1;" x1="882.5551" x2="877.22" y1="1001.6396" y2="995.6783"/><line style="stroke:#181818;stroke-width:1;" x1="946.8947" x2="956.7008" y1="1073.5472" y2="1075.5068"/><line style="stroke:#181818;stroke-width:1;" x1="946.8947" x2="947.7592" y1="1073.5472" y2="1083.5097"/><line style="stroke:#181818;stroke-width:1;" x1="946.8947" x2="952.23" y1="1073.5472" y2="1079.5083"/><ellipse cx="942.8933" cy="1069.0763" fill="none" rx="4" ry="4" style="stroke:#181818;stroke-width:1;"/></g><!--link t_session_execution_segments to t_session_tool_confirmations--><g class="link" data-entity-1="ent0008" data-entity-2="ent0010" data-link-type="association" data-source-line="103" id="lnk30"><path codeLine="103" d="M766.5721,1002.1022 C752.5221,1021.0322 750.7793,1023.373 736.3893,1042.763" fill="none" id="t_session_execution_segments-t_session_tool_confirmations" style="stroke:#181818;stroke-width:1;"/><line style="stroke:#181818;stroke-width:1;" x1="765.7441" x2="772.168" y1="996.5063" y2="1001.2742"/><line style="stroke:#181818;stroke-width:1;" x1="763.9561" x2="770.3801" y1="998.9153" y2="1003.6832"/><line style="stroke:#181818;stroke-width:1;" x1="766.5721" x2="771.34" y1="1002.1022" y2="995.6783"/><line style="stroke:#181818;stroke-width:1;" x1="734.0055" x2="727.45" y1="1045.975" y2="1054.8083"/><ellipse cx="734.0055" cy="1045.975" fill="none" rx="4" ry="4" style="stroke:#181818;stroke-width:1;"/><line style="stroke:#181818;stroke-width:1;" x1="733.0459" x2="726.6217" y1="1053.98" y2="1049.2124"/></g><!--link t_session_events to t_session_execution_segment_events--><g class="link" data-entity-1="ent0013" data-entity-2="ent0009" data-link-type="association" data-source-line="104" id="lnk31"><path codeLine="104" d="M1240.5199,621.9368 C1201.0299,703.3868 1079.0732,954.9806 1025.1432,1066.2306" fill="none" id="t_session_events-t_session_execution_segment_events" style="stroke:#181818;stroke-width:1;"/><line style="stroke:#181818;stroke-width:1;" x1="1238.6657" x2="1245.8642" y1="616.5925" y2="620.0826"/><line style="stroke:#181818;stroke-width:1;" x1="1237.3569" x2="1244.5554" y1="619.2919" y2="622.7821"/><line style="stroke:#181818;stroke-width:1;" x1="1240.5199" x2="1244.01" y1="621.9368" y2="614.7383"/><line style="stroke:#181818;stroke-width:1;" x1="1023.3983" x2="1018.6" y1="1069.83" y2="1079.7283"/><ellipse cx="1023.3983" cy="1069.83" fill="none" rx="4" ry="4" style="stroke:#181818;stroke-width:1;"/><line style="stroke:#181818;stroke-width:1;" x1="1023.9442" x2="1016.7455" y1="1077.8738" y2="1074.3841"/></g><!--link RuntimeExecutionPersistenceService to GMN32--><g class="link" data-entity-1="ent0001" data-entity-2="ent0033" data-link-type="association" data-source-line="107" id="lnk34"><path d="M940.03,143.5483 C1034.32,166.6883 1161.19,199.7283 1271.35,234.9283 C1313.71,248.4583 1359.97,265.5983 1398.6,280.5983" fill="none" id="RuntimeExecutionPersistenceService-GMN32" style="stroke:#181818;stroke-width:1;stroke-dasharray:7,7;"/></g><?plantuml-src pLXDRziu4BtxLn3jOLF0bXD_oGuM2sIJ7hhO84MJFHiKERBPIAH2Kcc3fFzzXwIiIB5YkotsusIH7CuyFiuyahR2Pa0kIaqJ_FrKIYjo8E-_0YkjK9ASAscroiYrLHfwlv2hn82-1qx-eFUK65Lg1YIX1Z8XuPGKOf0hgGQVtMZAfzCPPp1cAJqPmHJcuqaoWqKoJ-VZQNfo336VnMoERhrx8l8YWnoafJusKtakx2cP0nlFnvmV0ypebCvJY24U9GjOn4c2pVY4eKTEqSzPKMI2XUbMKsaeyzzjpwTaCPhEHkbiHEnQgtArnXXnZ90O-hXHk5wcP2fq7ZobgfISTZgYT3QFOJ5lKXDOEIMvucK6PiWK5t8re2kSDc2P61hDXZaLSkXemk5yo6XUb8Pbz4jbxOs7Ekm7BSJcSrXjqHckwnxgVOgSfxTeyu4xDly900Le8um5oMeGTVYFpsFNo85Wu07z5r2gXFq4XJ82i-hXNqDo-V0x9eNv_m2ga5o3COZZPm1e23bji5bWYA49FbzZ_z9RHL_px0V3y6IuegKn-2kaiJJBDY6NXgqXfv6vSxu_YYuD8XEQBlZeX8-J2P_D9Z2XeqNAQ982cqzFufFZE1vDvZ1kUi29bDqYAZCCh3fO0MIcL15Pu-hhp7NyYMr29ITl2mq5rU0aunn1DbKWWJMz5qgV1gcyXSAYsW2Xld89r18hEBeKze4ecJqG8V4NIA4Lyc0Yz7W1HgmaqK2DKnmtUbrefB2bS8cGtA1pXd4mEjoZK-D1Mj2va3JRz5c5tHWV9pPG65WvMNC1FLwE8FNAvT4fuTNnmBGoPk0t1FkTHlgpeLw0m83atEVeEUOeePgjXGLcInHtjgPo1L4FizSOibz1o6EFLEkvH2Pm9uwYA7fNTtwGk31T5dRJdLDzwpSYI3SIr9xG6FFYlHaDnynDnLBe_TQhSDO0RoYoOIzkhZokAXbHRSapXxwbbRBl7T6-LR6At-XHECGfPK3sQeGFec7bAD57riVkutwBrGgqTtyDT_rwky_iEsz_Lu9f45EZnAdUHGMi7rB1VRGzE0eRzDLng_Js4x2o9GVTh_CgJ0sEMlmsmpSyrB5hSle8tPIPRNfl0yFD47dBEQjXtdIWzFQRoLZMKdt9WA-WvO834mvWtwK07kij6kfys93m32rKOfk0hktT4jv6IlzbgdriieHD_L0Hz9A14FwzipXgsXatc0efpBfEfnRpRP0XgmyzgbufrfRAztfLzR-nour6roLXtX2AYjCnq2oZfMZLKMYwGbhw9OOsYeu5bmgbrgwpoXut-6qdXetbgrXgWmfJxVUveJHt969FLODTo3PKFuyT1YpOxuLNcMs3R409dmRkkaEx4bashxOlWsuR-73DdkRAyVZ38wuqoqxIV2DunBAiTjKNUarQ5yeNc4mNXPX_0hOO2xrTzfq4-yxNh9Tu0dy6VxPspMiCzte776Q3mMyTPycXC_SNwlSvsbActluJwTUdA3fSE0urtBMyIbzsZlhvNVhoOzDgAVYvwPlS-XudswNNU_KSQSqyrAwkZqFDMsiuoBfP5PsY__Gq63mzxcP-fq8x1-hn4ExtktdQpVvB9hOdlHgx9vN59ucoLkL4fGVSTb4Hh_1YhqeyH3gkzpYSANPhIBKD_cB_yWgVGEh-HQdl--7A4E7S-ag8-ij05EvbW9Q8ak2RwHRV2_WeS8-JFDoqdry3X9nL5sJtgZ0M7pvEz3qVhVz8mcs5A1tkNX7gAdS1u6y0?></g></svg>