<svg xmlns="http://www.w3.org/2000/svg" xmlns:xlink="http://www.w3.org/1999/xlink" contentStyleType="text/css" data-diagram-type="CLASS" height="879px" preserveAspectRatio="none" style="width:2574px;height:879px;background:#FFFFFF;" version="1.1" viewBox="0 0 2574 879" width="2574px" zoomAndPan="magnify"><?plantuml 1.2026.6?><defs/><g><g class="title" data-source-line="32"><text fill="#000000" font-family="sans-serif" font-size="14" font-weight="700" lengthAdjust="spacing" textLength="364.7656" x="1101.1172" y="23.5352">Mate Tool Client Layers and Dependency Direction</text></g><!--cluster tool/mate (AgentTool layer)--><g class="cluster" data-qualified-name="tool.mate .AgentTool layer." data-source-line="34" id="ent0001"><rect fill="none" height="131.98" rx="2.5" ry="2.5" style="stroke:#000000;stroke-width:1.5;" width="816" x="153" y="340.8783"/><text fill="#000000" font-family="sans-serif" font-size="14" font-weight="700" lengthAdjust="spacing" textLength="201.5371" x="460.2314" y="356.4134">tool/mate (AgentTool layer)</text></g><!--cluster common/client (infrastructure layer)--><g class="cluster" data-qualified-name="common.client .infrastructure layer." data-source-line="45" id="ent0005"><rect fill="none" height="296.86" rx="2.5" ry="2.5" style="stroke:#000000;stroke-width:1.5;" width="302" x="1285" y="258.4383"/><text fill="#000000" font-family="sans-serif" font-size="14" font-weight="700" lengthAdjust="spacing" textLength="264.5234" x="1303.7383" y="273.9734">common/client (infrastructure layer)</text></g><!--cluster common/client/mate (contract layer)--><g class="cluster" data-qualified-name="common.client.mate .contract layer." data-source-line="62" id="ent0007"><rect fill="none" height="157.09" rx="2.5" ry="2.5" style="stroke:#000000;stroke-width:1.5;" width="1271" x="7" y="604.2983"/><text fill="#000000" font-family="sans-serif" font-size="14" font-weight="700" lengthAdjust="spacing" textLength="266.9229" x="509.0386" y="619.8334">common/client/mate (contract layer)</text></g><!--cluster common/util + common/dto--><g class="cluster" data-qualified-name="common.util . common.dto" data-source-line="86" id="ent0013"><rect fill="none" height="140.59" rx="2.5" ry="2.5" style="stroke:#000000;stroke-width:1.5;" width="1258" x="1302" y="612.5483"/><text fill="#000000" font-family="sans-serif" font-size="14" font-weight="700" lengthAdjust="spacing" textLength="207.4229" x="1827.2886" y="628.0834">common/util + common/dto</text></g><!--cluster config (wiring layer)--><g class="cluster" data-qualified-name="config .wiring layer." data-source-line="106" id="ent0019"><rect fill="none" height="164.95" rx="2.5" ry="2.5" style="stroke:#000000;stroke-width:1.5;" width="282" x="1295" y="44.4883"/><text fill="#000000" font-family="sans-serif" font-size="14" font-weight="700" lengthAdjust="spacing" textLength="146.2754" x="1362.8623" y="60.0234">config (wiring layer)</text></g><!--class CallMateTool--><g class="entity" data-qualified-name="tool.mate .AgentTool layer..CallMateTool" data-source-line="35" id="ent0002"><rect fill="#F1F1F1" height="80.9766" rx="2.5" ry="2.5" style="stroke:#181818;stroke-width:0.5;" width="367.0107" x="169.49" y="375.8783"/><ellipse cx="304.5271" cy="391.8783" fill="#ADD1B2" rx="11" ry="11" style="stroke:#181818;stroke-width:1;"/><path d="M307.0003,398.0213 Q306.4192,398.3202 305.78,398.4696 Q305.1409,398.619 304.4353,398.619 Q301.9285,398.619 300.6087,396.9671 Q299.2888,395.3153 299.2888,392.1942 Q299.2888,389.0648 300.6087,387.4129 Q301.9285,385.7611 304.4353,385.7611 Q305.1409,385.7611 305.7883,385.9105 Q306.4358,386.0599 307.0003,386.3588 L307.0003,389.0814 Q306.3694,388.5004 305.7759,388.2306 Q305.1824,387.9608 304.5515,387.9608 Q303.2068,387.9608 302.522,389.0275 Q301.8372,390.0941 301.8372,392.1942 Q301.8372,394.286 302.522,395.3526 Q303.2068,396.4193 304.5515,396.4193 Q305.1824,396.4193 305.7759,396.1495 Q306.3694,395.8797 307.0003,395.2987 Z " fill="#000000"/><text fill="#000000" font-family="sans-serif" font-size="14" lengthAdjust="spacing" textLength="88.4365" x="325.0271" y="397.1693">CallMateTool</text><line style="stroke:#181818;stroke-width:0.5;" x1="170.49" x2="535.5007" y1="407.8783" y2="407.8783"/><line style="stroke:#181818;stroke-width:0.5;" x1="170.49" x2="535.5007" y1="415.8783" y2="415.8783"/><g data-visibility-modifier="PUBLIC_METHOD"><ellipse cx="180.49" cy="429.6224" fill="#84BE84" rx="3" ry="3" style="stroke:#038048;stroke-width:1;"/></g><text fill="#000000" font-family="sans-serif" font-size="14" lengthAdjust="spacing" textLength="62.1865" x="189.49" y="433.4134">execute()</text><g data-visibility-modifier="PROTECTED_METHOD"><polygon fill="#FFFF44" points="180.49,441.1107,184.49,445.1107,180.49,449.1107,176.49,445.1107" style="stroke:#B38D22;stroke-width:1;stroke-linejoin:miter;stroke-miterlimit:10;"/></g><text fill="#000000" font-family="sans-serif" font-size="14" lengthAdjust="spacing" textLength="341.0107" x="189.49" y="449.9017">resolveCredentials(MateToolCall): MateCredentials</text></g><!--class ListMateTool--><g class="entity" data-qualified-name="tool.mate .AgentTool layer..ListMateTool" data-source-line="39" id="ent0003"><rect fill="#F1F1F1" height="64.4883" rx="2.5" ry="2.5" style="stroke:#181818;stroke-width:0.5;" width="118.8096" x="571.6" y="384.1283"/><ellipse cx="586.6" cy="400.1283" fill="#ADD1B2" rx="11" ry="11" style="stroke:#181818;stroke-width:1;"/><path d="M589.0731,406.2713 Q588.4921,406.5702 587.8529,406.7196 Q587.2138,406.869 586.5082,406.869 Q584.0014,406.869 582.6815,405.2171 Q581.3617,403.5653 581.3617,400.4442 Q581.3617,397.3148 582.6815,395.6629 Q584.0014,394.0111 586.5082,394.0111 Q587.2138,394.0111 587.8612,394.1605 Q588.5087,394.3099 589.0731,394.6088 L589.0731,397.3314 Q588.4423,396.7504 587.8488,396.4806 Q587.2553,396.2108 586.6244,396.2108 Q585.2797,396.2108 584.5949,397.2775 Q583.9101,398.3441 583.9101,400.4442 Q583.9101,402.536 584.5949,403.6026 Q585.2797,404.6693 586.6244,404.6693 Q587.2553,404.6693 587.8488,404.3995 Q588.4423,404.1297 589.0731,403.5487 Z " fill="#000000"/><text fill="#000000" font-family="sans-serif" font-size="14" lengthAdjust="spacing" textLength="86.8096" x="600.6" y="405.4193">ListMateTool</text><line style="stroke:#181818;stroke-width:0.5;" x1="572.6" x2="689.4096" y1="416.1283" y2="416.1283"/><line style="stroke:#181818;stroke-width:0.5;" x1="572.6" x2="689.4096" y1="424.1283" y2="424.1283"/><g data-visibility-modifier="PUBLIC_METHOD"><ellipse cx="582.6" cy="437.8724" fill="#84BE84" rx="3" ry="3" style="stroke:#038048;stroke-width:1;"/></g><text fill="#000000" font-family="sans-serif" font-size="14" lengthAdjust="spacing" textLength="62.1865" x="591.6" y="441.6634">execute()</text></g><!--class MateToolExecutionException--><g class="entity" data-qualified-name="tool.mate .AgentTool layer..MateToolExecutionException" data-source-line="42" id="ent0004"><rect fill="#F1F1F1" height="48" rx="2.5" ry="2.5" style="stroke:#181818;stroke-width:0.5;" width="227.8564" x="725.07" y="392.3683"/><ellipse cx="740.07" cy="408.3683" fill="#ADD1B2" rx="11" ry="11" style="stroke:#181818;stroke-width:1;"/><path d="M742.5431,414.5113 Q741.9621,414.8102 741.3229,414.9596 Q740.6838,415.109 739.9782,415.109 Q737.4714,415.109 736.1515,413.4571 Q734.8317,411.8053 734.8317,408.6842 Q734.8317,405.5548 736.1515,403.9029 Q737.4714,402.2511 739.9782,402.2511 Q740.6838,402.2511 741.3312,402.4005 Q741.9787,402.5499 742.5431,402.8488 L742.5431,405.5714 Q741.9123,404.9904 741.3188,404.7206 Q740.7253,404.4508 740.0944,404.4508 Q738.7497,404.4508 738.0649,405.5175 Q737.3801,406.5841 737.3801,408.6842 Q737.3801,410.776 738.0649,411.8426 Q738.7497,412.9093 740.0944,412.9093 Q740.7253,412.9093 741.3188,412.6395 Q741.9123,412.3697 742.5431,411.7887 Z " fill="#000000"/><text fill="#000000" font-family="sans-serif" font-size="14" lengthAdjust="spacing" textLength="195.8564" x="754.07" y="413.6593">MateToolExecutionException</text><line style="stroke:#181818;stroke-width:0.5;" x1="726.07" x2="951.9264" y1="424.3683" y2="424.3683"/><line style="stroke:#181818;stroke-width:0.5;" x1="726.07" x2="951.9264" y1="432.3683" y2="432.3683"/></g><!--class HttpMateToolClient--><g class="entity" data-qualified-name="common.client .infrastructure layer..HttpMateToolClient" data-source-line="46" id="ent0006"><rect fill="#F1F1F1" height="245.8594" rx="2.5" ry="2.5" style="stroke:#181818;stroke-width:0.5;" width="270.3369" x="1300.83" y="293.4383"/><ellipse cx="1365.7475" cy="309.4383" fill="#ADD1B2" rx="11" ry="11" style="stroke:#181818;stroke-width:1;"/><path d="M1368.2206,315.5813 Q1367.6396,315.8802 1367.0004,316.0296 Q1366.3613,316.179 1365.6557,316.179 Q1363.1488,316.179 1361.829,314.5271 Q1360.5092,312.8753 1360.5092,309.7542 Q1360.5092,306.6248 1361.829,304.9729 Q1363.1488,303.3211 1365.6557,303.3211 Q1366.3613,303.3211 1367.0087,303.4705 Q1367.6562,303.6199 1368.2206,303.9188 L1368.2206,306.6414 Q1367.5898,306.0604 1366.9963,305.7906 Q1366.4028,305.5208 1365.7719,305.5208 Q1364.4272,305.5208 1363.7424,306.5875 Q1363.0575,307.6541 1363.0575,309.7542 Q1363.0575,311.846 1363.7424,312.9126 Q1364.4272,313.9793 1365.7719,313.9793 Q1366.4028,313.9793 1366.9963,313.7095 Q1367.5898,313.4397 1368.2206,312.8587 Z " fill="#000000"/><text fill="#000000" font-family="sans-serif" font-size="14" lengthAdjust="spacing" textLength="132.002" x="1386.2475" y="314.7293">HttpMateToolClient</text><line style="stroke:#181818;stroke-width:0.5;" x1="1301.83" x2="1570.1669" y1="325.4383" y2="325.4383"/><g data-visibility-modifier="PROTECTED_FIELD"><polygon fill="none" points="1311.83,334.1824,1315.83,338.1824,1311.83,342.1824,1307.83,338.1824" style="stroke:#B38D22;stroke-width:1;stroke-linejoin:miter;stroke-miterlimit:10;"/></g><text fill="#000000" font-family="sans-serif" font-size="14" lengthAdjust="spacing" textLength="193.5938" x="1320.83" y="342.9734">mateInnerGwAddress: String</text><g data-visibility-modifier="PROTECTED_FIELD"><polygon fill="none" points="1311.83,350.6707,1315.83,354.6707,1311.83,358.6707,1307.83,354.6707" style="stroke:#B38D22;stroke-width:1;stroke-linejoin:miter;stroke-miterlimit:10;"/></g><text fill="#000000" font-family="sans-serif" font-size="14" lengthAdjust="spacing" textLength="181.9248" x="1320.83" y="359.4617">agentInfoPathPrefix: String</text><g data-visibility-modifier="PROTECTED_FIELD"><polygon fill="none" points="1311.83,367.159,1315.83,371.159,1311.83,375.159,1307.83,371.159" style="stroke:#B38D22;stroke-width:1;stroke-linejoin:miter;stroke-miterlimit:10;"/></g><text fill="#000000" font-family="sans-serif" font-size="14" lengthAdjust="spacing" textLength="222.373" x="1320.83" y="375.95">skillToolsQueryPathPrefix: String</text><g data-visibility-modifier="PROTECTED_FIELD"><polygon fill="none" points="1311.83,383.6473,1315.83,387.6473,1311.83,391.6473,1307.83,387.6473" style="stroke:#B38D22;stroke-width:1;stroke-linejoin:miter;stroke-miterlimit:10;"/></g><text fill="#000000" font-family="sans-serif" font-size="14" lengthAdjust="spacing" textLength="207.4502" x="1320.83" y="392.4383">toolMetadataQueryPath: String</text><g data-visibility-modifier="PROTECTED_FIELD"><polygon fill="none" points="1311.83,400.1355,1315.83,404.1355,1311.83,408.1355,1307.83,404.1355" style="stroke:#B38D22;stroke-width:1;stroke-linejoin:miter;stroke-miterlimit:10;"/></g><text fill="#000000" font-family="sans-serif" font-size="14" lengthAdjust="spacing" textLength="172.0947" x="1320.83" y="408.9266">toolExecutePathTemplate</text><line style="stroke:#181818;stroke-width:0.5;" x1="1301.83" x2="1570.1669" y1="415.8797" y2="415.8797"/><g data-visibility-modifier="PUBLIC_METHOD"><ellipse cx="1311.83" cy="429.6238" fill="#84BE84" rx="3" ry="3" style="stroke:#038048;stroke-width:1;"/></g><text fill="#000000" font-family="sans-serif" font-size="14" lengthAdjust="spacing" textLength="167.002" x="1320.83" y="433.4148">listTools(agentId, skillId)</text><g data-visibility-modifier="PUBLIC_METHOD"><ellipse cx="1311.83" cy="446.1121" fill="#84BE84" rx="3" ry="3" style="stroke:#038048;stroke-width:1;"/></g><text fill="#000000" font-family="sans-serif" font-size="14" lengthAdjust="spacing" textLength="209.9248" x="1320.83" y="449.9031">callTool(tool, args, credentials)</text><g data-visibility-modifier="PROTECTED_METHOD"><polygon fill="#FFFF44" points="1311.83,457.6004,1315.83,461.6004,1311.83,465.6004,1307.83,461.6004" style="stroke:#B38D22;stroke-width:1;stroke-linejoin:miter;stroke-miterlimit:10;"/></g><text fill="#000000" font-family="sans-serif" font-size="14" lengthAdjust="spacing" textLength="216.8838" x="1320.83" y="466.3914">queryToolIdsByAgentId(agentId)</text><g data-visibility-modifier="PROTECTED_METHOD"><polygon fill="#FFFF44" points="1311.83,474.0887,1315.83,478.0887,1311.83,482.0887,1307.83,478.0887" style="stroke:#B38D22;stroke-width:1;stroke-linejoin:miter;stroke-miterlimit:10;"/></g><text fill="#000000" font-family="sans-serif" font-size="14" lengthAdjust="spacing" textLength="193.9082" x="1320.83" y="482.8797">queryToolIdsBySkillId(skillId)</text><g data-visibility-modifier="PROTECTED_METHOD"><polygon fill="#FFFF44" points="1311.83,490.577,1315.83,494.577,1311.83,498.577,1307.83,494.577" style="stroke:#B38D22;stroke-width:1;stroke-linejoin:miter;stroke-miterlimit:10;"/></g><text fill="#000000" font-family="sans-serif" font-size="14" lengthAdjust="spacing" textLength="192.1855" x="1320.83" y="499.368">queryToolMetaByIds(toolIds)</text><g data-visibility-modifier="PROTECTED_METHOD"><polygon fill="#FFFF44" points="1311.83,507.0652,1315.83,511.0652,1311.83,515.0652,1307.83,511.0652" style="stroke:#B38D22;stroke-width:1;stroke-linejoin:miter;stroke-miterlimit:10;"/></g><text fill="#000000" font-family="sans-serif" font-size="14" lengthAdjust="spacing" textLength="158.4775" x="1320.83" y="515.8563">toMeta(List&lt;ToolInfo&gt;)</text><g data-visibility-modifier="PROTECTED_METHOD"><polygon fill="#FFFF44" points="1311.83,523.5535,1315.83,527.5535,1311.83,531.5535,1307.83,527.5535" style="stroke:#B38D22;stroke-width:1;stroke-linejoin:miter;stroke-miterlimit:10;"/></g><text fill="#000000" font-family="sans-serif" font-size="14" lengthAdjust="spacing" textLength="244.3369" x="1320.83" y="532.3445">invokeTool(toolId, args, credentials)</text></g><!--class MateToolClient--><g class="entity" data-qualified-name="common.client.mate .contract layer..MateToolClient" data-source-line="63" id="ent0008"><rect fill="#F1F1F1" height="80.9766" rx="2.5" ry="2.5" style="stroke:#181818;stroke-width:0.5;" width="235.9248" x="513.04" y="651.8583"/><ellipse cx="575.5376" cy="667.8583" fill="#B4A7E5" rx="11" ry="11" style="stroke:#181818;stroke-width:1;"/><path d="M571.9653,664.1234 L571.9653,661.9652 L579.3447,661.9652 L579.3447,664.1234 L576.8794,664.1234 L576.8794,672.2001 L579.3447,672.2001 L579.3447,674.3583 L571.9653,674.3583 L571.9653,672.2001 L574.4306,672.2001 L574.4306,664.1234 Z " fill="#000000"/><text fill="#000000" font-family="sans-serif" font-size="14" font-style="italic" lengthAdjust="spacing" textLength="102.4297" x="596.0376" y="673.1493">MateToolClient</text><line style="stroke:#181818;stroke-width:0.5;" x1="514.04" x2="747.9648" y1="683.8583" y2="683.8583"/><line style="stroke:#181818;stroke-width:0.5;" x1="514.04" x2="747.9648" y1="691.8583" y2="691.8583"/><g data-visibility-modifier="PUBLIC_METHOD"><ellipse cx="524.04" cy="705.6024" fill="#84BE84" rx="3" ry="3" style="stroke:#038048;stroke-width:1;"/></g><text fill="#000000" font-family="sans-serif" font-size="14" lengthAdjust="spacing" textLength="167.002" x="533.04" y="709.3934">listTools(agentId, skillId)</text><g data-visibility-modifier="PUBLIC_METHOD"><ellipse cx="524.04" cy="722.0907" fill="#84BE84" rx="3" ry="3" style="stroke:#038048;stroke-width:1;"/></g><text fill="#000000" font-family="sans-serif" font-size="14" lengthAdjust="spacing" textLength="209.9248" x="533.04" y="725.8817">callTool(tool, args, credentials)</text></g><!--class MateToolMeta--><g class="entity" data-qualified-name="common.client.mate .contract layer..MateToolMeta" data-source-line="67" id="ent0009"><rect fill="#F1F1F1" height="106.0859" rx="2.5" ry="2.5" style="stroke:#181818;stroke-width:0.5;" width="227.9336" x="250.03" y="639.2983"/><ellipse cx="311.8713" cy="659.6088" fill="#ADD1B2" rx="11" ry="11" style="stroke:#181818;stroke-width:1;"/><path d="M314.3445,665.7519 Q313.7634,666.0507 313.1242,666.2001 Q312.4851,666.3496 311.7795,666.3496 Q309.2727,666.3496 307.9529,664.6977 Q306.633,663.0458 306.633,659.9247 Q306.633,656.7954 307.9529,655.1435 Q309.2727,653.4916 311.7795,653.4916 Q312.4851,653.4916 313.1325,653.6411 Q313.78,653.7905 314.3445,654.0893 L314.3445,656.812 Q313.7136,656.2309 313.1201,655.9611 Q312.5266,655.6913 311.8957,655.6913 Q310.551,655.6913 309.8662,656.758 Q309.1814,657.8246 309.1814,659.9247 Q309.1814,662.0165 309.8662,663.0832 Q310.551,664.1498 311.8957,664.1498 Q312.5266,664.1498 313.1201,663.8801 Q313.7136,663.6103 314.3445,663.0292 Z " fill="#000000"/><text fill="#000000" font-family="sans-serif" font-size="12" font-style="italic" lengthAdjust="spacing" textLength="50.1504" x="355.1716" y="655.8998">&#171;record&#187;</text><text fill="#000000" font-family="sans-serif" font-size="14" lengthAdjust="spacing" textLength="95.751" x="332.3713" y="671.9663">MateToolMeta</text><line style="stroke:#181818;stroke-width:0.5;" x1="251.03" x2="476.9636" y1="679.9194" y2="679.9194"/><text fill="#000000" font-family="sans-serif" font-size="14" lengthAdjust="spacing" textLength="131.6055" x="256.03" y="697.4545">toolId / description</text><text fill="#000000" font-family="sans-serif" font-size="14" lengthAdjust="spacing" textLength="200.9355" x="256.03" y="713.9428">inputSchema / outputSchema</text><text fill="#000000" font-family="sans-serif" font-size="14" lengthAdjust="spacing" textLength="215.9336" x="256.03" y="730.4311">isConcurrencySafe / permission</text><line style="stroke:#181818;stroke-width:0.5;" x1="251.03" x2="476.9636" y1="737.3842" y2="737.3842"/></g><!--class MateCredentials--><g class="entity" data-qualified-name="common.client.mate .contract layer..MateCredentials" data-source-line="72" id="ent0010"><rect fill="#F1F1F1" height="106.0859" rx="2.5" ry="2.5" style="stroke:#181818;stroke-width:0.5;" width="259.1533" x="784.42" y="639.2983"/><ellipse cx="854.9771" cy="659.6088" fill="#ADD1B2" rx="11" ry="11" style="stroke:#181818;stroke-width:1;"/><path d="M857.4503,665.7519 Q856.8692,666.0507 856.2301,666.2001 Q855.5909,666.3496 854.8853,666.3496 Q852.3785,666.3496 851.0587,664.6977 Q849.7388,663.0458 849.7388,659.9247 Q849.7388,656.7954 851.0587,655.1435 Q852.3785,653.4916 854.8853,653.4916 Q855.5909,653.4916 856.2384,653.6411 Q856.8858,653.7905 857.4503,654.0893 L857.4503,656.812 Q856.8194,656.2309 856.2259,655.9611 Q855.6324,655.6913 855.0015,655.6913 Q853.6568,655.6913 852.972,656.758 Q852.2872,657.8246 852.2872,659.9247 Q852.2872,662.0165 852.972,663.0832 Q853.6568,664.1498 855.0015,664.1498 Q855.6324,664.1498 856.2259,663.8801 Q856.8194,663.6103 857.4503,663.0292 Z " fill="#000000"/><text fill="#000000" font-family="sans-serif" font-size="12" font-style="italic" lengthAdjust="spacing" textLength="50.1504" x="905.1715" y="655.8998">&#171;record&#187;</text><text fill="#000000" font-family="sans-serif" font-size="14" lengthAdjust="spacing" textLength="109.5391" x="875.4771" y="671.9663">MateCredentials</text><line style="stroke:#181818;stroke-width:0.5;" x1="785.42" x2="1042.5733" y1="679.9194" y2="679.9194"/><text fill="#000000" font-family="sans-serif" font-size="14" lengthAdjust="spacing" textLength="247.1533" x="790.42" y="697.4545">xHwId / xHwAppKey / authorization</text><line style="stroke:#181818;stroke-width:0.5;" x1="785.42" x2="1042.5733" y1="704.4077" y2="704.4077"/><g data-visibility-modifier="PUBLIC_METHOD"><ellipse cx="795.42" cy="718.1518" fill="#84BE84" rx="3" ry="3" style="stroke:#038048;stroke-width:1;"/></g><text fill="#000000" font-family="sans-serif" font-size="14" lengthAdjust="spacing" textLength="104.3027" x="804.42" y="721.9428">appKey() / jwt()</text><g data-visibility-modifier="PUBLIC_METHOD"><ellipse cx="795.42" cy="734.6401" fill="#84BE84" rx="3" ry="3" style="stroke:#038048;stroke-width:1;"/></g><text fill="#000000" font-family="sans-serif" font-size="14" lengthAdjust="spacing" textLength="85.3398" x="804.42" y="738.4311">isComplete()</text></g><!--class MateCredentialResolver--><g class="entity" data-qualified-name="common.client.mate .contract layer..MateCredentialResolver" data-source-line="77" id="ent0011"><rect fill="#F1F1F1" height="64.4883" rx="2.5" ry="2.5" style="stroke:#181818;stroke-width:0.5;" width="191.6123" x="23.19" y="660.0983"/><ellipse cx="38.19" cy="676.0983" fill="#B4A7E5" rx="11" ry="11" style="stroke:#181818;stroke-width:1;"/><path d="M34.6177,672.3634 L34.6177,670.2052 L41.9971,670.2052 L41.9971,672.3634 L39.5318,672.3634 L39.5318,680.4401 L41.9971,680.4401 L41.9971,682.5983 L34.6177,682.5983 L34.6177,680.4401 L37.0831,680.4401 L37.0831,672.3634 Z " fill="#000000"/><text fill="#000000" font-family="sans-serif" font-size="14" font-style="italic" lengthAdjust="spacing" textLength="159.6123" x="52.19" y="681.3893">MateCredentialResolver</text><line style="stroke:#181818;stroke-width:0.5;" x1="24.19" x2="213.8023" y1="692.0983" y2="692.0983"/><line style="stroke:#181818;stroke-width:0.5;" x1="24.19" x2="213.8023" y1="700.0983" y2="700.0983"/><g data-visibility-modifier="PUBLIC_METHOD"><ellipse cx="34.19" cy="713.8424" fill="#84BE84" rx="3" ry="3" style="stroke:#038048;stroke-width:1;"/></g><text fill="#000000" font-family="sans-serif" font-size="14" lengthAdjust="spacing" textLength="145.8994" x="43.19" y="717.6334">resolve(MateToolCall)</text></g><!--class MateToolCall--><g class="entity" data-qualified-name="common.client.mate .contract layer..MateToolCall" data-source-line="80" id="ent0012"><rect fill="#F1F1F1" height="89.5977" rx="2.5" ry="2.5" style="stroke:#181818;stroke-width:0.5;" width="183.3496" x="1078.33" y="647.5483"/><ellipse cx="1121.6409" cy="667.8588" fill="#ADD1B2" rx="11" ry="11" style="stroke:#181818;stroke-width:1;"/><path d="M1124.114,674.0019 Q1123.533,674.3007 1122.8938,674.4501 Q1122.2547,674.5996 1121.5491,674.5996 Q1119.0423,674.5996 1117.7224,672.9477 Q1116.4026,671.2958 1116.4026,668.1747 Q1116.4026,665.0454 1117.7224,663.3935 Q1119.0423,661.7416 1121.5491,661.7416 Q1122.2547,661.7416 1122.9021,661.8911 Q1123.5496,662.0405 1124.114,662.3393 L1124.114,665.062 Q1123.4832,664.4809 1122.8897,664.2111 Q1122.2962,663.9413 1121.6653,663.9413 Q1120.3206,663.9413 1119.6358,665.008 Q1118.9509,666.0746 1118.9509,668.1747 Q1118.9509,670.2665 1119.6358,671.3332 Q1120.3206,672.3998 1121.6653,672.3998 Q1122.2962,672.3998 1122.8897,672.1301 Q1123.4832,671.8603 1124.114,671.2792 Z " fill="#000000"/><text fill="#000000" font-family="sans-serif" font-size="12" font-style="italic" lengthAdjust="spacing" textLength="50.1504" x="1161.0753" y="664.1498">&#171;record&#187;</text><text fill="#000000" font-family="sans-serif" font-size="14" lengthAdjust="spacing" textLength="88.4365" x="1141.9322" y="680.2163">MateToolCall</text><line style="stroke:#181818;stroke-width:0.5;" x1="1079.33" x2="1260.6796" y1="688.1694" y2="688.1694"/><text fill="#000000" font-family="sans-serif" font-size="14" lengthAdjust="spacing" textLength="153.0498" x="1084.33" y="705.7045">toolCallId / tool / args</text><line style="stroke:#181818;stroke-width:0.5;" x1="1079.33" x2="1260.6796" y1="712.6577" y2="712.6577"/><text fill="#000000" font-family="sans-serif" font-size="14" lengthAdjust="spacing" textLength="171.3496" x="1084.33" y="730.1928">(deep-copied, read-only)</text></g><!--class MateRestUtil--><g class="entity" data-qualified-name="common.util . common.dto.MateRestUtil" data-source-line="87" id="ent0014"><rect fill="#F1F1F1" height="80.9766" rx="2.5" ry="2.5" style="stroke:#181818;stroke-width:0.5;" width="211.8828" x="1589.06" y="651.8583"/><ellipse cx="1648.3105" cy="667.8583" fill="#ADD1B2" rx="11" ry="11" style="stroke:#181818;stroke-width:1;"/><path d="M1650.7836,674.0013 Q1650.2026,674.3002 1649.5634,674.4496 Q1648.9243,674.599 1648.2187,674.599 Q1645.7119,674.599 1644.392,672.9471 Q1643.0722,671.2953 1643.0722,668.1742 Q1643.0722,665.0448 1644.392,663.3929 Q1645.7119,661.7411 1648.2187,661.7411 Q1648.9243,661.7411 1649.5717,661.8905 Q1650.2192,662.0399 1650.7836,662.3388 L1650.7836,665.0614 Q1650.1528,664.4804 1649.5593,664.2106 Q1648.9658,663.9408 1648.3349,663.9408 Q1646.9902,663.9408 1646.3054,665.0075 Q1645.6205,666.0741 1645.6205,668.1742 Q1645.6205,670.266 1646.3054,671.3326 Q1646.9902,672.3993 1648.3349,672.3993 Q1648.9658,672.3993 1649.5593,672.1295 Q1650.1528,671.8597 1650.7836,671.2787 Z " fill="#000000"/><text fill="#000000" font-family="sans-serif" font-size="14" lengthAdjust="spacing" textLength="84.8818" x="1668.8105" y="673.1493">MateRestUtil</text><line style="stroke:#181818;stroke-width:0.5;" x1="1590.06" x2="1799.9428" y1="683.8583" y2="683.8583"/><line style="stroke:#181818;stroke-width:0.5;" x1="1590.06" x2="1799.9428" y1="691.8583" y2="691.8583"/><g data-visibility-modifier="PUBLIC_METHOD"><ellipse cx="1600.06" cy="705.6024" fill="#84BE84" rx="3" ry="3" style="stroke:#038048;stroke-width:1;"/></g><text fill="#000000" font-family="sans-serif" font-size="14" lengthAdjust="spacing" textLength="185.8828" x="1609.06" y="709.3934">executePostRawRequest(...)</text><g data-visibility-modifier="PUBLIC_METHOD"><ellipse cx="1600.06" cy="722.0907" fill="#84BE84" rx="3" ry="3" style="stroke:#038048;stroke-width:1;"/></g><text fill="#000000" font-family="sans-serif" font-size="14" lengthAdjust="spacing" textLength="180.3252" x="1609.06" y="725.8817">executeGetRawRequest(...)</text></g><!--class RequestHeaderInfo--><g class="entity" data-qualified-name="common.util . common.dto.RequestHeaderInfo" data-source-line="91" id="ent0015"><rect fill="#F1F1F1" height="73.1094" rx="2.5" ry="2.5" style="stroke:#181818;stroke-width:0.5;" width="235.5762" x="1318.21" y="655.7883"/><ellipse cx="1367.2715" cy="676.0988" fill="#ADD1B2" rx="11" ry="11" style="stroke:#181818;stroke-width:1;"/><path d="M1369.7447,682.2419 Q1369.1636,682.5407 1368.5245,682.6901 Q1367.8853,682.8396 1367.1797,682.8396 Q1364.6729,682.8396 1363.3531,681.1877 Q1362.0332,679.5358 1362.0332,676.4147 Q1362.0332,673.2854 1363.3531,671.6335 Q1364.6729,669.9816 1367.1797,669.9816 Q1367.8853,669.9816 1368.5328,670.1311 Q1369.1802,670.2805 1369.7447,670.5793 L1369.7447,673.302 Q1369.1138,672.7209 1368.5203,672.4511 Q1367.9268,672.1813 1367.2959,672.1813 Q1365.9512,672.1813 1365.2664,673.248 Q1364.5816,674.3146 1364.5816,676.4147 Q1364.5816,678.5065 1365.2664,679.5732 Q1365.9512,680.6398 1367.2959,680.6398 Q1367.9268,680.6398 1368.5203,680.3701 Q1369.1138,680.1003 1369.7447,679.5192 Z " fill="#000000"/><text fill="#000000" font-family="sans-serif" font-size="12" font-style="italic" lengthAdjust="spacing" textLength="38.4727" x="1433.0118" y="672.3898">&#171;DTO&#187;</text><text fill="#000000" font-family="sans-serif" font-size="14" lengthAdjust="spacing" textLength="128.9531" x="1387.7715" y="688.4563">RequestHeaderInfo</text><line style="stroke:#181818;stroke-width:0.5;" x1="1319.21" x2="1552.7862" y1="696.4094" y2="696.4094"/><line style="stroke:#181818;stroke-width:0.5;" x1="1319.21" x2="1552.7862" y1="704.4094" y2="704.4094"/><text fill="#000000" font-family="sans-serif" font-size="14" lengthAdjust="spacing" textLength="223.5762" x="1324.21" y="721.9445">builder().build() - credential-free</text></g><!--class ToolInfo--><g class="entity" data-qualified-name="common.util . common.dto.ToolInfo" data-source-line="94" id="ent0016"><rect fill="#F1F1F1" height="89.5977" rx="2.5" ry="2.5" style="stroke:#181818;stroke-width:0.5;" width="304.2021" x="1835.9" y="647.5483"/><ellipse cx="1955.4674" cy="667.8588" fill="#ADD1B2" rx="11" ry="11" style="stroke:#181818;stroke-width:1;"/><path d="M1957.9405,674.0019 Q1957.3595,674.3007 1956.7203,674.4501 Q1956.0812,674.5996 1955.3756,674.5996 Q1952.8688,674.5996 1951.5489,672.9477 Q1950.2291,671.2958 1950.2291,668.1747 Q1950.2291,665.0454 1951.5489,663.3935 Q1952.8688,661.7416 1955.3756,661.7416 Q1956.0812,661.7416 1956.7286,661.8911 Q1957.3761,662.0405 1957.9405,662.3393 L1957.9405,665.062 Q1957.3097,664.4809 1956.7162,664.2111 Q1956.1227,663.9413 1955.4918,663.9413 Q1954.1471,663.9413 1953.4623,665.008 Q1952.7774,666.0746 1952.7774,668.1747 Q1952.7774,670.2665 1953.4623,671.3332 Q1954.1471,672.3998 1955.4918,672.3998 Q1956.1227,672.3998 1956.7162,672.1301 Q1957.3097,671.8603 1957.9405,671.2792 Z " fill="#000000"/><text fill="#000000" font-family="sans-serif" font-size="12" font-style="italic" lengthAdjust="spacing" textLength="38.4727" x="1985.0147" y="664.1498">&#171;DTO&#187;</text><text fill="#000000" font-family="sans-serif" font-size="14" lengthAdjust="spacing" textLength="56.5674" x="1975.9674" y="680.2163">ToolInfo</text><line style="stroke:#181818;stroke-width:0.5;" x1="1836.9" x2="2139.1021" y1="688.1694" y2="688.1694"/><text fill="#000000" font-family="sans-serif" font-size="14" lengthAdjust="spacing" textLength="213.2334" x="1841.9" y="705.7045">toolId / toolName / description</text><text fill="#000000" font-family="sans-serif" font-size="14" lengthAdjust="spacing" textLength="292.2021" x="1841.9" y="722.1928">inputSchema / outputSchema / permission</text><line style="stroke:#181818;stroke-width:0.5;" x1="1836.9" x2="2139.1021" y1="729.1459" y2="729.1459"/></g><!--class AgentInfo--><g class="entity" data-qualified-name="common.util . common.dto.AgentInfo" data-source-line="98" id="ent0017"><rect fill="#F1F1F1" height="73.1094" rx="2.5" ry="2.5" style="stroke:#181818;stroke-width:0.5;" width="153.9209" x="2175.04" y="655.7883"/><ellipse cx="2214.9425" cy="676.0988" fill="#ADD1B2" rx="11" ry="11" style="stroke:#181818;stroke-width:1;"/><path d="M2217.4156,682.2419 Q2216.8346,682.5407 2216.1954,682.6901 Q2215.5563,682.8396 2214.8507,682.8396 Q2212.3439,682.8396 2211.024,681.1877 Q2209.7042,679.5358 2209.7042,676.4147 Q2209.7042,673.2854 2211.024,671.6335 Q2212.3439,669.9816 2214.8507,669.9816 Q2215.5563,669.9816 2216.2037,670.1311 Q2216.8512,670.2805 2217.4156,670.5793 L2217.4156,673.302 Q2216.7848,672.7209 2216.1913,672.4511 Q2215.5978,672.1813 2214.9669,672.1813 Q2213.6222,672.1813 2212.9374,673.248 Q2212.2525,674.3146 2212.2525,676.4147 Q2212.2525,678.5065 2212.9374,679.5732 Q2213.6222,680.6398 2214.9669,680.6398 Q2215.5978,680.6398 2216.1913,680.3701 Q2216.7848,680.1003 2217.4156,679.5192 Z " fill="#000000"/><text fill="#000000" font-family="sans-serif" font-size="12" font-style="italic" lengthAdjust="spacing" textLength="38.4727" x="2248.5311" y="672.3898">&#171;DTO&#187;</text><text fill="#000000" font-family="sans-serif" font-size="14" lengthAdjust="spacing" textLength="66.582" x="2234.4764" y="688.4563">AgentInfo</text><line style="stroke:#181818;stroke-width:0.5;" x1="2176.04" x2="2327.9609" y1="696.4094" y2="696.4094"/><text fill="#000000" font-family="sans-serif" font-size="14" lengthAdjust="spacing" textLength="141.9209" x="2181.04" y="713.9445">bindingTools[].toolId</text><line style="stroke:#181818;stroke-width:0.5;" x1="2176.04" x2="2327.9609" y1="720.8977" y2="720.8977"/></g><!--class QuerySkillToolsResult--><g class="entity" data-qualified-name="common.util . common.dto.QuerySkillToolsResult" data-source-line="101" id="ent0018"><rect fill="#F1F1F1" height="73.1094" rx="2.5" ry="2.5" style="stroke:#181818;stroke-width:0.5;" width="179.2666" x="2364.37" y="655.7883"/><ellipse cx="2379.37" cy="676.0988" fill="#ADD1B2" rx="11" ry="11" style="stroke:#181818;stroke-width:1;"/><path d="M2381.8431,682.2419 Q2381.2621,682.5407 2380.6229,682.6901 Q2379.9838,682.8396 2379.2782,682.8396 Q2376.7714,682.8396 2375.4515,681.1877 Q2374.1317,679.5358 2374.1317,676.4147 Q2374.1317,673.2854 2375.4515,671.6335 Q2376.7714,669.9816 2379.2782,669.9816 Q2379.9838,669.9816 2380.6312,670.1311 Q2381.2787,670.2805 2381.8431,670.5793 L2381.8431,673.302 Q2381.2123,672.7209 2380.6188,672.4511 Q2380.0253,672.1813 2379.3944,672.1813 Q2378.0497,672.1813 2377.3649,673.248 Q2376.6801,674.3146 2376.6801,676.4147 Q2376.6801,678.5065 2377.3649,679.5732 Q2378.0497,680.6398 2379.3944,680.6398 Q2380.0253,680.6398 2380.6188,680.3701 Q2381.2123,680.1003 2381.8431,679.5192 Z " fill="#000000"/><text fill="#000000" font-family="sans-serif" font-size="12" font-style="italic" lengthAdjust="spacing" textLength="38.4727" x="2447.767" y="672.3898">&#171;DTO&#187;</text><text fill="#000000" font-family="sans-serif" font-size="14" lengthAdjust="spacing" textLength="147.2666" x="2393.37" y="688.4563">QuerySkillToolsResult</text><line style="stroke:#181818;stroke-width:0.5;" x1="2365.37" x2="2542.6366" y1="696.4094" y2="696.4094"/><text fill="#000000" font-family="sans-serif" font-size="14" lengthAdjust="spacing" textLength="115.4521" x="2370.37" y="713.9445">bindingTools[].id</text><line style="stroke:#181818;stroke-width:0.5;" x1="2365.37" x2="2542.6366" y1="720.8977" y2="720.8977"/></g><!--class MateToolAutoConfiguration--><g class="entity" data-qualified-name="config .wiring layer..MateToolAutoConfiguration" data-source-line="107" id="ent0020"><rect fill="#F1F1F1" height="113.9531" rx="2.5" ry="2.5" style="stroke:#181818;stroke-width:0.5;" width="249.7471" x="1311.13" y="79.4883"/><ellipse cx="1339.1892" cy="95.4883" fill="#ADD1B2" rx="11" ry="11" style="stroke:#181818;stroke-width:1;"/><path d="M1341.6624,101.6313 Q1341.0813,101.9302 1340.4422,102.0796 Q1339.803,102.229 1339.0974,102.229 Q1336.5906,102.229 1335.2708,100.5771 Q1333.9509,98.9253 1333.9509,95.8042 Q1333.9509,92.6748 1335.2708,91.0229 Q1336.5906,89.3711 1339.0974,89.3711 Q1339.803,89.3711 1340.4505,89.5205 Q1341.0979,89.6699 1341.6624,89.9688 L1341.6624,92.6914 Q1341.0315,92.1104 1340.438,91.8406 Q1339.8445,91.5708 1339.2136,91.5708 Q1337.8689,91.5708 1337.1841,92.6375 Q1336.4993,93.7041 1336.4993,95.8042 Q1336.4993,97.896 1337.1841,98.9626 Q1337.8689,100.0293 1339.2136,100.0293 Q1339.8445,100.0293 1340.438,99.7595 Q1341.0315,99.4897 1341.6624,98.9087 Z " fill="#000000"/><text fill="#000000" font-family="sans-serif" font-size="14" lengthAdjust="spacing" textLength="188.7266" x="1356.0913" y="100.7793">MateToolAutoConfiguration</text><line style="stroke:#181818;stroke-width:0.5;" x1="1312.13" x2="1559.8771" y1="111.4883" y2="111.4883"/><text fill="#000000" font-family="sans-serif" font-size="14" lengthAdjust="spacing" textLength="189.3418" x="1317.13" y="129.0234">@Value mate.innerGWSerive</text><text fill="#000000" font-family="sans-serif" font-size="14" lengthAdjust="spacing" textLength="171.1309" x="1317.13" y="145.5117">@Value mate.endpoints.*</text><line style="stroke:#181818;stroke-width:0.5;" x1="1312.13" x2="1559.8771" y1="152.4648" y2="152.4648"/><g data-visibility-modifier="PUBLIC_METHOD"><ellipse cx="1322.13" cy="166.209" fill="#84BE84" rx="3" ry="3" style="stroke:#038048;stroke-width:1;"/></g><text fill="#000000" font-family="sans-serif" font-size="14" lengthAdjust="spacing" textLength="223.7471" x="1331.13" y="170">mateRestUtil() / mateToolClient()</text><g data-visibility-modifier="PUBLIC_METHOD"><ellipse cx="1322.13" cy="182.6973" fill="#84BE84" rx="3" ry="3" style="stroke:#038048;stroke-width:1;"/></g><text fill="#000000" font-family="sans-serif" font-size="14" lengthAdjust="spacing" textLength="203.7246" x="1331.13" y="186.4883">callMateTool() / listMateTool()</text></g><g class="entity" data-qualified-name="GMN30" data-source-line="126" id="ent0031"><path d="M417.12,808.3883 L417.12,864.3199 A0,0 0 0 0 417.12,864.3199 L844.8778,864.3199 A0,0 0 0 0 844.8778,864.3199 L844.8778,818.3883 L834.8778,808.3883 L635,808.3883 L631,733.2783 L627,808.3883 L417.12,808.3883 A0,0 0 0 0 417.12,808.3883" fill="#FEFFDD" style="stroke:#181818;stroke-width:0.5;"/><path d="M834.8778,808.3883 L834.8778,818.3883 L844.8778,818.3883 L834.8778,808.3883" fill="#FEFFDD" style="stroke:#181818;stroke-width:0.5;"/><text fill="#000000" font-family="sans-serif" font-size="13" lengthAdjust="spacing" textLength="242.3599" x="423.12" y="825.9566">contract lives in common/client/mate;</text><text fill="#000000" font-family="sans-serif" font-size="13" lengthAdjust="spacing" textLength="406.7578" x="423.12" y="841.2672">dependency direction: tool/mate -&gt; contract &lt;- common/client</text><text fill="#000000" font-family="sans-serif" font-size="13" lengthAdjust="spacing" textLength="348.9814" x="423.12" y="856.5777">(HttpMateToolClient does not depend on the tool layer)</text></g><!--link CallMateTool to MateToolClient--><g class="link" data-entity-1="ent0002" data-entity-2="ent0008" data-link-type="dependency" data-source-line="115" id="lnk21"><path codeLine="115" d="M380.83,457.0583 C407.23,493.3083 449.15,547.3283 492,588.2983 C515.99,611.2383 541.0872,630.692 566.5072,648.662" fill="none" id="CallMateTool-to-MateToolClient" style="stroke:#475569;stroke-width:1;stroke-dasharray:7,7;"/><polygon fill="#475569" points="570.59,651.5483,565.5499,643.0868,566.5072,648.662,560.9319,649.6193,570.59,651.5483" style="stroke:#475569;stroke-width:1;stroke-linejoin:miter;stroke-miterlimit:10;"/><text fill="#000000" font-family="sans-serif" font-size="13" lengthAdjust="spacing" textLength="129.6001" x="493" y="584.8666">depends on contract</text></g><!--link ListMateTool to MateToolClient--><g class="link" data-entity-1="ent0003" data-entity-2="ent0008" data-link-type="dependency" data-source-line="116" id="lnk22"><path codeLine="116" d="M631,449.0683 C631,499.2083 631,591.7583 631,646.5383" fill="none" id="ListMateTool-to-MateToolClient" style="stroke:#475569;stroke-width:1;stroke-dasharray:7,7;"/><polygon fill="#475569" points="631,651.5383,635,642.5383,631,646.5383,627,642.5383,631,651.5383" style="stroke:#475569;stroke-width:1;stroke-linejoin:miter;stroke-miterlimit:10;"/><text fill="#000000" font-family="sans-serif" font-size="13" lengthAdjust="spacing" textLength="129.6001" x="632" y="584.8666">depends on contract</text></g><!--link HttpMateToolClient to MateToolClient--><g class="link" data-entity-1="ent0006" data-entity-2="ent0008" data-link-type="extension" data-source-line="117" id="lnk23"><path codeLine="117" d="M1300.49,465.2783 C1208.03,496.5883 1082.24,536.4983 969,563.2983 C880.48,584.2483 851.28,562.0583 767,596.2983 C734.44,609.5283 716.1922,620.6283 691.1822,640.2483" fill="none" id="HttpMateToolClient-to-MateToolClient" style="stroke:#475569;stroke-width:1;stroke-dasharray:7,7;"/><polygon fill="none" points="677.02,651.3583,694.8855,644.969,687.4788,635.5275,677.02,651.3583" style="stroke:#475569;stroke-width:1;stroke-linejoin:miter;stroke-miterlimit:10;"/><text fill="#000000" font-family="sans-serif" font-size="13" lengthAdjust="spacing" textLength="74.0137" x="923.09" y="584.8666">implements</text></g><!--link HttpMateToolClient to MateRestUtil--><g class="link" data-entity-1="ent0006" data-entity-2="ent0014" data-link-type="dependency" data-source-line="118" id="lnk24"><path codeLine="118" d="M1556.82,539.5783 C1567.08,550.2483 1577.26,560.9283 1587,571.2983 C1611.76,597.6583 1635.6693,624.1903 1656.5993,647.7503" fill="none" id="HttpMateToolClient-to-MateRestUtil" style="stroke:#475569;stroke-width:1;stroke-dasharray:7,7;"/><polygon fill="#475569" points="1659.92,651.4883,1656.9331,642.1033,1656.5993,647.7503,1650.9523,647.4165,1659.92,651.4883" style="stroke:#475569;stroke-width:1;stroke-linejoin:miter;stroke-miterlimit:10;"/><text fill="#000000" font-family="sans-serif" font-size="13" lengthAdjust="spacing" textLength="83.4717" x="1602.96" y="584.8666">gateway calls</text></g><!--link HttpMateToolClient to RequestHeaderInfo--><g class="link" data-entity-1="ent0006" data-entity-2="ent0015" data-link-type="dependency" data-source-line="119" id="lnk25"><path codeLine="119" d="M1436,539.5383 C1436,581.6283 1436,620.6083 1436,650.3383" fill="none" id="HttpMateToolClient-to-RequestHeaderInfo" style="stroke:#475569;stroke-width:1;stroke-dasharray:7,7;"/><polygon fill="#475569" points="1436,655.3383,1440,646.3383,1436,650.3383,1432,646.3383,1436,655.3383" style="stroke:#475569;stroke-width:1;stroke-linejoin:miter;stroke-miterlimit:10;"/><text fill="#000000" font-family="sans-serif" font-size="13" lengthAdjust="spacing" textLength="141.7241" x="1437" y="584.8666">credential-free header</text></g><!--link HttpMateToolClient to ToolInfo--><g class="link" data-entity-1="ent0006" data-entity-2="ent0016" data-link-type="dependency" data-source-line="120" id="lnk26"><path codeLine="120" d="M1571.5,477.9683 C1645.05,511.5783 1737.2,554.8583 1818,596.2983 C1848.99,612.1983 1878.2069,628.2286 1907.2669,644.6486" fill="none" id="HttpMateToolClient-to-ToolInfo" style="stroke:#475569;stroke-width:1;stroke-dasharray:7,7;"/><polygon fill="#475569" points="1911.62,647.1083,1905.7521,639.1983,1907.2669,644.6486,1901.8166,646.1634,1911.62,647.1083" style="stroke:#475569;stroke-width:1;stroke-linejoin:miter;stroke-miterlimit:10;"/><text fill="#000000" font-family="sans-serif" font-size="13" lengthAdjust="spacing" textLength="123.627" x="1798.77" y="584.8666">decodes result.data</text></g><!--link HttpMateToolClient to MateCredentials--><g class="link" data-entity-1="ent0006" data-entity-2="ent0010" data-link-type="dependency" data-source-line="121" id="lnk27"><path codeLine="121" d="M1300.68,476.8283 C1228.41,509.8483 1138.61,552.9283 1061,596.2983 C1037.79,609.2683 1017.4659,621.7591 995.2459,636.1591" fill="none" id="HttpMateToolClient-to-MateCredentials" style="stroke:#475569;stroke-width:1;stroke-dasharray:7,7;"/><polygon fill="#475569" points="991.05,638.8783,1000.778,637.3404,995.2459,636.1591,996.4273,630.6269,991.05,638.8783" style="stroke:#475569;stroke-width:1;stroke-linejoin:miter;stroke-miterlimit:10;"/><text fill="#000000" font-family="sans-serif" font-size="13" lengthAdjust="spacing" textLength="128.9907" x="1101.56" y="584.8666">forwards on callTool</text></g><!--link CallMateTool to MateCredentialResolver--><g class="link" data-entity-1="ent0002" data-entity-2="ent0011" data-link-type="dependency" data-source-line="122" id="lnk28"><path codeLine="122" d="M318.97,457.2083 C272.07,512.1183 191.7773,606.1363 149.0373,656.1763" fill="none" id="CallMateTool-to-MateCredentialResolver" style="stroke:#475569;stroke-width:1;stroke-dasharray:7,7;"/><polygon fill="#475569" points="145.79,659.9783,154.6767,655.7326,149.0373,656.1763,148.5936,650.5369,145.79,659.9783" style="stroke:#475569;stroke-width:1;stroke-linejoin:miter;stroke-miterlimit:10;"/><text fill="#000000" font-family="sans-serif" font-size="13" lengthAdjust="spacing" textLength="117.4063" x="216.04" y="584.8666">per-call resolution</text></g><!--link MateToolAutoConfiguration to HttpMateToolClient--><g class="link" data-entity-1="ent0020" data-entity-2="ent0006" data-link-type="dependency" data-source-line="123" id="lnk29"><path codeLine="123" d="M1436,193.6983 C1436,222.4083 1436,253.5283 1436,288.2183" fill="none" id="MateToolAutoConfiguration-to-HttpMateToolClient" style="stroke:#475569;stroke-width:1;stroke-dasharray:7,7;"/><polygon fill="#475569" points="1436,293.2183,1440,284.2183,1436,288.2183,1432,284.2183,1436,293.2183" style="stroke:#475569;stroke-width:1;stroke-linejoin:miter;stroke-miterlimit:10;"/><text fill="#000000" font-family="sans-serif" font-size="13" lengthAdjust="spacing" textLength="84.2651" x="1437" y="239.0066">@Bean wiring</text></g><?plantuml-src jLVRRjj647tNLmoIXr2DASM97JUoOSIN836QDAxbja2BFgou8sbZYiliBYKhQVwzCykxH0KjuBxO8cTshcVF39_0M6ScGi2bafX4EEezWH0MMcOnsc6afKfcePXXui8eLaDhek52g6JuIIm5YHV3I2pIp4QnM1NQNddej8v9q-6GBG9SY3Z-G8-tz1u2WrR7IxmmI4wT4h65kTPtUr2glBd7A7DA9s_k8qpvHt_FstclhAljvBxidOfZI8MrRcvqDflt7oW94YrqCgGp_DJ8fepWmaiWY2agVYPdbAUFBTA9Co9o_Jgf3-X4_jH8_7y9DO_odNFfPgHkfKFhC8KgP5WfGsRsG2LBVPSN5dtv4MwkBnwubjJKk5746xJkLte5GU7oMbjt8rOt-3aZ4GpBKDvYu_K3noITBa8gxBz38T5S9LCDGLIrAfmQH9XaAYOXjPKhbUims651tPN22I1mPx4RyEy2j6ViBLUTg8Jz-yh_-TU0Jrv9ClPBXcOzPY1xqOstCVGlpkiZtjgc3IKVhXx9LCqsC7wMENtX1PaHV1CXUFsRY3E46Mcin1f48W4JcMf524k5czi6wA-DJj4uXOpqWcmcmcAi4Xo1pKWuHwCN-CUN-J1L8JL4XnmeS7UKWtry9GyGd-F-mT7-qT7BW-cF1yzUHC-VlJWwZ0uF3_UVHnFvwcX2vZzEB9ebIfZWN2oLDYEOQ3VFwv-3NHW4woWsgfI5SShG1qj_OdGwiSVrlI1x1KrPif9HZhxDLvSMfXGlDBcdwdtmzirj7zmS4s0cO2Fq06s0LBNQmDOnLEmnrMObZBIvbt1E9KOPIhrAo69zZE9jqybD7h6fGwVwXcosUMf0HivCD5SE8vTHHI9oCADswCpbgRRRwQicCOtrUi4i4ZNXGBPKyeaCKTrNYggTe-EOopo9aOIvoRFhgueK2xC66PRybdGJv-EwHAjc2Oc4rSa8KgCZwbIuel5KzucwD4Md5iY5cYYPfsb9aV7f-tjCjkZbGkNl0Yg1NWs5lHjI5TPzof2EHkZpeGDh2wJ5lUA2WiUH6VHwrDya5KOi2BJHtSnmAXSwrWPMNBw6tCu5zOVXDAKIDoKfdQG-ZjsQoc6eKeBJQ2YS6QDNkTN71qU7XozVzNfEkRW8nYEY8F3tOet6-YjtYIcrYORs6YuLc-Lcz0fdyAYQm11K-8UOZ_SVmTSU05r_kWAjmSol0PwMf1lq_VDZs9xNGJLOw7n_j3NL0BvLBbepkyj5hRfx_lU-DN9hJJi8L38rmZgJvMZUJh9Z4dujKkCANIK9chUhCoafKJk2iMDQA1H4ITxNXDbhWrDrlw5XAzhsBBvJpnKx09D0fTdIULhJJxxRNCczt3mDYKAZv0W_TVReQixiNlDobptxp1xyZ9BsV9sF85bQxLOQvvw2biU64WT_lYRL89zRbI-dMHHmeq_AiNXQ2kkzeZZsdQ1TrNlaujpY8esfGHuZEm5GeBmYbsR_YSFGJ4M4qDd_XohuDeAv871oGlTI6tbwMlZB2q1hZKGR6PKZcmL41PaRHtDYH98I3rUFkTZI28uoO_YwZyKKIQbcjwq0celrLWptxrO-1Ff_bgO_uPf-YypDjL5VH1NGKn1U6FH9_6dbWh8S70fr1HjtjrtaZcbK5hlWaJPvT9QF9TtbOucFtm_LeU-75mOICGqZdIga9j80aQ5EudL_5tXu5UNsLajWap5Qo-a6PxLtr60m6FJR2grbjPJNEMvlcISdbxSVgooB5JFe3_mlwa2ukIgqx5MBQDjCXJN-yRDOu7-2tMw0rTliHjXTgsthPEUI-tqhIdQqZxSF2FBlbWwstxsvvYwAzPLPOw0yzVy-HgEMk2Kjro0x-A7eyAA12tyr5YrQ2PgaKSRXzUB640mgJBQcxs1mkibI8rwxA0g_dPG4rsiDr7zzgcC83WP_TnnMVBrvCRBTPqxRjsDKVGZaA--ECzke7ssY6kPUkCj2XNFEZxvRq3Q_jRuNQvCFH_LohPEAtBixqK5betgZzcpcjvJURiYngOx8Hl3w74LIV7ptUecc4KOVAuw-BFHqeoUCx6guATxg_TQyEGAFIK_MIw4iby8HrBjWU5gREWdRHkXuq16grEIGuYjibtkog_V97h_c3Fu1?></g></svg>