<svg xmlns="http://www.w3.org/2000/svg" xmlns:xlink="http://www.w3.org/1999/xlink" contentStyleType="text/css" data-diagram-type="DESCRIPTION" height="568px" preserveAspectRatio="none" style="width:776px;height:568px;background:#FFFFFF;" version="1.1" viewBox="0 0 776 568" width="776px" zoomAndPan="magnify"><?plantuml 1.2026.6?><defs/><g><g class="title" data-source-line="8"><text fill="#000000" font-family="sans-serif" font-size="14" font-weight="700" lengthAdjust="spacing" textLength="227.3154" x="271.1537" y="23.5352">Managed Agent Tool System v2</text></g><!--entity Runtime--><g class="entity" data-qualified-name="Runtime" data-source-line="10" id="ent0001"><rect fill="#F1F1F1" height="36.4883" rx="2.5" ry="2.5" style="stroke:#181818;stroke-width:0.5;" width="152.2344" x="21.46" y="44.4883"/><text fill="#000000" font-family="sans-serif" font-size="14" lengthAdjust="spacing" textLength="132.2344" x="31.46" y="68.0234">Runtime HTTP Host</text></g><!--entity Cron--><g class="entity" data-qualified-name="Cron" data-source-line="11" id="ent0002"><rect fill="#F1F1F1" height="36.4883" rx="2.5" ry="2.5" style="stroke:#181818;stroke-width:0.5;" width="88.3936" x="507.38" y="44.4883"/><text fill="#000000" font-family="sans-serif" font-size="14" lengthAdjust="spacing" textLength="68.3936" x="517.38" y="68.0234">Cron Host</text></g><!--entity Child--><g class="entity" data-qualified-name="Child" data-source-line="12" id="ent0003"><rect fill="#F1F1F1" height="36.4883" rx="2.5" ry="2.5" style="stroke:#181818;stroke-width:0.5;" width="126.1143" x="300.52" y="44.4883"/><text fill="#000000" font-family="sans-serif" font-size="14" lengthAdjust="spacing" textLength="106.1143" x="310.52" y="68.0234">Child Execution</text></g><!--entity Factory--><g class="entity" data-qualified-name="Factory" data-source-line="13" id="ent0004"><rect fill="#F1F1F1" height="36.4883" rx="2.5" ry="2.5" style="stroke:#181818;stroke-width:0.5;" width="160.3486" x="312.4" y="157.9683"/><text fill="#000000" font-family="sans-serif" font-size="14" lengthAdjust="spacing" textLength="140.3486" x="322.4" y="181.5034">AgentSessionFactory</text></g><!--entity Session--><g class="entity" data-qualified-name="Session" data-source-line="14" id="ent0005"><rect fill="#F1F1F1" height="36.4883" rx="2.5" ry="2.5" style="stroke:#181818;stroke-width:0.5;" width="172.6123" x="20.27" y="281.1783"/><text fill="#000000" font-family="sans-serif" font-size="14" lengthAdjust="spacing" textLength="152.6123" x="30.27" y="304.7134">ManagedAgentSession</text></g><!--entity Assembler--><g class="entity" data-qualified-name="Assembler" data-source-line="15" id="ent0006"><rect fill="#F1F1F1" height="36.4883" rx="2.5" ry="2.5" style="stroke:#181818;stroke-width:0.5;" width="197.2148" x="499.97" y="281.1783"/><text fill="#000000" font-family="sans-serif" font-size="14" lengthAdjust="spacing" textLength="177.2148" x="509.97" y="304.7134">ConfiguredToolAssembler</text></g><!--entity ToolFactory--><g class="entity" data-qualified-name="ToolFactory" data-source-line="16" id="ent0007"><rect fill="#F1F1F1" height="36.4883" rx="2.5" ry="2.5" style="stroke:#181818;stroke-width:0.5;" width="142.1787" x="527.48" y="404.3883"/><text fill="#000000" font-family="sans-serif" font-size="14" lengthAdjust="spacing" textLength="122.1787" x="537.48" y="427.9234">BuiltInToolFactory</text></g><!--entity RuntimeManager--><g class="entity" data-qualified-name="RuntimeManager" data-source-line="17" id="ent0008"><rect fill="#F1F1F1" height="36.4883" rx="2.5" ry="2.5" style="stroke:#181818;stroke-width:0.5;" width="174.9639" x="81.09" y="157.9683"/><text fill="#000000" font-family="sans-serif" font-size="14" lengthAdjust="spacing" textLength="154.9639" x="91.09" y="181.5034">AgentRuntimeManager</text></g><!--entity Mate--><g class="entity" data-qualified-name="Mate" data-source-line="18" id="ent0009"><rect fill="#F1F1F1" height="36.4883" rx="2.5" ry="2.5" style="stroke:#181818;stroke-width:0.5;" width="122.4297" x="537.36" y="517.8783"/><text fill="#000000" font-family="sans-serif" font-size="14" lengthAdjust="spacing" textLength="102.4297" x="547.36" y="541.4134">MateToolClient</text></g><g class="entity" data-qualified-name="GMN20" data-source-line="31" id="ent0021"><path d="M227.76,271.4583 L227.76,295.4283 L193.29,299.4283 L227.76,303.4283 L227.76,327.3899 A0,0 0 0 0 227.76,327.3899 L465.3865,327.3899 A0,0 0 0 0 465.3865,327.3899 L465.3865,281.4583 L455.3865,271.4583 L227.76,271.4583 A0,0 0 0 0 227.76,271.4583" fill="#FEFFDD" style="stroke:#181818;stroke-width:0.5;"/><path d="M455.3865,271.4583 L455.3865,281.4583 L465.3865,281.4583 L455.3865,271.4583" fill="#FEFFDD" style="stroke:#181818;stroke-width:0.5;"/><text fill="#000000" font-family="sans-serif" font-size="13" lengthAdjust="spacing" textLength="159.0405" x="233.76" y="289.0266">Isolated messages, tools,</text><text fill="#000000" font-family="sans-serif" font-size="13" lengthAdjust="spacing" textLength="216.6265" x="233.76" y="304.3372">workspace, hooks, cancel domain,</text><text fill="#000000" font-family="sans-serif" font-size="13" lengthAdjust="spacing" textLength="148.9922" x="233.76" y="319.6477">and Mate session cache</text></g><!--link Runtime to RuntimeManager--><g class="link" data-entity-1="ent0001" data-entity-2="ent0008" data-link-type="dependency" data-source-line="20" id="lnk10"><path d="M50.23,81.4583 C26.74,93.0383 6,109.4283 19.57,127.9683 C34.16,147.8983 52.3969,158.2391 76.0469,165.0791" fill="none" id="Runtime-to-RuntimeManager" style="stroke:#181818;stroke-width:1;"/><polygon fill="#181818" points="80.85,166.4683,73.3157,160.1253,76.0469,165.0791,71.093,167.8103,80.85,166.4683" style="stroke:#181818;stroke-width:1;stroke-linejoin:miter;stroke-miterlimit:10;"/><text fill="#000000" font-family="sans-serif" font-size="13" lengthAdjust="spacing" textLength="104.5078" x="20.57" y="124.5366">prepare(agentId)</text></g><!--link Cron to RuntimeManager--><g class="link" data-entity-1="ent0002" data-entity-2="ent0008" data-link-type="dependency" data-source-line="21" id="lnk11"><path d="M536.75,81.2483 C523.01,96.2283 501.2,117.0383 477.57,127.9683 C467.51,132.6283 349.211,149.9099 261.451,162.2899" fill="none" id="Cron-to-RuntimeManager" style="stroke:#181818;stroke-width:1;"/><polygon fill="#181818" points="256.5,162.9883,265.9705,165.6919,261.451,162.2899,264.853,157.7703,256.5,162.9883" style="stroke:#181818;stroke-width:1;stroke-linejoin:miter;stroke-miterlimit:10;"/><text fill="#000000" font-family="sans-serif" font-size="13" lengthAdjust="spacing" textLength="111.6489" x="505.75" y="124.5366">prepare at trigger</text></g><!--link Child to RuntimeManager--><g class="link" data-entity-1="ent0003" data-entity-2="ent0008" data-link-type="dependency" data-source-line="22" id="lnk12"><path d="M300.08,70.3783 C248.68,77.2283 182.19,89.9283 165.57,110.9683 C155.33,123.9383 156.5723,138.579 160.5823,152.679" fill="none" id="Child-to-RuntimeManager" style="stroke:#181818;stroke-width:1;"/><polygon fill="#181818" points="161.95,157.4883,163.3355,147.7374,160.5823,152.679,155.6406,149.9258,161.95,157.4883" style="stroke:#181818;stroke-width:1;stroke-linejoin:miter;stroke-miterlimit:10;"/><text fill="#000000" font-family="sans-serif" font-size="13" lengthAdjust="spacing" textLength="83.2051" x="166.57" y="124.5366">prepare child</text></g><!--link Runtime to Factory--><g class="link" data-entity-1="ent0001" data-entity-2="ent0004" data-link-type="dependency" data-source-line="23" id="lnk13"><path d="M163.97,81.4183 C192.21,89.5383 225.31,99.8283 254.57,110.9683 C290.75,124.7583 326.2475,141.5629 353.8175,155.3429" fill="none" id="Runtime-to-Factory" style="stroke:#181818;stroke-width:1;"/><polygon fill="#181818" points="358.29,157.5783,352.0279,149.9766,353.8175,155.3429,348.4512,157.1325,358.29,157.5783" style="stroke:#181818;stroke-width:1;stroke-linejoin:miter;stroke-miterlimit:10;"/><text fill="#000000" font-family="sans-serif" font-size="13" lengthAdjust="spacing" textLength="57.04" x="294.2" y="124.5366">RUNTIME</text></g><!--link Cron to Factory--><g class="link" data-entity-1="ent0002" data-entity-2="ent0004" data-link-type="dependency" data-source-line="24" id="lnk14"><path d="M596.18,78.1783 C624.71,89.7883 653.46,107.4983 636.57,127.9683 C616.01,152.8883 541.0002,164.3839 478.1302,169.9939" fill="none" id="Cron-to-Factory" style="stroke:#181818;stroke-width:1;"/><polygon fill="#181818" points="473.15,170.4383,482.4699,173.6225,478.1302,169.9939,481.7589,165.6542,473.15,170.4383" style="stroke:#181818;stroke-width:1;stroke-linejoin:miter;stroke-miterlimit:10;"/><text fill="#000000" font-family="sans-serif" font-size="13" lengthAdjust="spacing" textLength="36.918" x="642.6" y="124.5366">CRON</text></g><!--link Child to Factory--><g class="link" data-entity-1="ent0003" data-entity-2="ent0004" data-link-type="dependency" data-source-line="25" id="lnk15"><path d="M368.1,81.1483 C373.52,101.9683 381.2701,131.7796 386.7201,152.7096" fill="none" id="Child-to-Factory" style="stroke:#181818;stroke-width:1;"/><polygon fill="#181818" points="387.98,157.5483,389.583,147.8308,386.7201,152.7096,381.8412,149.8467,387.98,157.5483" style="stroke:#181818;stroke-width:1;stroke-linejoin:miter;stroke-miterlimit:10;"/><text fill="#000000" font-family="sans-serif" font-size="13" lengthAdjust="spacing" textLength="88.6958" x="380.81" y="124.5366">CHILD_AGENT</text></g><!--link Factory to Session--><g class="link" data-entity-1="ent0004" data-entity-2="ent0005" data-link-type="dependency" data-source-line="26" id="lnk16"><path d="M350.99,194.8383 C296.76,217.8183 207.0637,255.8373 152.8137,278.8273" fill="none" id="Factory-to-Session" style="stroke:#181818;stroke-width:1;"/><polygon fill="#181818" points="148.21,280.7783,158.0574,280.9495,152.8137,278.8273,154.9359,273.5836,148.21,280.7783" style="stroke:#181818;stroke-width:1;stroke-linejoin:miter;stroke-miterlimit:10;"/><text fill="#000000" font-family="sans-serif" font-size="13" lengthAdjust="spacing" textLength="148.7891" x="276.19" y="238.0266">create isolated instance</text></g><!--link Factory to Assembler--><g class="link" data-entity-1="ent0004" data-entity-2="ent0006" data-link-type="dependency" data-source-line="27" id="lnk17"><path d="M422.53,194.8383 C461.58,217.8183 525.2007,255.2526 564.2707,278.2426" fill="none" id="Factory-to-Assembler" style="stroke:#181818;stroke-width:1;"/><polygon fill="#181818" points="568.58,280.7783,562.8518,272.7665,564.2707,278.2426,558.7947,279.6614,568.58,280.7783" style="stroke:#181818;stroke-width:1;stroke-linejoin:miter;stroke-miterlimit:10;"/></g><!--link Assembler to ToolFactory--><g class="link" data-entity-1="ent0006" data-entity-2="ent0007" data-link-type="dependency" data-source-line="28" id="lnk18"><path d="M598.57,318.0483 C598.57,341.0283 598.57,375.9983 598.57,398.9883" fill="none" id="Assembler-to-ToolFactory" style="stroke:#181818;stroke-width:1;"/><polygon fill="#181818" points="598.57,403.9883,602.57,394.9883,598.57,398.9883,594.57,394.9883,598.57,403.9883" style="stroke:#181818;stroke-width:1;stroke-linejoin:miter;stroke-miterlimit:10;"/><text fill="#000000" font-family="sans-serif" font-size="13" lengthAdjust="spacing" textLength="141.5972" x="599.57" y="370.9566">eight-name closed set</text></g><!--link ToolFactory to Mate--><g class="link" data-entity-1="ent0007" data-entity-2="ent0009" data-link-type="dependency" data-source-line="29" id="lnk19"><path d="M598.57,441.0583 C598.57,461.8783 598.57,491.5283 598.57,512.4583" fill="none" id="ToolFactory-to-Mate" style="stroke:#181818;stroke-width:1;"/><polygon fill="#181818" points="598.57,517.4583,602.57,508.4583,598.57,512.4583,594.57,508.4583,598.57,517.4583" style="stroke:#181818;stroke-width:1;stroke-linejoin:miter;stroke-miterlimit:10;"/><text fill="#000000" font-family="sans-serif" font-size="13" lengthAdjust="spacing" textLength="161.0527" x="599.57" y="484.4466">shared client dependency</text></g><?plantuml-src jLJ1Rjim3BtxAuXUkW59ZHPjqkGme7ExDS3Q3crs7XY9iRNAaY79oVBtenGdSRQYjvriaazyvAEeKtYnhHC42_IabQ4f55WthIyqha7OkbO1vEXoSZqQuKWWJKPZ57H-BGXfCRcQZ4dAop5TZI_EwImxtQMZbP9a1AUhhMmr-LnOgKmvn99C60gjSkz4NgCo-IzS8OVhN2HcmSmTEe5pJzuhQ_ARQBriZIyeWdMRitXs0C8H1le_xC5QdIzQfGE3Rsc9hGw5DKjLjexadACttbEzqEIwQh2pkPwdXIUt8WaBgd2bh9j2g0XKtMYgEJi6xWLQxX2i8UWwXUMsErXQ1y-j2Qgc0HJE6avk91ILqXBuE4CQgqpmKVbRygeqm59uQwPGMHz0goM9ZT2SEk26IThWMPfKXA-G6zXphZaf1xWVTjN8fC9pigWHH3NPHdsM-LTb6dHOnylHSD4yah3Xauv4G5DosmS8KqYxPYcv8-qf2oemyW4DIoiXpHEYWl2oyO5gM5rasJujd7Ijm_ry_XtkkPyJrdOdI1yOfJa0edKKJNBT_IRHHhctcEZhWzwuN0dO_VUXNVtz4mdQ_HzHltrH4dnlzGzyZXTjPYAwNqNF_gVeJezjLQulKUSwhZrGJ5PenNO2HrUMxRGU3Z_zTHocq3ZYWTA7j14p-J5BWhy71GmGd2eZ_LR_Tz4YZQDVGzSjOvv_FCvd3tS7paEeU7vwxANl1Uvdtsv_tdozUvndEsz4T2DYnFR90EMjvgy4PNX3-CauWXz6jFzB_juuE1MfiWf3WrovqDQddGfP7nFFH9aPt6sTIFg3f8PCVAescR4STp4LsEN-BW7CTXNMx6BP_20jgHzmR6tTgs_uFHxmkjjN3edOWmPfuzv6I7ml4lLkpmMAYZ9cXSZu1m00?></g></svg>