<svg xmlns="http://www.w3.org/2000/svg" xmlns:xlink="http://www.w3.org/1999/xlink" contentStyleType="text/css" data-diagram-type="DESCRIPTION" height="1330px" preserveAspectRatio="none" style="width:1699px;height:1330px;background:#FFFFFF;" version="1.1" viewBox="0 0 1699 1330" width="1699px" zoomAndPan="magnify"><?plantuml 1.2026.6?><defs/><g><g class="title" data-source-line="83"><text fill="#000000" font-family="sans-serif" font-size="14" font-weight="700" lengthAdjust="spacing" textLength="246.292" x="723.1529" y="23.5352">Assistant safe rich-text rendering</text></g><!--cluster Input--><g class="cluster" data-qualified-name="Input" data-source-line="86" id="ent0001"><rect fill="none" height="129.98" rx="2.5" ry="2.5" style="stroke:#181818;stroke-width:1;" width="744" x="740" y="44.4883"/><text fill="#000000" font-family="sans-serif" font-size="14" font-weight="700" lengthAdjust="spacing" textLength="226.9873" x="998.5063" y="60.0234">Runtime and public event input</text></g><!--cluster Projection--><g class="cluster" data-qualified-name="Projection" data-source-line="92" id="ent0005"><rect fill="none" height="258.08" rx="2.5" ry="2.5" style="stroke:#181818;stroke-width:1;" width="236" x="1022" y="231.4683"/><text fill="#000000" font-family="sans-serif" font-size="14" font-weight="700" lengthAdjust="spacing" textLength="173.3662" x="1053.3169" y="247.0034">Conversation projection</text></g><!--cluster Renderer--><g class="cluster" data-qualified-name="Renderer" data-source-line="97" id="ent0008"><rect fill="none" height="448.82" rx="2.5" ry="2.5" style="stroke:#181818;stroke-width:1;" width="298" x="543" y="546.5483"/><text fill="#000000" font-family="sans-serif" font-size="14" font-weight="700" lengthAdjust="spacing" textLength="165.9629" x="609.0186" y="562.0834">Safe rich-text renderer</text></g><!--cluster UI--><g class="cluster" data-qualified-name="UI" data-source-line="103" id="ent0012"><rect fill="none" height="129.98" rx="2.5" ry="2.5" style="stroke:#181818;stroke-width:1;" width="1495" x="7" y="1044.3683"/><text fill="#000000" font-family="sans-serif" font-size="14" font-weight="700" lengthAdjust="spacing" textLength="154.8408" x="677.0796" y="1059.9034">Assistant message UI</text></g><!--entity Delta--><g class="entity" data-qualified-name="Input.Delta" data-source-line="87" id="ent0002"><rect fill="#F1F1F1" height="62.9766" rx="2.5" ry="2.5" style="stroke:#181818;stroke-width:0.5;" width="201.9707" x="783.01" y="87.4883"/><rect fill="#F1F1F1" height="10" style="stroke:#181818;stroke-width:0.5;" width="15" x="964.9807" y="92.4883"/><rect fill="#F1F1F1" height="2" style="stroke:#181818;stroke-width:0.5;" width="4" x="962.9807" y="94.4883"/><rect fill="#F1F1F1" height="2" style="stroke:#181818;stroke-width:0.5;" width="4" x="962.9807" y="98.4883"/><text fill="#000000" font-family="sans-serif" font-size="14" lengthAdjust="spacing" textLength="161.9707" x="798.01" y="121.0234">assistant.message.delta</text><text fill="#000000" font-family="sans-serif" font-size="14" lengthAdjust="spacing" textLength="93.4199" x="798.01" y="137.5117">text fragment</text></g><!--entity Completed--><g class="entity" data-qualified-name="Input.Completed" data-source-line="88" id="ent0003"><rect fill="#F1F1F1" height="62.9766" rx="2.5" ry="2.5" style="stroke:#181818;stroke-width:0.5;" width="239.6914" x="1020.15" y="87.4883"/><rect fill="#F1F1F1" height="10" style="stroke:#181818;stroke-width:0.5;" width="15" x="1239.8414" y="92.4883"/><rect fill="#F1F1F1" height="2" style="stroke:#181818;stroke-width:0.5;" width="4" x="1237.8414" y="94.4883"/><rect fill="#F1F1F1" height="2" style="stroke:#181818;stroke-width:0.5;" width="4" x="1237.8414" y="98.4883"/><text fill="#000000" font-family="sans-serif" font-size="14" lengthAdjust="spacing" textLength="199.6914" x="1035.15" y="121.0234">assistant.message.completed</text><text fill="#000000" font-family="sans-serif" font-size="14" lengthAdjust="spacing" textLength="125.2686" x="1035.15" y="137.5117">full persistent text</text></g><!--entity History--><g class="entity" data-qualified-name="Input.History" data-source-line="89" id="ent0004"><rect fill="#F1F1F1" height="62.9766" rx="2.5" ry="2.5" style="stroke:#181818;stroke-width:0.5;" width="165.2686" x="1294.37" y="87.4883"/><rect fill="#F1F1F1" height="10" style="stroke:#181818;stroke-width:0.5;" width="15" x="1439.6386" y="92.4883"/><rect fill="#F1F1F1" height="2" style="stroke:#181818;stroke-width:0.5;" width="4" x="1437.6386" y="94.4883"/><rect fill="#F1F1F1" height="2" style="stroke:#181818;stroke-width:0.5;" width="4" x="1437.6386" y="98.4883"/><text fill="#000000" font-family="sans-serif" font-size="14" lengthAdjust="spacing" textLength="77.7383" x="1309.37" y="121.0234">GET history</text><text fill="#000000" font-family="sans-serif" font-size="14" lengthAdjust="spacing" textLength="125.2686" x="1309.37" y="137.5117">full persistent text</text></g><!--entity Raw--><g class="entity" data-qualified-name="Projection.Raw" data-source-line="93" id="ent0006"><rect fill="#F1F1F1" height="62.9766" rx="2.5" ry="2.5" style="stroke:#181818;stroke-width:0.5;" width="202.0664" x="1038.97" y="266.4683"/><rect fill="#F1F1F1" height="10" style="stroke:#181818;stroke-width:0.5;" width="15" x="1221.0364" y="271.4683"/><rect fill="#F1F1F1" height="2" style="stroke:#181818;stroke-width:0.5;" width="4" x="1219.0364" y="273.4683"/><rect fill="#F1F1F1" height="2" style="stroke:#181818;stroke-width:0.5;" width="4" x="1219.0364" y="277.4683"/><text fill="#000000" font-family="sans-serif" font-size="14" lengthAdjust="spacing" textLength="94.7803" x="1053.97" y="300.0034">Assistant turn</text><text fill="#000000" font-family="sans-serif" font-size="14" lengthAdjust="spacing" textLength="162.0664" x="1053.97" y="316.4917">rawMarkdown and state</text></g><!--entity Stable--><g class="entity" data-qualified-name="Projection.Stable" data-source-line="94" id="ent0007"><rect fill="#F1F1F1" height="62.9766" rx="2.5" ry="2.5" style="stroke:#181818;stroke-width:0.5;" width="204.5273" x="1037.74" y="410.5783"/><rect fill="#F1F1F1" height="10" style="stroke:#181818;stroke-width:0.5;" width="15" x="1222.2673" y="415.5783"/><rect fill="#F1F1F1" height="2" style="stroke:#181818;stroke-width:0.5;" width="4" x="1220.2673" y="417.5783"/><rect fill="#F1F1F1" height="2" style="stroke:#181818;stroke-width:0.5;" width="4" x="1220.2673" y="421.5783"/><text fill="#000000" font-family="sans-serif" font-size="14" lengthAdjust="spacing" textLength="151.2109" x="1052.74" y="444.1134">Stable block boundary</text><text fill="#000000" font-family="sans-serif" font-size="14" lengthAdjust="spacing" textLength="164.5273" x="1052.74" y="460.6017">plus plain streaming tail</text></g><!--entity Parser--><g class="entity" data-qualified-name="Renderer.Parser" data-source-line="98" id="ent0009"><rect fill="#F1F1F1" height="62.9766" rx="2.5" ry="2.5" style="stroke:#181818;stroke-width:0.5;" width="219.2861" x="578.36" y="589.5483"/><rect fill="#F1F1F1" height="10" style="stroke:#181818;stroke-width:0.5;" width="15" x="777.6461" y="594.5483"/><rect fill="#F1F1F1" height="2" style="stroke:#181818;stroke-width:0.5;" width="4" x="775.6461" y="596.5483"/><rect fill="#F1F1F1" height="2" style="stroke:#181818;stroke-width:0.5;" width="4" x="775.6461" y="600.5483"/><text fill="#000000" font-family="sans-serif" font-size="14" lengthAdjust="spacing" textLength="179.2861" x="593.36" y="623.0834">markdown-it token parser</text><text fill="#000000" font-family="sans-serif" font-size="14" lengthAdjust="spacing" textLength="128.9668" x="593.36" y="639.5717">raw HTML disabled</text></g><!--entity Policy--><g class="entity" data-qualified-name="Renderer.Policy" data-source-line="99" id="ent0010"><rect fill="#F1F1F1" height="62.9766" rx="2.5" ry="2.5" style="stroke:#181818;stroke-width:0.5;" width="241.5918" x="567.2" y="748.9683"/><rect fill="#F1F1F1" height="10" style="stroke:#181818;stroke-width:0.5;" width="15" x="788.7918" y="753.9683"/><rect fill="#F1F1F1" height="2" style="stroke:#181818;stroke-width:0.5;" width="4" x="786.7918" y="755.9683"/><rect fill="#F1F1F1" height="2" style="stroke:#181818;stroke-width:0.5;" width="4" x="786.7918" y="759.9683"/><text fill="#000000" font-family="sans-serif" font-size="14" lengthAdjust="spacing" textLength="95.6621" x="582.2" y="782.5034">Node allowlist</text><text fill="#000000" font-family="sans-serif" font-size="14" lengthAdjust="spacing" textLength="201.5918" x="582.2" y="798.9917">URL policy and render budget</text></g><!--entity Vue--><g class="entity" data-qualified-name="Renderer.Vue" data-source-line="100" id="ent0011"><rect fill="#F1F1F1" height="62.9766" rx="2.5" ry="2.5" style="stroke:#181818;stroke-width:0.5;" width="204.9102" x="566.54" y="908.3883"/><rect fill="#F1F1F1" height="10" style="stroke:#181818;stroke-width:0.5;" width="15" x="751.4502" y="913.3883"/><rect fill="#F1F1F1" height="2" style="stroke:#181818;stroke-width:0.5;" width="4" x="749.4502" y="915.3883"/><rect fill="#F1F1F1" height="2" style="stroke:#181818;stroke-width:0.5;" width="4" x="749.4502" y="919.3883"/><text fill="#000000" font-family="sans-serif" font-size="14" lengthAdjust="spacing" textLength="123.0947" x="581.54" y="941.9234">Fixed Vue VNodes</text><text fill="#000000" font-family="sans-serif" font-size="14" lengthAdjust="spacing" textLength="164.9102" x="581.54" y="958.4117">no v-html or innerHTML</text></g><!--entity Prose--><g class="entity" data-qualified-name="UI.Prose" data-source-line="104" id="ent0013"><rect fill="#F1F1F1" height="62.9766" rx="2.5" ry="2.5" style="stroke:#181818;stroke-width:0.5;" width="196.6797" x="30.66" y="1087.3683"/><rect fill="#F1F1F1" height="10" style="stroke:#181818;stroke-width:0.5;" width="15" x="207.3397" y="1092.3683"/><rect fill="#F1F1F1" height="2" style="stroke:#181818;stroke-width:0.5;" width="4" x="205.3397" y="1094.3683"/><rect fill="#F1F1F1" height="2" style="stroke:#181818;stroke-width:0.5;" width="4" x="205.3397" y="1098.3683"/><text fill="#000000" font-family="sans-serif" font-size="14" lengthAdjust="spacing" textLength="150.6777" x="45.66" y="1120.9034">Paragraphs, headings,</text><text fill="#000000" font-family="sans-serif" font-size="14" lengthAdjust="spacing" textLength="156.6797" x="45.66" y="1137.3917">lists, tasks, and quotes</text></g><!--entity Table--><g class="entity" data-qualified-name="UI.Table" data-source-line="105" id="ent0014"><rect fill="#F1F1F1" height="46.4883" rx="2.5" ry="2.5" style="stroke:#181818;stroke-width:0.5;" width="208.8887" x="262.56" y="1095.6083"/><rect fill="#F1F1F1" height="10" style="stroke:#181818;stroke-width:0.5;" width="15" x="451.4487" y="1100.6083"/><rect fill="#F1F1F1" height="2" style="stroke:#181818;stroke-width:0.5;" width="4" x="449.4487" y="1102.6083"/><rect fill="#F1F1F1" height="2" style="stroke:#181818;stroke-width:0.5;" width="4" x="449.4487" y="1106.6083"/><text fill="#000000" font-family="sans-serif" font-size="14" lengthAdjust="spacing" textLength="168.8887" x="277.56" y="1129.1434">Scrollable semantic table</text></g><!--entity Code--><g class="entity" data-qualified-name="UI.Code" data-source-line="106" id="ent0015"><rect fill="#F1F1F1" height="46.4883" rx="2.5" ry="2.5" style="stroke:#181818;stroke-width:0.5;" width="221.8291" x="506.09" y="1095.6083"/><rect fill="#F1F1F1" height="10" style="stroke:#181818;stroke-width:0.5;" width="15" x="707.9191" y="1100.6083"/><rect fill="#F1F1F1" height="2" style="stroke:#181818;stroke-width:0.5;" width="4" x="705.9191" y="1102.6083"/><rect fill="#F1F1F1" height="2" style="stroke:#181818;stroke-width:0.5;" width="4" x="705.9191" y="1106.6083"/><text fill="#000000" font-family="sans-serif" font-size="14" lengthAdjust="spacing" textLength="181.8291" x="521.09" y="1129.1434">Inline code and code block</text></g><!--entity Link--><g class="entity" data-qualified-name="UI.Link" data-source-line="107" id="ent0016"><rect fill="#F1F1F1" height="46.4883" rx="2.5" ry="2.5" style="stroke:#181818;stroke-width:0.5;" width="157.6602" x="763.17" y="1095.6083"/><rect fill="#F1F1F1" height="10" style="stroke:#181818;stroke-width:0.5;" width="15" x="900.8302" y="1100.6083"/><rect fill="#F1F1F1" height="2" style="stroke:#181818;stroke-width:0.5;" width="4" x="898.8302" y="1102.6083"/><rect fill="#F1F1F1" height="2" style="stroke:#181818;stroke-width:0.5;" width="4" x="898.8302" y="1106.6083"/><text fill="#000000" font-family="sans-serif" font-size="14" lengthAdjust="spacing" textLength="117.6602" x="778.17" y="1129.1434">Safe external link</text></g><!--entity Fallback--><g class="entity" data-qualified-name="UI.Fallback" data-source-line="108" id="ent0017"><rect fill="#F1F1F1" height="46.4883" rx="2.5" ry="2.5" style="stroke:#181818;stroke-width:0.5;" width="225.0625" x="955.47" y="1095.6083"/><rect fill="#F1F1F1" height="10" style="stroke:#181818;stroke-width:0.5;" width="15" x="1160.5325" y="1100.6083"/><rect fill="#F1F1F1" height="2" style="stroke:#181818;stroke-width:0.5;" width="4" x="1158.5325" y="1102.6083"/><rect fill="#F1F1F1" height="2" style="stroke:#181818;stroke-width:0.5;" width="4" x="1158.5325" y="1106.6083"/><text fill="#000000" font-family="sans-serif" font-size="14" lengthAdjust="spacing" textLength="185.0625" x="970.47" y="1129.1434">Escaped plain-text fallback</text></g><!--entity RoundCopy--><g class="entity" data-qualified-name="UI.RoundCopy" data-source-line="109" id="ent0018"><rect fill="#F1F1F1" height="46.4883" rx="2.5" ry="2.5" style="stroke:#181818;stroke-width:0.5;" width="242.7539" x="1215.62" y="1095.6083"/><rect fill="#F1F1F1" height="10" style="stroke:#181818;stroke-width:0.5;" width="15" x="1438.3739" y="1100.6083"/><rect fill="#F1F1F1" height="2" style="stroke:#181818;stroke-width:0.5;" width="4" x="1436.3739" y="1102.6083"/><rect fill="#F1F1F1" height="2" style="stroke:#181818;stroke-width:0.5;" width="4" x="1436.3739" y="1106.6083"/><text fill="#000000" font-family="sans-serif" font-size="14" lengthAdjust="spacing" textLength="202.7539" x="1230.62" y="1129.1434">One Agent-round copy action</text></g><g class="entity" data-qualified-name="GMN32" data-source-line="127" id="ent0033"><path d="M536.65,262.3383 L536.65,333.5805 L959.3424,333.5805 L959.3424,272.3383 L949.3424,262.3383 L536.65,262.3383" fill="#FEFFDD" style="stroke:#181818;stroke-width:0.5;"/><path d="M949.3424,262.3383 L949.3424,272.3383 L959.3424,272.3383 L949.3424,262.3383" fill="#FEFFDD" style="stroke:#181818;stroke-width:1;"/><text fill="#000000" font-family="sans-serif" font-size="13" lengthAdjust="spacing" textLength="165.458" x="542.65" y="279.9066">Observed source contract:</text><text fill="#000000" font-family="sans-serif" font-size="13" lengthAdjust="spacing" textLength="208.4189" x="542.65" y="295.2172">- Runtime carries text, not HTML</text><text fill="#000000" font-family="sans-serif" font-size="13" lengthAdjust="spacing" textLength="263.1294" x="542.65" y="310.5277">- Completed and history are authoritative</text><text fill="#000000" font-family="sans-serif" font-size="13" lengthAdjust="spacing" textLength="401.6924" x="542.65" y="325.8383">- Tool result and safe thinking disclosure use separate UI paths</text></g><g class="entity" data-qualified-name="GMN35" data-source-line="134" id="ent0036"><path d="M865.49,729.5283 L865.49,831.3916 L1204.5139,831.3916 L1204.5139,739.5283 L1194.5139,729.5283 L865.49,729.5283" fill="#FEFFDD" style="stroke:#181818;stroke-width:0.5;"/><path d="M1194.5139,729.5283 L1194.5139,739.5283 L1204.5139,739.5283 L1194.5139,729.5283" fill="#FEFFDD" style="stroke:#181818;stroke-width:1;"/><text fill="#000000" font-family="sans-serif" font-size="13" lengthAdjust="spacing" textLength="88.9434" x="871.49" y="747.0966">Security rules:</text><text fill="#000000" font-family="sans-serif" font-size="13" lengthAdjust="spacing" textLength="121.2148" x="871.49" y="762.4072">- Escape raw HTML</text><text fill="#000000" font-family="sans-serif" font-size="13" lengthAdjust="spacing" textLength="277.9067" x="871.49" y="777.7177">- Allow only absolute HTTP and HTTPS links</text><text fill="#000000" font-family="sans-serif" font-size="13" lengthAdjust="spacing" textLength="270.7974" x="871.49" y="793.0283">- Block Markdown image network requests</text><text fill="#000000" font-family="sans-serif" font-size="13" lengthAdjust="spacing" textLength="238.5386" x="871.49" y="808.3388">- Clamp headings inside the message</text><text fill="#000000" font-family="sans-serif" font-size="13" lengthAdjust="spacing" textLength="318.0239" x="871.49" y="823.6494">- Preserve source text for fallback and round copy</text></g><g class="entity" data-qualified-name="GMN38" data-source-line="143" id="ent0039"><path d="M1303.4,1229.3483 L1303.4,1315.901 L1684.5978,1315.901 L1684.5978,1239.3483 L1674.5978,1229.3483 L1303.4,1229.3483" fill="#FEFFDD" style="stroke:#181818;stroke-width:0.5;"/><path d="M1674.5978,1229.3483 L1674.5978,1239.3483 L1684.5978,1239.3483 L1674.5978,1229.3483" fill="#FEFFDD" style="stroke:#181818;stroke-width:1;"/><text fill="#000000" font-family="sans-serif" font-size="13" lengthAdjust="spacing" textLength="217.439" x="1309.4" y="1246.9166">Responsive and accessibility rules:</text><text fill="#000000" font-family="sans-serif" font-size="13" lengthAdjust="spacing" textLength="324.6128" x="1309.4" y="1262.2272">- Only table and code containers scroll horizontally</text><text fill="#000000" font-family="sans-serif" font-size="13" lengthAdjust="spacing" textLength="360.1978" x="1309.4" y="1277.5377">- The page and composer never gain horizontal overflow</text><text fill="#000000" font-family="sans-serif" font-size="13" lengthAdjust="spacing" textLength="352.6187" x="1309.4" y="1292.8483">- Screen readers receive one completion announcement</text><text fill="#000000" font-family="sans-serif" font-size="13" lengthAdjust="spacing" textLength="321.7817" x="1309.4" y="1308.1588">- A completed Agent round exposes one copy icon</text></g><!--link Delta to Raw--><g class="link" data-entity-1="ent0002" data-entity-2="ent0006" data-link-type="dependency" data-source-line="112" id="lnk19"><path d="M921.42,150.7683 C945.38,170.0483 977.43,195.0183 1007,215.4683 C1032.62,233.1783 1057.7667,248.8555 1082.4267,263.5755" fill="none" id="Delta-to-Raw" style="stroke:#181818;stroke-width:1;"/><polygon fill="#181818" points="1086.72,266.1383,1081.0423,258.0907,1082.4267,263.5755,1076.9419,264.96,1086.72,266.1383" style="stroke:#181818;stroke-width:1;stroke-linejoin:miter;stroke-miterlimit:10;"/><text fill="#000000" font-family="sans-serif" font-size="13" lengthAdjust="spacing" textLength="122.1035" x="1008" y="212.0366">append source text</text></g><!--link Completed to Raw--><g class="link" data-entity-1="ent0003" data-entity-2="ent0006" data-link-type="dependency" data-source-line="113" id="lnk20"><path d="M1139.51,150.9183 C1139.31,165.3683 1139.1,182.7983 1139,198.4683 C1138.86,221.2083 1139.0528,241.9089 1139.3528,261.3489" fill="none" id="Completed-to-Raw" style="stroke:#181818;stroke-width:1;"/><polygon fill="#181818" points="1139.43,266.3483,1143.2907,257.2876,1139.3528,261.3489,1135.2916,257.4111,1139.43,266.3483" style="stroke:#181818;stroke-width:1;stroke-linejoin:miter;stroke-miterlimit:10;"/><text fill="#000000" font-family="sans-serif" font-size="13" lengthAdjust="spacing" textLength="190.0107" x="1140" y="212.0366">replace preview with authority</text></g><!--link History to Raw--><g class="link" data-entity-1="ent0004" data-entity-2="ent0006" data-link-type="dependency" data-source-line="114" id="lnk21"><path d="M1369.96,150.5283 C1363.8,171.1983 1352.96,197.8283 1335,215.4683 C1309.21,240.7883 1279.0795,256.9171 1245.9995,269.3671" fill="none" id="History-to-Raw" style="stroke:#181818;stroke-width:1;"/><polygon fill="#181818" points="1241.32,271.1283,1251.1521,271.7018,1245.9995,269.3671,1248.3342,264.2145,1241.32,271.1283" style="stroke:#181818;stroke-width:1;stroke-linejoin:miter;stroke-miterlimit:10;"/><text fill="#000000" font-family="sans-serif" font-size="13" lengthAdjust="spacing" textLength="181.251" x="1348.52" y="212.0366">restore the same source text</text></g><!--link Raw to Stable--><g class="link" data-entity-1="ent0006" data-entity-2="ent0007" data-link-type="dependency" data-source-line="115" id="lnk22"><path d="M1127.12,329.7483 C1122.23,344.9383 1118.4,363.6083 1121,380.5783 C1122.5,390.3683 1123.777,395.9859 1126.767,405.3359" fill="none" id="Raw-to-Stable" style="stroke:#181818;stroke-width:1;"/><polygon fill="#181818" points="1128.29,410.0983,1129.3586,400.3076,1126.767,405.3359,1121.7387,402.7443,1128.29,410.0983" style="stroke:#181818;stroke-width:1;stroke-linejoin:miter;stroke-miterlimit:10;"/><text fill="#000000" font-family="sans-serif" font-size="13" lengthAdjust="spacing" textLength="162.6904" x="1122" y="377.1466">once per animation frame</text></g><!--link Stable to Parser--><g class="link" data-entity-1="ent0007" data-entity-2="ent0009" data-link-type="dependency" data-source-line="116" id="lnk23"><path d="M1037.42,458.2583 C968.33,471.1783 876.57,493.6683 802,530.5483 C771.55,545.6183 745.2416,566.3392 723.6416,585.7192" fill="none" id="Stable-to-Parser" style="stroke:#181818;stroke-width:1;"/><polygon fill="#181818" points="719.92,589.0583,729.2902,586.0252,723.6416,585.7192,723.9476,580.0706,719.92,589.0583" style="stroke:#181818;stroke-width:1;stroke-linejoin:miter;stroke-miterlimit:10;"/><text fill="#000000" font-family="sans-serif" font-size="13" lengthAdjust="spacing" textLength="163.9282" x="855.21" y="519.1166">stable blocks and safe tail</text></g><!--link Parser to Policy--><g class="link" data-entity-1="ent0009" data-entity-2="ent0010" data-link-type="dependency" data-source-line="117" id="lnk24"><path d="M688,652.7683 C688,680.4183 688,715.8383 688,743.5483" fill="none" id="Parser-to-Policy" style="stroke:#181818;stroke-width:1;"/><polygon fill="#181818" points="688,748.5483,692,739.5483,688,743.5483,684,739.5483,688,748.5483" style="stroke:#181818;stroke-width:1;stroke-linejoin:miter;stroke-miterlimit:10;"/><text fill="#000000" font-family="sans-serif" font-size="13" lengthAdjust="spacing" textLength="89.229" x="689" y="696.0966">parsed tokens</text></g><!--link Policy to Vue--><g class="link" data-entity-1="ent0010" data-entity-2="ent0011" data-link-type="dependency" data-source-line="118" id="lnk25"><path d="M684.09,812.1983 C682.22,827.0583 679.96,845.1483 678,861.3883 C676.15,876.7183 674.7306,888.8009 673.1006,902.9909" fill="none" id="Policy-to-Vue" style="stroke:#181818;stroke-width:1;"/><polygon fill="#181818" points="672.53,907.9583,677.5309,899.4736,673.1006,902.9909,669.5832,898.5606,672.53,907.9583" style="stroke:#181818;stroke-width:1;stroke-linejoin:miter;stroke-miterlimit:10;"/><text fill="#000000" font-family="sans-serif" font-size="13" lengthAdjust="spacing" textLength="182.9585" x="679" y="874.9566">allowed nodes and attributes</text></g><!--link Policy to Fallback--><g class="link" data-entity-1="ent0010" data-entity-2="ent0017" data-link-type="dependency" data-source-line="119" id="lnk26"><path d="M778.73,812.2583 C808.27,824.7983 840.1,841.1683 866,861.3883 C954.68,930.6283 1024.7862,1042.3604 1052.9262,1091.0004" fill="none" id="Policy-to-Fallback" style="stroke:#181818;stroke-width:1;"/><polygon fill="#181818" points="1055.43,1095.3283,1054.3854,1085.535,1052.9262,1091.0004,1047.4608,1089.5411,1055.43,1095.3283" style="stroke:#181818;stroke-width:1;stroke-linejoin:miter;stroke-miterlimit:10;"/><text fill="#000000" font-family="sans-serif" font-size="13" lengthAdjust="spacing" textLength="148.2686" x="1000.9" y="944.9466">rejected or over budget</text></g><!--link Vue to Prose--><g class="link" data-entity-1="ent0011" data-entity-2="ent0013" data-link-type="dependency" data-source-line="120" id="lnk27"><path d="M566.46,948.9683 C477.99,958.9483 348.49,980.8683 245,1028.3683 C213.33,1042.9083 186.06,1064.1674 164.08,1083.9074" fill="none" id="Vue-to-Prose" style="stroke:#181818;stroke-width:1;"/><polygon fill="#181818" points="160.36,1087.2483,169.7287,1084.2107,164.08,1083.9074,164.3833,1078.2587,160.36,1087.2483" style="stroke:#181818;stroke-width:1;stroke-linejoin:miter;stroke-miterlimit:10;"/></g><!--link Vue to Table--><g class="link" data-entity-1="ent0011" data-entity-2="ent0014" data-link-type="dependency" data-source-line="121" id="lnk28"><path d="M598.22,971.6783 C564.4,987.2983 523.81,1007.3783 489,1028.3683 C455.03,1048.8483 422.611,1073.2057 398.511,1092.2757" fill="none" id="Vue-to-Table" style="stroke:#181818;stroke-width:1;"/><polygon fill="#181818" points="394.59,1095.3783,404.1298,1092.9304,398.511,1092.2757,399.1656,1086.6568,394.59,1095.3783" style="stroke:#181818;stroke-width:1;stroke-linejoin:miter;stroke-miterlimit:10;"/></g><!--link Vue to Code--><g class="link" data-entity-1="ent0011" data-entity-2="ent0015" data-link-type="dependency" data-source-line="122" id="lnk29"><path d="M659.94,971.7083 C649.58,1006.9683 634.2791,1059.0509 625.0591,1090.4409" fill="none" id="Vue-to-Code" style="stroke:#181818;stroke-width:1;"/><polygon fill="#181818" points="623.65,1095.2383,630.0242,1087.7303,625.0591,1090.4409,622.3485,1085.4758,623.65,1095.2383" style="stroke:#181818;stroke-width:1;stroke-linejoin:miter;stroke-miterlimit:10;"/></g><!--link Vue to Link--><g class="link" data-entity-1="ent0011" data-entity-2="ent0016" data-link-type="dependency" data-source-line="123" id="lnk30"><path d="M699.13,971.7083 C733.6,1006.9683 785.7151,1060.2725 816.3951,1091.6625" fill="none" id="Vue-to-Link" style="stroke:#181818;stroke-width:1;"/><polygon fill="#181818" points="819.89,1095.2383,816.4598,1086.0061,816.3951,1091.6625,810.7387,1091.5978,819.89,1095.2383" style="stroke:#181818;stroke-width:1;stroke-linejoin:miter;stroke-miterlimit:10;"/></g><!--link Raw to RoundCopy--><g class="link" data-entity-1="ent0006" data-entity-2="ent0018" data-link-type="dependency" data-source-line="124" id="lnk31"><path d="M1241.46,328.3983 C1259.21,337.3283 1276.09,348.8283 1289,363.5783 C1312.58,390.5083 1311,405.2683 1311,441.0683 C1311,441.0683 1311,441.0683 1311,940.8783 C1311,996.9383 1322.8198,1057.0531 1330.4398,1090.5131" fill="none" id="Raw-to-RoundCopy" style="stroke:#181818;stroke-width:1;"/><polygon fill="#181818" points="1331.55,1095.3883,1333.4517,1085.7248,1330.4398,1090.5131,1325.6514,1087.5012,1331.55,1095.3883" style="stroke:#181818;stroke-width:1;stroke-linejoin:miter;stroke-miterlimit:10;"/><text fill="#000000" font-family="sans-serif" font-size="13" lengthAdjust="spacing" textLength="252.8779" x="1312" y="696.0966">aggregate Assistant source by User turn</text></g><!--link Input to GMN32--><g class="link" data-entity-1="ent0001" data-entity-2="ent0033" data-link-type="association" data-source-line="127" id="lnk34"><path d="M748,174.9852 C748,175.4368 748,175.8897 748,176.344 C748,177.2525 748,178.1663 748,179.0848 C748,180.9219 748,182.778 748,184.6494 C748,188.3923 748,192.1967 748,196.0328 C748,203.705 748,211.5045 748,219.1941 C748,234.5733 748,249.5133 748,262.1183" fill="none" id="Input-GMN32" style="stroke:#181818;stroke-width:1;stroke-dasharray:7,7;"/></g><!--link Renderer to GMN35--><g class="link" data-entity-1="ent0008" data-entity-2="ent0036" data-link-type="association" data-source-line="134" id="lnk37"><path d="M841.0169,628.2858 C841.4209,628.6005 841.8387,628.926 842.27,629.262 C843.995,630.6061 845.9352,632.1178 848.0686,633.7802 C856.6022,640.4295 868.2269,649.4883 881.5338,659.8583 C908.1475,680.5983 941.49,706.5833 970.29,729.0283" fill="none" id="Renderer-GMN35" style="stroke:#181818;stroke-width:1;stroke-dasharray:7,7;"/></g><!--link UI to GMN38--><g class="link" data-entity-1="ent0012" data-entity-2="ent0039" data-link-type="association" data-source-line="143" id="lnk40"><path d="M1494,1174.8593 C1494,1175.2225 1494,1175.5864 1494,1175.9509 C1494,1181.7832 1494,1187.7831 1494,1193.7992 C1494,1205.8314 1494,1217.9283 1494,1228.8783" fill="none" id="UI-GMN38" style="stroke:#181818;stroke-width:1;stroke-dasharray:7,7;"/></g><?plantuml-src bLTBSzis4BxpLs1oIJDZsKcSfm-TSHodyKnIU_p8oHU8N4ceG801GCbAf_-ztov8cfBhDZsP0XRx-hvz-AawTjfkVb2becz3IMgg8rdZw4ZvOER67TJQE5NIErsze9b-zRvyz_pbuU7hvzCtxofwII-gDxF3LszVltsZzSlN-yLJzQ7Je6XbAd8bLCs2TubSTH13UL3wkl6EN8e79zwjA4ITZ7VNffPd-wkM57z4TVXsykgzQYEyQooxaUWkAGDLeV5MNlsCmIRuFwXCFiI3qBe4EwShcB_eZ_TJL9tCSOmc9ksIIE2K8eKLx5TaarRQLOhTjvHmnjwm_JC-g24_P777WLg7PUNNxY2OSd7Dhs3nbqQ7I8F1hvtCdefwHgTtY178V35kYPF6cdILzDHIB_RifmoFKZqOkXpxyE1qJmKyfl2xhwZ_Fi7t1-lBvSyP7QMx7E5xwLjNHR4w3xvjjh1lWulF9BsF-Z_77z711Fc_qJzAj0ScOzfOsYzZLBhFpOHXcmZtM3om4nDTiYuLMakHlJcVTaoPqaAlZ0z7wZAJJQMWNMnyGEYY9EYqeA3IGZlr-VhhbxqTNX5p3vIqRLGBkE33Hka0NzkqG54cHB6I31o7Sc4ISjtYjeIwEL80tMg0LU7AAUVNQadKH9XUzmmIezfQ9ldAq7glzm1XPOzwsmtyZLo62jdiE4617RYYieL36xNG0PLdtFo8JNHH1Qfz8ZKODBMUK-HpAo5m9XCVb87mEXbj9rFI0MhKpUMNcBseE2n8HXNB1V2EoY510Nc6lqXAAQe-ddzzD2EbRpOgunKbaN26WSAXKyAhZEaMC7mrPF7K9UJ11wYgq2Av5jZQHufc3WwGZjuTAOrh27fhkJdu9Rb9yfDlO5bN4aoOMYyHGWqzLab58qmBCx5dGSKfrXLVgRK1uYrG36rCd1OuI_0I-dEArmjZErWaWewLUkLD1RIf8H7k_09HYsII7HE4kusw9tX65wQAv1i4eQO-9L-hoeGSG57m1n8BBKzwXhFdJJkrfipaHOzkslG49QJE-4lzMIWrbADwCfJMFl2COCM-zDTR9pxCWfvpNSlxZtpnNw-7shbrivOfZLg724kpHb5qqijiA_ljzBed-hyy_fmbYh-smXztbH76ykBY7lATuBUByzRjrYJk4ecEIxtUVffdG2OWa07YcjsMJf4dP4mWJyrKITfOqP8VxRX-zK-mKyXckn-xZlTZR69IfhUI4HOa124aQ1BPM9LJ8BVREdYkSDVnQoRzhKETAynoKsvoRnNJQjfMSygPlv3BRIMVp1r8pONrZVN5M-UyMaqMgRPSfCQXIDWTKG2ndTZl0UZuesxEHFJcR3TaXA3dGJSBbES2LOd4nhrRrnLiqd7PrUtt5gqkziX7si6jvAuWs4MgOHc58gZ8Wsl1P-l1cPE5Hhh1q1O4zexBrQu5nfEwhO7Nfop8-yEsu6aiTTClL1dy6V2Owaxrf-x7zgjpE2ETSfBxpAYbPihmwGaEETLIiceo-PK9hD0NcuRSi62ooM8enf4OkfNL9VNpI9hVCFCsHLU2Mm_uX6JYHOqsDBR08YpQbGpMMSUwGIxjC8YaCD5eQYew2HREZ8Lm71LQp5N92UQQAZeXaS_CFSg5q3NzM7J7BC4aFSg4nxrZjkR1cr8mKnv_O-a--H8Sjm-y0Q7zQgY9WXMAQM5P_ojJgFybzEX_20NwR0muiLFpUQ0vUiru6dJ_16pK3SV83Qee74_nRWxuMUxenR3lT4zan80HHyLaM7nA7OAXlFNi8VWaJG82z_2Fzum7Emuahxst37HhqmY61MBY7eTsKreVUTZpUX89E710A6HPMWhc7Rl_88Y-nnN32YER77kVAsJOOt1opF21G1O-JgEtW0rNrnVY4NzSISL5YCgUlBFoO659Qn-MYEDx2ywot8dLTJEq5BIiY7zTXCbTJuBCHVVVnvZNQWO-z0LxluvAGJuUxSrPSKbOGM5bbHkABalOCLDZjs8_vnWpzuUsmyYYLs3GOGFZFgOOeHzyQks6COBN3SVPhx6UkPEtj3aFfNjveV8CsSGpD4KYsPugreq6JUoTbxxNRwBGwH1WAOi-Gp7QayUh6zsnrTYz1hyDt1uIyZS0?></g></svg>