<svg xmlns="http://www.w3.org/2000/svg" xmlns:xlink="http://www.w3.org/1999/xlink" contentStyleType="text/css" data-diagram-type="DESCRIPTION" height="714px" preserveAspectRatio="none" style="width:1813px;height:714px;background:#FFFFFF;" version="1.1" viewBox="0 0 1813 714" width="1813px" zoomAndPan="magnify"><?plantuml 1.2026.6?><defs/><g><g class="title" data-source-line="13"><text fill="#000000" font-family="sans-serif" font-size="14" font-weight="700" lengthAdjust="spacing" textLength="441.3896" x="682.6098" y="23.5352">CampusClaw debug workbench and future product boundary</text></g><!--cluster Frontend--><g class="cluster" data-qualified-name="Frontend" data-source-line="17" id="ent0002"><rect fill="none" height="295" rx="2.5" ry="2.5" style="stroke:#181818;stroke-width:1;" width="779.06" x="497.9" y="405.4183"/><text fill="#000000" font-family="sans-serif" font-size="14" font-weight="700" lengthAdjust="spacing" textLength="190.0322" x="792.4139" y="420.9534">Internal debug workbench</text></g><!--cluster Mate--><g class="cluster" data-qualified-name="Mate" data-source-line="24" id="ent0007"><rect fill="none" height="149" rx="2.5" ry="2.5" style="stroke:#181818;stroke-width:1;" width="1248.91" x="35.29" y="169.4183"/><text fill="#000000" font-family="sans-serif" font-size="14" font-weight="700" lengthAdjust="spacing" textLength="181.6719" x="568.9091" y="184.9534">Future production bridge</text><text fill="#000000" font-family="sans-serif" font-size="14" font-weight="700" lengthAdjust="spacing" textLength="89.2227" x="615.1337" y="201.4417">(target only)</text></g><!--cluster Runtime--><g class="cluster" data-qualified-name="Runtime" data-source-line="30" id="ent0011"><rect fill="none" height="214" rx="2.5" ry="2.5" style="stroke:#181818;stroke-width:1;" width="225.86" x="1498.97" y="332.4183"/><text fill="#000000" font-family="sans-serif" font-size="14" font-weight="700" lengthAdjust="spacing" textLength="181.3027" x="1521.2486" y="347.9534">CampusClaw Runtime V1</text></g><!--entity Workspace--><g class="entity" data-qualified-name="Frontend.Workspace" data-source-line="18" id="ent0003"><rect fill="#F1F1F1" height="46.4883" rx="2.5" ry="2.5" style="stroke:#181818;stroke-width:0.5;" width="211.4658" x="547.02" y="549.1783"/><rect fill="#F1F1F1" height="10" style="stroke:#181818;stroke-width:0.5;" width="15" x="738.4858" y="554.1783"/><rect fill="#F1F1F1" height="2" style="stroke:#181818;stroke-width:0.5;" width="4" x="736.4858" y="556.1783"/><rect fill="#F1F1F1" height="2" style="stroke:#181818;stroke-width:0.5;" width="4" x="736.4858" y="560.1783"/><text fill="#000000" font-family="sans-serif" font-size="14" lengthAdjust="spacing" textLength="171.4658" x="562.02" y="582.7134">Agent session workspace</text></g><!--entity Projector--><g class="entity" data-qualified-name="Frontend.Projector" data-source-line="19" id="ent0004"><rect fill="#F1F1F1" height="46.4883" rx="2.5" ry="2.5" style="stroke:#181818;stroke-width:0.5;" width="192.0791" x="556.71" y="468.1783"/><rect fill="#F1F1F1" height="10" style="stroke:#181818;stroke-width:0.5;" width="15" x="728.7891" y="473.1783"/><rect fill="#F1F1F1" height="2" style="stroke:#181818;stroke-width:0.5;" width="4" x="726.7891" y="475.1783"/><rect fill="#F1F1F1" height="2" style="stroke:#181818;stroke-width:0.5;" width="4" x="726.7891" y="479.1783"/><text fill="#000000" font-family="sans-serif" font-size="14" lengthAdjust="spacing" textLength="152.0791" x="571.71" y="501.7134">Debug event projector</text></g><!--entity DirectAdapter--><g class="entity" data-qualified-name="Frontend.DirectAdapter" data-source-line="20" id="ent0005"><rect fill="#F1F1F1" height="46.4883" rx="2.5" ry="2.5" style="stroke:#181818;stroke-width:0.5;" width="194.4375" x="1058.53" y="526.1783"/><rect fill="#F1F1F1" height="10" style="stroke:#181818;stroke-width:0.5;" width="15" x="1232.9675" y="531.1783"/><rect fill="#F1F1F1" height="2" style="stroke:#181818;stroke-width:0.5;" width="4" x="1230.9675" y="533.1783"/><rect fill="#F1F1F1" height="2" style="stroke:#181818;stroke-width:0.5;" width="4" x="1230.9675" y="537.1783"/><text fill="#000000" font-family="sans-serif" font-size="14" lengthAdjust="spacing" textLength="154.4375" x="1073.53" y="559.7134">Direct runtime adapter</text></g><!--entity Diagnostics--><g class="entity" data-qualified-name="Frontend.Diagnostics" data-source-line="21" id="ent0006"><rect fill="#F1F1F1" height="46.4883" rx="2.5" ry="2.5" style="stroke:#181818;stroke-width:0.5;" width="261.6963" x="521.9" y="630.1783"/><rect fill="#F1F1F1" height="10" style="stroke:#181818;stroke-width:0.5;" width="15" x="763.5963" y="635.1783"/><rect fill="#F1F1F1" height="2" style="stroke:#181818;stroke-width:0.5;" width="4" x="761.5963" y="637.1783"/><rect fill="#F1F1F1" height="2" style="stroke:#181818;stroke-width:0.5;" width="4" x="761.5963" y="641.1783"/><text fill="#000000" font-family="sans-serif" font-size="14" lengthAdjust="spacing" textLength="221.6963" x="536.9" y="663.7134">Headers and session diagnostics</text></g><!--entity PublicApi--><g class="entity" data-qualified-name="Mate.PublicApi" data-source-line="25" id="ent0008"><rect fill="#F1F1F1" height="46.4883" rx="2.5" ry="2.5" style="stroke:#181818;stroke-width:0.5;" width="139.6201" x="59.29" y="248.1783"/><rect fill="#F1F1F1" height="10" style="stroke:#181818;stroke-width:0.5;" width="15" x="178.9101" y="253.1783"/><rect fill="#F1F1F1" height="2" style="stroke:#181818;stroke-width:0.5;" width="4" x="176.9101" y="255.1783"/><rect fill="#F1F1F1" height="2" style="stroke:#181818;stroke-width:0.5;" width="4" x="176.9101" y="259.1783"/><text fill="#000000" font-family="sans-serif" font-size="14" lengthAdjust="spacing" textLength="99.6201" x="74.29" y="281.7134">Public chat API</text></g><!--entity Mapping--><g class="entity" data-qualified-name="Mate.Mapping" data-source-line="26" id="ent0009"><rect fill="#F1F1F1" height="46.4883" rx="2.5" ry="2.5" style="stroke:#181818;stroke-width:0.5;" width="208.9023" x="1051.29" y="248.1783"/><rect fill="#F1F1F1" height="10" style="stroke:#181818;stroke-width:0.5;" width="15" x="1240.1923" y="253.1783"/><rect fill="#F1F1F1" height="2" style="stroke:#181818;stroke-width:0.5;" width="4" x="1238.1923" y="255.1783"/><rect fill="#F1F1F1" height="2" style="stroke:#181818;stroke-width:0.5;" width="4" x="1238.1923" y="259.1783"/><text fill="#000000" font-family="sans-serif" font-size="14" lengthAdjust="spacing" textLength="168.9023" x="1066.29" y="281.7134">Chat to session mapping</text></g><!--entity Policy--><g class="entity" data-qualified-name="Mate.Policy" data-source-line="27" id="ent0010"><rect fill="#F1F1F1" height="46.4883" rx="2.5" ry="2.5" style="stroke:#181818;stroke-width:0.5;" width="269.7832" x="517.86" y="248.1783"/><rect fill="#F1F1F1" height="10" style="stroke:#181818;stroke-width:0.5;" width="15" x="767.6432" y="253.1783"/><rect fill="#F1F1F1" height="2" style="stroke:#181818;stroke-width:0.5;" width="4" x="765.6432" y="255.1783"/><rect fill="#F1F1F1" height="2" style="stroke:#181818;stroke-width:0.5;" width="4" x="765.6432" y="259.1783"/><text fill="#000000" font-family="sans-serif" font-size="14" lengthAdjust="spacing" textLength="229.7832" x="532.86" y="281.7134">Auth, policy, and event projection</text></g><!--entity Sessions--><g class="entity" data-qualified-name="Runtime.Sessions" data-source-line="31" id="ent0012"><rect fill="#F1F1F1" height="46.4883" rx="2.5" ry="2.5" style="stroke:#181818;stroke-width:0.5;" width="168.1602" x="1527.82" y="476.1783"/><rect fill="#F1F1F1" height="10" style="stroke:#181818;stroke-width:0.5;" width="15" x="1675.9802" y="481.1783"/><rect fill="#F1F1F1" height="2" style="stroke:#181818;stroke-width:0.5;" width="4" x="1673.9802" y="483.1783"/><rect fill="#F1F1F1" height="2" style="stroke:#181818;stroke-width:0.5;" width="4" x="1673.9802" y="487.1783"/><text fill="#000000" font-family="sans-serif" font-size="14" lengthAdjust="spacing" textLength="128.1602" x="1542.82" y="509.7134">Session controllers</text></g><!--entity Stream--><g class="entity" data-qualified-name="Runtime.Stream" data-source-line="32" id="ent0013"><rect fill="#F1F1F1" height="46.4883" rx="2.5" ry="2.5" style="stroke:#181818;stroke-width:0.5;" width="177.8535" x="1522.97" y="395.1783"/><rect fill="#F1F1F1" height="10" style="stroke:#181818;stroke-width:0.5;" width="15" x="1680.8235" y="400.1783"/><rect fill="#F1F1F1" height="2" style="stroke:#181818;stroke-width:0.5;" width="4" x="1678.8235" y="402.1783"/><rect fill="#F1F1F1" height="2" style="stroke:#181818;stroke-width:0.5;" width="4" x="1678.8235" y="406.1783"/><text fill="#000000" font-family="sans-serif" font-size="14" lengthAdjust="spacing" textLength="137.8535" x="1537.97" y="428.7134">Request-scoped SSE</text></g><!--entity Developer--><g class="entity" data-qualified-name="Developer" data-source-line="16" id="ent0001"><ellipse cx="129.098" cy="542.6783" fill="#F1F1F1" rx="8" ry="8" style="stroke:#181818;stroke-width:0.5;"/><path d="M129.098,550.6783 L129.098,577.6783 M116.098,558.6783 L142.098,558.6783 M129.098,577.6783 L116.098,592.6783 M129.098,577.6783 L142.098,592.6783" fill="none" style="stroke:#181818;stroke-width:0.5;"/><text fill="#000000" font-family="sans-serif" font-size="14" lengthAdjust="spacing" textLength="127.4561" x="65.37" y="607.7134">Runtime developer</text></g><g class="entity" data-qualified-name="GMN24" data-source-line="47" id="ent0025"><path d="M454.2,43.4883 L454.2,145.3516 L851.2923,145.3516 L851.2923,53.4883 L841.2923,43.4883 L454.2,43.4883" fill="#FEFFDD" style="stroke:#181818;stroke-width:0.5;"/><path d="M841.2923,43.4883 L841.2923,53.4883 L851.2923,53.4883 L841.2923,43.4883" fill="#FEFFDD" style="stroke:#181818;stroke-width:1;"/><text fill="#000000" font-family="sans-serif" font-size="13" lengthAdjust="spacing" textLength="192.8291" x="460.2" y="61.0566">Debug workbench constraints:</text><text fill="#000000" font-family="sans-serif" font-size="13" lengthAdjust="spacing" textLength="265.0718" x="460.2" y="76.3672">- No Service URL or fixed credential mode</text><text fill="#000000" font-family="sans-serif" font-size="13" lengthAdjust="spacing" textLength="376.0923" x="460.2" y="91.6777">- Raw thinking and bounded raw tool arguments are visible</text><text fill="#000000" font-family="sans-serif" font-size="13" lengthAdjust="spacing" textLength="354.1294" x="460.2" y="106.9883">- Tool arguments may contain IDs, paths, or credentials</text><text fill="#000000" font-family="sans-serif" font-size="13" lengthAdjust="spacing" textLength="353.2852" x="460.2" y="122.2988">- ETag, JSON, and SSE frames are not persistent main UI</text><text fill="#000000" font-family="sans-serif" font-size="13" lengthAdjust="spacing" textLength="279.6396" x="460.2" y="137.6094">- This is not a production security boundary</text></g><g class="entity" data-qualified-name="GMN27" data-source-line="56" id="ent0028"><path d="M6,59.1383 L6,145.691 L252.2021,145.691 L252.2021,69.1383 L242.2021,59.1383 L6,59.1383" fill="#FEFFDD" style="stroke:#181818;stroke-width:0.5;"/><path d="M242.2021,59.1383 L242.2021,69.1383 L252.2021,69.1383 L242.2021,59.1383" fill="#FEFFDD" style="stroke:#181818;stroke-width:1;"/><text fill="#000000" font-family="sans-serif" font-size="13" lengthAdjust="spacing" textLength="121.9194" x="12" y="76.7066">Security hardening:</text><text fill="#000000" font-family="sans-serif" font-size="13" lengthAdjust="spacing" textLength="225.2021" x="12" y="92.0172">- Terminate browser authentication</text><text fill="#000000" font-family="sans-serif" font-size="13" lengthAdjust="spacing" textLength="149.2461" x="12" y="107.3277">- Authorize each action</text><text fill="#000000" font-family="sans-serif" font-size="13" lengthAdjust="spacing" textLength="221.5649" x="12" y="122.6383">- Project internal errors and events</text><text fill="#000000" font-family="sans-serif" font-size="13" lengthAdjust="spacing" textLength="219.4131" x="12" y="137.9488">- Do not byte-forward internal SSE</text></g><g class="entity" data-qualified-name="GMN30" data-source-line="64" id="ent0031"><path d="M1425.2,236.7983 L1425.2,308.0405 L1798.6092,308.0405 L1798.6092,246.7983 L1788.6092,236.7983 L1425.2,236.7983" fill="#FEFFDD" style="stroke:#181818;stroke-width:0.5;"/><path d="M1788.6092,236.7983 L1788.6092,246.7983 L1798.6092,246.7983 L1788.6092,236.7983" fill="#FEFFDD" style="stroke:#181818;stroke-width:1;"/><text fill="#000000" font-family="sans-serif" font-size="13" lengthAdjust="spacing" textLength="171.812" x="1431.2" y="254.3666">Observed internal contract:</text><text fill="#000000" font-family="sans-serif" font-size="13" lengthAdjust="spacing" textLength="207.2891" x="1431.2" y="269.6772">- 11 Session Runtime operations</text><text fill="#000000" font-family="sans-serif" font-size="13" lengthAdjust="spacing" textLength="219.8384" x="1431.2" y="284.9877">- One active execution per Session</text><text fill="#000000" font-family="sans-serif" font-size="13" lengthAdjust="spacing" textLength="352.4092" x="1431.2" y="300.2983">- Persistent Entry history plus transient progress events</text></g><!--link Developer to Workspace--><g class="link" data-entity-1="ent0001" data-entity-2="ent0003" data-link-type="dependency" data-source-line="35" id="lnk14"><path d="M193.28,572.4183 C281.03,572.4183 435.92,572.4183 541.76,572.4183" fill="none" id="Developer-to-Workspace" style="stroke:#181818;stroke-width:1;"/><polygon fill="#181818" points="546.76,572.4183,537.76,568.4183,541.76,572.4183,537.76,576.4183,546.76,572.4183" style="stroke:#181818;stroke-width:1;stroke-linejoin:miter;stroke-miterlimit:10;"/><text fill="#000000" font-family="sans-serif" font-size="13" lengthAdjust="spacing" textLength="140.5435" x="283.2" y="568.9866">inspect and steer runs</text></g><!--link Workspace to DirectAdapter--><g class="link" data-entity-1="ent0003" data-entity-2="ent0005" data-link-type="dependency" data-source-line="36" id="lnk15"><path d="M758.77,567.5983 C847.15,563.5383 967.4953,558.0175 1053.3453,554.0775" fill="none" id="Workspace-to-DirectAdapter" style="stroke:#181818;stroke-width:1;"/><polygon fill="#181818" points="1058.34,553.8483,1049.1661,550.2651,1053.3453,554.0775,1049.5328,558.2567,1058.34,553.8483" style="stroke:#181818;stroke-width:1;stroke-linejoin:miter;stroke-miterlimit:10;"/><text fill="#000000" font-family="sans-serif" font-size="13" lengthAdjust="spacing" textLength="138.252" x="882.29" y="552.1566">internal HTTP and SSE</text></g><!--link DirectAdapter to Sessions--><g class="link" data-entity-1="ent0005" data-entity-2="ent0012" data-link-type="dependency" data-source-line="37" id="lnk16"><path d="M1253.34,538.7883 C1334.73,529.8283 1445.0001,517.6856 1522.4501,509.1556" fill="none" id="DirectAdapter-to-Sessions" style="stroke:#181818;stroke-width:1;"/><polygon fill="#181818" points="1527.42,508.6083,1518.0362,505.6176,1522.4501,509.1556,1518.912,513.5695,1527.42,508.6083" style="stroke:#181818;stroke-width:1;stroke-linejoin:miter;stroke-miterlimit:10;"/></g><!--link Workspace to PublicApi--><g class="link" data-entity-1="ent0003" data-entity-2="ent0008" data-link-type="dependency" data-source-line="38" id="lnk17"><path d="M546.58,573.5383 C512.96,568.5683 478.27,556.9683 454.2,532.4183 C402.03,479.1883 473.21,423.5783 424.2,367.4183 C394.45,333.3283 281.332,303.5979 204.142,286.5279" fill="none" id="Workspace-to-PublicApi" style="stroke:#181818;stroke-width:1;stroke-dasharray:7,7;"/><polygon fill="#181818" points="199.26,285.4483,207.184,291.2973,204.142,286.5279,208.9114,283.486,199.26,285.4483" style="stroke:#181818;stroke-width:1;stroke-linejoin:miter;stroke-miterlimit:10;"/><text fill="#000000" font-family="sans-serif" font-size="13" lengthAdjust="spacing" textLength="124.1157" x="291.2" y="303.1466">future product path</text></g><!--link PublicApi to Policy--><g class="link" data-entity-1="ent0008" data-entity-2="ent0010" data-link-type="dependency" data-source-line="39" id="lnk18"><path d="M199.37,271.4183 C280.23,271.4183 410.82,271.4183 512.52,271.4183" fill="none" id="PublicApi-to-Policy" style="stroke:#181818;stroke-width:1;"/><polygon fill="#181818" points="517.52,271.4183,508.52,267.4183,512.52,271.4183,508.52,275.4183,517.52,271.4183" style="stroke:#181818;stroke-width:1;stroke-linejoin:miter;stroke-miterlimit:10;"/></g><!--link Policy to Mapping--><g class="link" data-entity-1="ent0010" data-entity-2="ent0009" data-link-type="dependency" data-source-line="40" id="lnk19"><path d="M788.01,271.4183 C870.61,271.4183 969.89,271.4183 1046.11,271.4183" fill="none" id="Policy-to-Mapping" style="stroke:#181818;stroke-width:1;"/><polygon fill="#181818" points="1051.11,271.4183,1042.11,267.4183,1046.11,271.4183,1042.11,275.4183,1051.11,271.4183" style="stroke:#181818;stroke-width:1;stroke-linejoin:miter;stroke-miterlimit:10;"/></g><!--link Mapping to Sessions--><g class="link" data-entity-1="ent0009" data-entity-2="ent0012" data-link-type="dependency" data-source-line="41" id="lnk20"><path d="M1246.87,295.0983 C1265.33,302.0283 1284.04,310.7083 1300.2,321.4183 C1369.19,367.1183 1353.52,418.0483 1425.2,459.4183 C1456.05,477.2283 1488.9859,486.3192 1522.4659,491.8092" fill="none" id="Mapping-to-Sessions" style="stroke:#181818;stroke-width:1;"/><polygon fill="#181818" points="1527.4,492.6183,1519.1659,487.2146,1522.4659,491.8092,1517.8713,495.1092,1527.4,492.6183" style="stroke:#181818;stroke-width:1;stroke-linejoin:miter;stroke-miterlimit:10;"/><text fill="#000000" font-family="sans-serif" font-size="13" lengthAdjust="spacing" textLength="85.5474" x="1309.2" y="326.2666">internal HTTP</text></g><!--link Stream to Policy--><g class="link" data-entity-1="ent0013" data-entity-2="ent0010" data-link-type="dependency" data-source-line="42" id="lnk21"><path d="M1522.55,405.7583 C1491.74,401.2883 1456.93,396.1883 1425.2,391.4183 C1201.53,357.7583 946.5987,317.7787 792.7587,293.4687" fill="none" id="Stream-to-Policy" style="stroke:#181818;stroke-width:1;"/><polygon fill="#181818" points="787.82,292.6883,796.0854,298.044,792.7587,293.4687,797.334,290.1421,787.82,292.6883" style="stroke:#181818;stroke-width:1;stroke-linejoin:miter;stroke-miterlimit:10;"/><text fill="#000000" font-family="sans-serif" font-size="13" lengthAdjust="spacing" textLength="118.3013" x="1096.75" y="331.2766">internal SSE events</text></g><!--link Policy to Projector--><g class="link" data-entity-1="ent0010" data-entity-2="ent0004" data-link-type="dependency" data-source-line="43" id="lnk22"><path d="M517.4,277.7183 C417.28,288.4983 304.83,317.1983 345.63,392.9183 C385,465.9983 476.7818,487.1247 551.2618,492.2547" fill="none" id="Policy-to-Projector" style="stroke:#181818;stroke-width:1;"/><polygon fill="#181818" points="556.25,492.5983,547.5461,487.9893,551.2618,492.2547,546.9964,495.9704,556.25,492.5983" style="stroke:#181818;stroke-width:1;stroke-linejoin:miter;stroke-miterlimit:10;"/><text fill="#000000" font-family="sans-serif" font-size="13" lengthAdjust="spacing" textLength="113.4326" x="296.7" y="389.4866">public safe events</text></g><!--link Diagnostics to Sessions--><g class="link" data-entity-1="ent0006" data-entity-2="ent0012" data-link-type="dependency" data-source-line="44" id="lnk23"><path d="M783.9,654.1583 C915.43,652.5783 1123.86,643.6783 1300.2,607.4183 C1392.91,588.3583 1491.2087,550.6311 1552.2387,525.0511" fill="none" id="Diagnostics-to-Sessions" style="stroke:#181818;stroke-width:1;stroke-dasharray:7,7;"/><polygon fill="#181818" points="1556.85,523.1183,1547.0034,522.9082,1552.2387,525.0511,1550.0958,530.2864,1556.85,523.1183" style="stroke:#181818;stroke-width:1;stroke-linejoin:miter;stroke-miterlimit:10;"/><text fill="#000000" font-family="sans-serif" font-size="13" lengthAdjust="spacing" textLength="135.9795" x="1088.25" y="603.9866">local diagnostics only</text></g><!--link Frontend to GMN24--><g class="link" data-entity-1="ent0002" data-entity-2="ent0025" data-link-type="association" data-source-line="47" id="lnk26"><path d="M520.4734,405.3515 C518.4735,404.7054 516.467,404.0444 514.4554,403.3682 C510.432,402.0159 506.3878,400.6029 502.3326,399.1268 C494.2224,396.1744 486.0685,392.9693 477.9516,389.4907 C461.7177,382.5337 445.6314,374.4831 430.3359,365.1748 C399.745,346.5583 372.3175,322.9108 353.2,292.9183 C311.37,227.2883 381.44,178.4883 464.28,145.6983" fill="none" id="Frontend-GMN24" style="stroke:#181818;stroke-width:1;stroke-dasharray:7,7;"/></g><!--link Mate to GMN27--><g class="link" data-entity-1="ent0007" data-entity-2="ent0028" data-link-type="association" data-source-line="56" id="lnk29"><path d="M129.1,169.2441 C129.1,169.1587 129.1,169.0732 129.1,168.9877 C129.1,168.8167 129.1,168.6457 129.1,168.4748 C129.1,167.7909 129.1,167.107 129.1,166.4231 C129.1,165.0553 129.1,163.6876 129.1,162.3198 C129.1,156.8489 129.1,151.3783 129.1,145.9083" fill="none" id="Mate-GMN27" style="stroke:#181818;stroke-width:1;stroke-dasharray:7,7;"/></g><!--link Runtime to GMN30--><g class="link" data-entity-1="ent0011" data-entity-2="ent0031" data-link-type="association" data-source-line="64" id="lnk32"><path d="M1611.9,332.2447 C1611.9,332.1793 1611.9,332.1138 1611.9,332.0484 C1611.9,331.5252 1611.9,331.0019 1611.9,330.4786 C1611.9,329.432 1611.9,328.3854 1611.9,327.3389 C1611.9,325.2457 1611.9,323.1525 1611.9,321.0592 C1611.9,316.8727 1611.9,312.6858 1611.9,308.4983" fill="none" id="Runtime-GMN30" style="stroke:#181818;stroke-width:1;stroke-dasharray:7,7;"/></g><?plantuml-src lLRRRjj647tdLmpyaWIGh3gE6zi50gYsWxXe4qDssfU-B9SZQHEIo-uk9Qj5_xrdbalgaXZfGr70CCNbNCwSkUqp-b7fprmNv6thD5EkF9UcvakopYnCFQcKgQbWVltTnLoVdRygYjSlNnOl-U8LvwVd9wUdv_d5nUllpoxuz4mTPy_ehRDr48kDux5UgdhnNrYzx-3noXHSQnYQ9pSJx_HasZJ7gvRfkNQi0j-pzyRM8tBisshxwjkyCc44PBPeTI2_vB9yyMtpsbQDzIelsKzQpxEs3gRYQMEEWwVdUoVYyu-MVPYfzOYqhIC0p__22r1zOXsiynFNsRjPSHtk-kFeB0dDTWJyrsrNY540QrkOUZ5M2uYETMcYB-5_yacjbCGsqQfgMgzBjKxIKRX7eHepMNC-IJuJcrT0xcnPiZiME_yhX1ZsLm1yo3sx5HUKyrAjZ7MN59PC1XoxMfMqjkvp3cXBqgeiFILpzEi95SQ1rd932fNha19sdfnQmu2fFmCFDMNhARSjFXNT5sjBKcw112C9uly1Rnp6jeQTWhrPr1s0L6zWZJxU4kh5awAcpKkZANUcMF0FKQv2xOub10CQfqB0YAwM2l-d8IYzhEA984pAB4H8bGMdDCgZi5JRGFneVA0D1m4rTNff0e9h7LFNZnqgtJedwdqHaW6iUijMmNcxs78sYgRLRZ2UOSE4JKUBSXlnTnq31uVAMyIVCWXhAovj8xJM30Rv4OXZ7gXHJbKChtv4wwKf6LxcRSIxpvmF1kAYdf0Mt4Yg44JFvW0a2oR0qbMigolKrM4yaSTzDuDwLl8y8C64QRKCgJW08ikKT28TpGwZEYBb4NfwoqGUJ0F0qUqJV4QDOLZ-bH75CLDBD4Sn-U0tjbhKyOtI77L-wz_sLQwZ-QuYXb4I5OO9Sg0GeneIf0hLX3wG-6dQdUnhlMCLUqFOw_4LHYrgY-nedzI7z-plR9UCjr-ajQl_t-ld8JOFIVEyY5P-GJSSydBNfHbb76XwTzk55yymU_T5fN4aXJt8IZKD-ZYPZhyFE6y3YhonCBRfkcoFJDZet4M1WxXsocmxLA9u_teGI9gYNU_6ATPHbyxzllIisobZhr5T1TtVttJ20LrM2PIXycWyVhEj4Bf4a_X6qXpp5HWIIBZFjYAYi9Vlg9Hgzjt3mrrKXSjiNqhq1hHRSyV7RxOPWQc33cjKM6RRxs8a4TezuacVdlJSStM8Bkj8sB6qAm7ONHRzhlsX8I2Q1eTNS-ubTyetXhFZkhHQEdb7GEerop0QSSkn8TYAx7new-pwOER8XG2p6lZyPJQcznR6kt7_SVOpBaSqDuz8CAunCjKCV667CYHdkwj84lBq9i8lffNn1lSLQ3xiVwpK9XQTNC1khp5n9IDumFVMguVUpODQZEYd-m_lHtq5O5LWK7SEP1d8DCUcaHAD5xgFj-9lYJs2lszlYqm6dp3t1N_I-jbzBxzK3hWGk53smAuojOo6tDarbYKfzAt0rYgEw3598-EU-ISIgcJEwtIUqhwj3dREfb6MKZ-cwsw5vXkiuhbrQ_ZUAwUdGQTEpuPRoA3MBsZ1VtBIrzCm6gHl8tRn_w7cY7W5z8zW858dZPsq98ujxJSm38BmPl6CLnHughr9Wsk16x3lW-kH_mC0?></g></svg>