<svg xmlns="http://www.w3.org/2000/svg" xmlns:xlink="http://www.w3.org/1999/xlink" contentStyleType="text/css" data-diagram-type="DESCRIPTION" height="1258px" preserveAspectRatio="none" style="width:1582px;height:1258px;background:#FFFFFF;" version="1.1" viewBox="0 0 1582 1258" width="1582px" zoomAndPan="magnify"><?plantuml 1.2026.6?><defs/><g><g class="title" data-source-line="172"><text fill="#000000" font-family="sans-serif" font-size="14" font-weight="700" lengthAdjust="spacing" textLength="289.625" x="642.7816" y="23.5352">Runtime events to product UI projection</text></g><!--cluster Events--><g class="cluster" data-qualified-name="Events" data-source-line="175" id="ent0001"><rect fill="none" height="539" rx="2.5" ry="2.5" style="stroke:#181818;stroke-width:1;" width="271.69" x="17.87" y="388.8783"/><text fill="#000000" font-family="sans-serif" font-size="14" font-weight="700" lengthAdjust="spacing" textLength="166.25" x="70.59" y="404.4134">Runtime event families</text></g><!--cluster Projection--><g class="cluster" data-qualified-name="Projection" data-source-line="183" id="ent0007"><rect fill="none" height="357" rx="2.5" ry="2.5" style="stroke:#181818;stroke-width:1;" width="882.23" x="608.66" y="626.8783"/><text fill="#000000" font-family="sans-serif" font-size="14" font-weight="700" lengthAdjust="spacing" textLength="142.7617" x="978.3941" y="642.4134">Frontend projection</text></g><!--cluster Controls--><g class="cluster" data-qualified-name="Controls" data-source-line="194" id="ent0016"><rect fill="none" height="293" rx="2.5" ry="2.5" style="stroke:#181818;stroke-width:1;" width="293.43" x="7" y="951.8783"/><text fill="#000000" font-family="sans-serif" font-size="14" font-weight="700" lengthAdjust="spacing" textLength="201.1816" x="53.1242" y="967.4134">User controls while running</text></g><!--entity UserEvent--><g class="entity" data-qualified-name="Events.UserEvent" data-source-line="176" id="ent0002"><rect fill="#F1F1F1" height="46.4883" rx="2.5" ry="2.5" style="stroke:#181818;stroke-width:0.5;" width="133.1875" x="87.12" y="652.6383"/><rect fill="#F1F1F1" height="10" style="stroke:#181818;stroke-width:0.5;" width="15" x="200.3075" y="657.6383"/><rect fill="#F1F1F1" height="2" style="stroke:#181818;stroke-width:0.5;" width="4" x="198.3075" y="659.6383"/><rect fill="#F1F1F1" height="2" style="stroke:#181818;stroke-width:0.5;" width="4" x="198.3075" y="663.6383"/><text fill="#000000" font-family="sans-serif" font-size="14" lengthAdjust="spacing" textLength="93.1875" x="102.12" y="686.1734">user.message</text></g><!--entity AssistantEvents--><g class="entity" data-qualified-name="Events.AssistantEvents" data-source-line="177" id="ent0003"><rect fill="#F1F1F1" height="79.4648" rx="2.5" ry="2.5" style="stroke:#181818;stroke-width:0.5;" width="239.6914" x="33.87" y="424.1483"/><rect fill="#F1F1F1" height="10" style="stroke:#181818;stroke-width:0.5;" width="15" x="253.5614" y="429.1483"/><rect fill="#F1F1F1" height="2" style="stroke:#181818;stroke-width:0.5;" width="4" x="251.5614" y="431.1483"/><rect fill="#F1F1F1" height="2" style="stroke:#181818;stroke-width:0.5;" width="4" x="251.5614" y="435.1483"/><text fill="#000000" font-family="sans-serif" font-size="14" lengthAdjust="spacing" textLength="176.0254" x="48.87" y="457.6834">assistant.message.started</text><text fill="#000000" font-family="sans-serif" font-size="14" lengthAdjust="spacing" textLength="161.9707" x="48.87" y="474.1717">assistant.message.delta</text><text fill="#000000" font-family="sans-serif" font-size="14" lengthAdjust="spacing" textLength="199.6914" x="48.87" y="490.66">assistant.message.completed</text></g><!--entity ThinkingEvents--><g class="entity" data-qualified-name="Events.ThinkingEvents" data-source-line="178" id="ent0004"><rect fill="#F1F1F1" height="62.9766" rx="2.5" ry="2.5" style="stroke:#181818;stroke-width:0.5;" width="236.5947" x="35.42" y="734.3883"/><rect fill="#F1F1F1" height="10" style="stroke:#181818;stroke-width:0.5;" width="15" x="252.0147" y="739.3883"/><rect fill="#F1F1F1" height="2" style="stroke:#181818;stroke-width:0.5;" width="4" x="250.0147" y="741.3883"/><rect fill="#F1F1F1" height="2" style="stroke:#181818;stroke-width:0.5;" width="4" x="250.0147" y="745.3883"/><text fill="#000000" font-family="sans-serif" font-size="14" lengthAdjust="spacing" textLength="158.874" x="50.42" y="767.9234">assistant.thinking.delta</text><text fill="#000000" font-family="sans-serif" font-size="14" lengthAdjust="spacing" textLength="196.5947" x="50.42" y="784.4117">assistant.thinking.completed</text></g><!--entity ToolEvents--><g class="entity" data-qualified-name="Events.ToolEvents" data-source-line="179" id="ent0005"><rect fill="#F1F1F1" height="79.4648" rx="2.5" ry="2.5" style="stroke:#181818;stroke-width:0.5;" width="213.3047" x="47.06" y="538.1483"/><rect fill="#F1F1F1" height="10" style="stroke:#181818;stroke-width:0.5;" width="15" x="240.3647" y="543.1483"/><rect fill="#F1F1F1" height="2" style="stroke:#181818;stroke-width:0.5;" width="4" x="238.3647" y="545.1483"/><rect fill="#F1F1F1" height="2" style="stroke:#181818;stroke-width:0.5;" width="4" x="238.3647" y="549.1483"/><text fill="#000000" font-family="sans-serif" font-size="14" lengthAdjust="spacing" textLength="149.6387" x="62.06" y="571.6834">tool.execution.started</text><text fill="#000000" font-family="sans-serif" font-size="14" lengthAdjust="spacing" textLength="173.3047" x="62.06" y="588.1717">tool.execution.completed</text><text fill="#000000" font-family="sans-serif" font-size="14" lengthAdjust="spacing" textLength="69.5488" x="62.06" y="604.66">tool.result</text></g><!--entity TerminalEvents--><g class="entity" data-qualified-name="Events.TerminalEvents" data-source-line="180" id="ent0006"><rect fill="#F1F1F1" height="79.4648" rx="2.5" ry="2.5" style="stroke:#181818;stroke-width:0.5;" width="165.2754" x="71.08" y="832.1483"/><rect fill="#F1F1F1" height="10" style="stroke:#181818;stroke-width:0.5;" width="15" x="216.3554" y="837.1483"/><rect fill="#F1F1F1" height="2" style="stroke:#181818;stroke-width:0.5;" width="4" x="214.3554" y="839.1483"/><rect fill="#F1F1F1" height="2" style="stroke:#181818;stroke-width:0.5;" width="4" x="214.3554" y="843.1483"/><text fill="#000000" font-family="sans-serif" font-size="14" lengthAdjust="spacing" textLength="125.2754" x="86.08" y="865.6834">session.status.idle</text><text fill="#000000" font-family="sans-serif" font-size="14" lengthAdjust="spacing" textLength="76.4326" x="86.08" y="882.1717">stream.end</text><text fill="#000000" font-family="sans-serif" font-size="14" lengthAdjust="spacing" textLength="84.7178" x="86.08" y="898.66">stream.error</text></g><!--entity UserTurn--><g class="entity" data-qualified-name="Projection.UserTurn" data-source-line="184" id="ent0008"><rect fill="#F1F1F1" height="46.4883" rx="2.5" ry="2.5" style="stroke:#181818;stroke-width:0.5;" width="103.1367" x="687.86" y="759.6383"/><rect fill="#F1F1F1" height="10" style="stroke:#181818;stroke-width:0.5;" width="15" x="770.9967" y="764.6383"/><rect fill="#F1F1F1" height="2" style="stroke:#181818;stroke-width:0.5;" width="4" x="768.9967" y="766.6383"/><rect fill="#F1F1F1" height="2" style="stroke:#181818;stroke-width:0.5;" width="4" x="768.9967" y="770.6383"/><text fill="#000000" font-family="sans-serif" font-size="14" lengthAdjust="spacing" textLength="63.1367" x="702.86" y="793.1734">User turn</text></g><!--entity AssistantTurn--><g class="entity" data-qualified-name="Projection.AssistantTurn" data-source-line="185" id="ent0009"><rect fill="#F1F1F1" height="46.4883" rx="2.5" ry="2.5" style="stroke:#181818;stroke-width:0.5;" width="205.8535" x="968.43" y="759.6383"/><rect fill="#F1F1F1" height="10" style="stroke:#181818;stroke-width:0.5;" width="15" x="1154.2835" y="764.6383"/><rect fill="#F1F1F1" height="2" style="stroke:#181818;stroke-width:0.5;" width="4" x="1152.2835" y="766.6383"/><rect fill="#F1F1F1" height="2" style="stroke:#181818;stroke-width:0.5;" width="4" x="1152.2835" y="770.6383"/><text fill="#000000" font-family="sans-serif" font-size="14" lengthAdjust="spacing" textLength="165.8535" x="983.43" y="793.1734">Streaming assistant turn</text></g><!--entity ThinkingDisclosure--><g class="entity" data-qualified-name="Projection.ThinkingDisclosure" data-source-line="186" id="ent0010"><rect fill="#F1F1F1" height="46.4883" rx="2.5" ry="2.5" style="stroke:#181818;stroke-width:0.5;" width="202.5518" x="638.15" y="840.6383"/><rect fill="#F1F1F1" height="10" style="stroke:#181818;stroke-width:0.5;" width="15" x="820.7018" y="845.6383"/><rect fill="#F1F1F1" height="2" style="stroke:#181818;stroke-width:0.5;" width="4" x="818.7018" y="847.6383"/><rect fill="#F1F1F1" height="2" style="stroke:#181818;stroke-width:0.5;" width="4" x="818.7018" y="851.6383"/><text fill="#000000" font-family="sans-serif" font-size="14" lengthAdjust="spacing" textLength="162.5518" x="653.15" y="874.1734">Safe thinking disclosure</text></g><!--entity ToolDisclosure--><g class="entity" data-qualified-name="Projection.ToolDisclosure" data-source-line="187" id="ent0011"><rect fill="#F1F1F1" height="62.9766" rx="2.5" ry="2.5" style="stroke:#181818;stroke-width:0.5;" width="204.8145" x="637.02" y="661.3883"/><rect fill="#F1F1F1" height="10" style="stroke:#181818;stroke-width:0.5;" width="15" x="821.8345" y="666.3883"/><rect fill="#F1F1F1" height="2" style="stroke:#181818;stroke-width:0.5;" width="4" x="819.8345" y="668.3883"/><rect fill="#F1F1F1" height="2" style="stroke:#181818;stroke-width:0.5;" width="4" x="819.8345" y="672.3883"/><text fill="#000000" font-family="sans-serif" font-size="14" lengthAdjust="spacing" textLength="164.8145" x="652.02" y="694.9234">Compact tool disclosure</text><text fill="#000000" font-family="sans-serif" font-size="14" lengthAdjust="spacing" textLength="120.0049" x="652.02" y="711.4117">input then output</text></g><!--entity ActivityPanel--><g class="entity" data-qualified-name="Projection.ActivityPanel" data-source-line="188" id="ent0012"><rect fill="#F1F1F1" height="46.4883" rx="2.5" ry="2.5" style="stroke:#181818;stroke-width:0.5;" width="184.6211" x="979.04" y="840.6383"/><rect fill="#F1F1F1" height="10" style="stroke:#181818;stroke-width:0.5;" width="15" x="1143.6611" y="845.6383"/><rect fill="#F1F1F1" height="2" style="stroke:#181818;stroke-width:0.5;" width="4" x="1141.6611" y="847.6383"/><rect fill="#F1F1F1" height="2" style="stroke:#181818;stroke-width:0.5;" width="4" x="1141.6611" y="851.6383"/><text fill="#000000" font-family="sans-serif" font-size="14" lengthAdjust="spacing" textLength="144.6211" x="994.04" y="874.1734">Dashed activity panel</text></g><!--entity AgentRound--><g class="entity" data-qualified-name="Projection.AgentRound" data-source-line="189" id="ent0013"><rect fill="#F1F1F1" height="62.9766" rx="2.5" ry="2.5" style="stroke:#181818;stroke-width:0.5;" width="147.3174" x="1327.57" y="706.3883"/><rect fill="#F1F1F1" height="10" style="stroke:#181818;stroke-width:0.5;" width="15" x="1454.8874" y="711.3883"/><rect fill="#F1F1F1" height="2" style="stroke:#181818;stroke-width:0.5;" width="4" x="1452.8874" y="713.3883"/><rect fill="#F1F1F1" height="2" style="stroke:#181818;stroke-width:0.5;" width="4" x="1452.8874" y="717.3883"/><text fill="#000000" font-family="sans-serif" font-size="14" lengthAdjust="spacing" textLength="85.0596" x="1342.57" y="739.9234">Agent round</text><text fill="#000000" font-family="sans-serif" font-size="14" lengthAdjust="spacing" textLength="107.3174" x="1342.57" y="756.4117">one copy action</text></g><!--entity BrandAsset--><g class="entity" data-qualified-name="Projection.BrandAsset" data-source-line="190" id="ent0014"><rect fill="#F1F1F1" height="62.9766" rx="2.5" ry="2.5" style="stroke:#181818;stroke-width:0.5;" width="188.5176" x="977.09" y="661.3883"/><rect fill="#F1F1F1" height="10" style="stroke:#181818;stroke-width:0.5;" width="15" x="1145.6076" y="666.3883"/><rect fill="#F1F1F1" height="2" style="stroke:#181818;stroke-width:0.5;" width="4" x="1143.6076" y="668.3883"/><rect fill="#F1F1F1" height="2" style="stroke:#181818;stroke-width:0.5;" width="4" x="1143.6076" y="672.3883"/><text fill="#000000" font-family="sans-serif" font-size="14" lengthAdjust="spacing" textLength="144.1426" x="992.09" y="694.9234">Exact O1 brand asset</text><text fill="#000000" font-family="sans-serif" font-size="14" lengthAdjust="spacing" textLength="148.5176" x="992.09" y="711.4117">once per Agent round</text></g><!--entity SessionState--><g class="entity" data-qualified-name="Projection.SessionState" data-source-line="191" id="ent0015"><rect fill="#F1F1F1" height="46.4883" rx="2.5" ry="2.5" style="stroke:#181818;stroke-width:0.5;" width="229.5264" x="624.66" y="921.6383"/><rect fill="#F1F1F1" height="10" style="stroke:#181818;stroke-width:0.5;" width="15" x="834.1864" y="926.6383"/><rect fill="#F1F1F1" height="2" style="stroke:#181818;stroke-width:0.5;" width="4" x="832.1864" y="928.6383"/><rect fill="#F1F1F1" height="2" style="stroke:#181818;stroke-width:0.5;" width="4" x="832.1864" y="932.6383"/><text fill="#000000" font-family="sans-serif" font-size="14" lengthAdjust="spacing" textLength="189.5264" x="639.66" y="955.1734">Session and composer state</text></g><!--entity Adjust--><g class="entity" data-qualified-name="Controls.Adjust" data-source-line="195" id="ent0017"><rect fill="#F1F1F1" height="62.9766" rx="2.5" ry="2.5" style="stroke:#181818;stroke-width:0.5;" width="148.3496" x="79.54" y="986.3883"/><rect fill="#F1F1F1" height="10" style="stroke:#181818;stroke-width:0.5;" width="15" x="207.8896" y="991.3883"/><rect fill="#F1F1F1" height="2" style="stroke:#181818;stroke-width:0.5;" width="4" x="205.8896" y="993.3883"/><rect fill="#F1F1F1" height="2" style="stroke:#181818;stroke-width:0.5;" width="4" x="205.8896" y="997.3883"/><text fill="#000000" font-family="sans-serif" font-size="14" lengthAdjust="spacing" textLength="108.3496" x="94.54" y="1019.9234">Adjust direction</text><text fill="#000000" font-family="sans-serif" font-size="14" lengthAdjust="spacing" textLength="56.5674" x="94.54" y="1036.4117">(default)</text></g><!--entity Continue--><g class="entity" data-qualified-name="Controls.Continue" data-source-line="196" id="ent0018"><rect fill="#F1F1F1" height="62.9766" rx="2.5" ry="2.5" style="stroke:#181818;stroke-width:0.5;" width="261.4297" x="23" y="1084.3883"/><rect fill="#F1F1F1" height="10" style="stroke:#181818;stroke-width:0.5;" width="15" x="264.4297" y="1089.3883"/><rect fill="#F1F1F1" height="2" style="stroke:#181818;stroke-width:0.5;" width="4" x="262.4297" y="1091.3883"/><rect fill="#F1F1F1" height="2" style="stroke:#181818;stroke-width:0.5;" width="4" x="262.4297" y="1095.3883"/><text fill="#000000" font-family="sans-serif" font-size="14" lengthAdjust="spacing" textLength="115.1104" x="38" y="1117.9234">Queue follow-up</text><text fill="#000000" font-family="sans-serif" font-size="14" lengthAdjust="spacing" textLength="221.4297" x="38" y="1134.4117">(configured or one-shot inverse)</text></g><!--entity Stop--><g class="entity" data-qualified-name="Controls.Stop" data-source-line="197" id="ent0019"><rect fill="#F1F1F1" height="46.4883" rx="2.5" ry="2.5" style="stroke:#181818;stroke-width:0.5;" width="70.1875" x="118.62" y="1182.6383"/><rect fill="#F1F1F1" height="10" style="stroke:#181818;stroke-width:0.5;" width="15" x="168.8075" y="1187.6383"/><rect fill="#F1F1F1" height="2" style="stroke:#181818;stroke-width:0.5;" width="4" x="166.8075" y="1189.6383"/><rect fill="#F1F1F1" height="2" style="stroke:#181818;stroke-width:0.5;" width="4" x="166.8075" y="1193.6383"/><text fill="#000000" font-family="sans-serif" font-size="14" lengthAdjust="spacing" textLength="30.1875" x="133.62" y="1216.1734">Stop</text></g><g class="entity" data-qualified-name="GMN33" data-source-line="216" id="ent0034"><path d="M571.43,372.2583 L571.43,443.5005 L907.4261,443.5005 L907.4261,382.2583 L897.4261,372.2583 L571.43,372.2583" fill="#FEFFDD" style="stroke:#181818;stroke-width:0.5;"/><path d="M897.4261,372.2583 L897.4261,382.2583 L907.4261,382.2583 L897.4261,372.2583" fill="#FEFFDD" style="stroke:#181818;stroke-width:1;"/><text fill="#000000" font-family="sans-serif" font-size="13" lengthAdjust="spacing" textLength="220.0859" x="577.43" y="389.8266">Never display raw delta or content.</text><text fill="#000000" font-family="sans-serif" font-size="13" lengthAdjust="spacing" textLength="268.3027" x="577.43" y="405.1372">The public bridge must provide a safe title</text><text fill="#000000" font-family="sans-serif" font-size="13" lengthAdjust="spacing" textLength="314.9961" x="577.43" y="420.4477">and summary; otherwise show a safe placeholder.</text><text fill="#000000" font-family="sans-serif" font-size="13" lengthAdjust="spacing" textLength="273.3936" x="577.43" y="435.7583">The disclosure always remains expandable.</text></g><g class="entity" data-qualified-name="GMN36" data-source-line="223" id="ent0037"><path d="M576.2,250.5983 L576.2,337.151 L902.6619,337.151 L902.6619,260.5983 L892.6619,250.5983 L576.2,250.5983" fill="#FEFFDD" style="stroke:#181818;stroke-width:0.5;"/><path d="M892.6619,250.5983 L892.6619,260.5983 L902.6619,260.5983 L892.6619,250.5983" fill="#FEFFDD" style="stroke:#181818;stroke-width:1;"/><text fill="#000000" font-family="sans-serif" font-size="13" lengthAdjust="spacing" textLength="268.0552" x="582.2" y="268.1666">Current and failed tools remain expanded.</text><text fill="#000000" font-family="sans-serif" font-size="13" lengthAdjust="spacing" textLength="266.8047" x="582.2" y="283.4772">Successful tool details collapse by default.</text><text fill="#000000" font-family="sans-serif" font-size="13" lengthAdjust="spacing" textLength="305.4619" x="582.2" y="298.7877">Arguments are row, depth, and length bounded.</text><text fill="#000000" font-family="sans-serif" font-size="13" lengthAdjust="spacing" textLength="262.3169" x="582.2" y="314.0983">Credentials and internal IDs are redacted.</text><text fill="#000000" font-family="sans-serif" font-size="13" lengthAdjust="spacing" textLength="303.8877" x="582.2" y="329.4088">Absolute paths are reduced to the last segment.</text></g><g class="entity" data-qualified-name="GMN39" data-source-line="231" id="ent0040"><path d="M1235.28,539.2583 L1235.28,610.5005 A0,0 0 0 0 1235.28,610.5005 L1397.23,610.5005 L1401.23,706.0383 L1405.23,610.5005 L1567.1882,610.5005 A0,0 0 0 0 1567.1882,610.5005 L1567.1882,549.2583 L1557.1882,539.2583 L1235.28,539.2583 A0,0 0 0 0 1235.28,539.2583" fill="#FEFFDD" style="stroke:#181818;stroke-width:0.5;"/><path d="M1557.1882,539.2583 L1557.1882,549.2583 L1567.1882,549.2583 L1557.1882,539.2583" fill="#FEFFDD" style="stroke:#181818;stroke-width:0.5;"/><text fill="#000000" font-family="sans-serif" font-size="13" lengthAdjust="spacing" textLength="302.2246" x="1241.28" y="556.8266">Use a User turn as the product round boundary.</text><text fill="#000000" font-family="sans-serif" font-size="13" lengthAdjust="spacing" textLength="310.9082" x="1241.28" y="572.1372">Join non-empty Assistant rawMarkdown in order.</text><text fill="#000000" font-family="sans-serif" font-size="13" lengthAdjust="spacing" textLength="309.6768" x="1241.28" y="587.4477">Exclude thinking and tool diagnostics from copy.</text><text fill="#000000" font-family="sans-serif" font-size="13" lengthAdjust="spacing" textLength="279.4683" x="1241.28" y="602.7583">Hide the copy icon while the round is active.</text></g><g class="entity" data-qualified-name="GMN42" data-source-line="238" id="ent0043"><path d="M588.34,478.6383 L588.34,611.1227 L890.5221,611.1227 L890.5221,488.6383 L880.5221,478.6383 L588.34,478.6383" fill="#FEFFDD" style="stroke:#181818;stroke-width:0.5;"/><path d="M880.5221,478.6383 L880.5221,488.6383 L890.5221,488.6383 L880.5221,478.6383" fill="#FEFFDD" style="stroke:#181818;stroke-width:1;"/><text fill="#000000" font-family="sans-serif" font-size="13" lengthAdjust="spacing" textLength="248.5234" x="594.34" y="496.2066">Network loss does not replay the POST.</text><text fill="#000000" font-family="sans-serif" font-size="13" lengthAdjust="spacing" textLength="281.1821" x="594.34" y="511.5172">Keep the submitted draft until user.message</text><text fill="#000000" font-family="sans-serif" font-size="13" lengthAdjust="spacing" textLength="268.2266" x="594.34" y="526.8277">or persistent history confirms a new Entry.</text><text fill="#000000" font-family="sans-serif" font-size="13" lengthAdjust="spacing" textLength="252.5098" x="594.34" y="542.1383">If confirmation is still missing, mark the</text><text fill="#000000" font-family="sans-serif" font-size="13" lengthAdjust="spacing" textLength="261.9614" x="594.34" y="557.4488">outcome uncertain and forbid blind retry.</text><text fill="#000000" font-family="sans-serif" font-size="13" lengthAdjust="spacing" textLength="4.1133" x="594.34" y="572.7594">&#160;</text><text fill="#000000" font-family="sans-serif" font-size="13" lengthAdjust="spacing" textLength="243.8706" x="594.34" y="588.0699">Adjust direction does not interrupt the</text><text fill="#000000" font-family="sans-serif" font-size="13" lengthAdjust="spacing" textLength="230.6294" x="594.34" y="603.3805">current model call or tool execution.</text></g><!--link UserEvent to UserTurn--><g class="link" data-entity-1="ent0002" data-entity-2="ent0008" data-link-type="dependency" data-source-line="200" id="lnk20"><path d="M220.54,687.9483 C338.16,709.5083 577.072,753.2966 682.782,772.6766" fill="none" id="UserEvent-to-UserTurn" style="stroke:#181818;stroke-width:1;"/><polygon fill="#181818" points="687.7,773.5783,679.5688,768.0209,682.782,772.6766,678.1262,775.8898,687.7,773.5783" style="stroke:#181818;stroke-width:1;stroke-linejoin:miter;stroke-miterlimit:10;"/><text fill="#000000" font-family="sans-serif" font-size="13" lengthAdjust="spacing" textLength="115.6479" x="371.43" y="704.0666">persist and render</text></g><!--link AssistantEvents to AssistantTurn--><g class="link" data-entity-1="ent0003" data-entity-2="ent0009" data-link-type="dependency" data-source-line="201" id="lnk21"><path d="M200.36,423.8183 C328.14,316.5683 693.99,43.4883 907.43,232.8783 C992.64,308.4883 899.14,651.4483 968.43,741.8783 C973.76,748.8383 976.2718,751.9125 983.6918,756.7125" fill="none" id="AssistantEvents-to-AssistantTurn" style="stroke:#181818;stroke-width:1;"/><polygon fill="#181818" points="987.89,759.4283,982.506,751.1813,983.6918,756.7125,978.1607,757.8984,987.89,759.4283" style="stroke:#181818;stroke-width:1;stroke-linejoin:miter;stroke-miterlimit:10;"/><text fill="#000000" font-family="sans-serif" font-size="13" lengthAdjust="spacing" textLength="193.0132" x="642.93" y="164.2866">preview then replace with final</text></g><!--link ThinkingEvents to ThinkingDisclosure--><g class="link" data-entity-1="ent0004" data-entity-2="ent0010" data-link-type="dependency" data-source-line="202" id="lnk22"><path d="M272.49,785.6483 C379.72,803.6583 531.429,829.1305 632.929,846.1705" fill="none" id="ThinkingEvents-to-ThinkingDisclosure" style="stroke:#181818;stroke-width:1;"/><polygon fill="#181818" points="637.86,846.9983,629.6465,841.5634,632.929,846.1705,628.322,849.453,637.86,846.9983" style="stroke:#181818;stroke-width:1;stroke-linejoin:miter;stroke-miterlimit:10;"/><text fill="#000000" font-family="sans-serif" font-size="13" lengthAdjust="spacing" textLength="195.9014" x="331.43" y="791.4066">safe display fields or state only</text></g><!--link ToolEvents to ToolDisclosure--><g class="link" data-entity-1="ent0005" data-entity-2="ent0011" data-link-type="dependency" data-source-line="203" id="lnk23"><path d="M260.76,598.7683 C367.58,619.8183 526.3543,651.0916 631.6543,671.8416" fill="none" id="ToolEvents-to-ToolDisclosure" style="stroke:#181818;stroke-width:1;"/><polygon fill="#181818" points="636.56,672.8083,628.5032,667.1437,631.6543,671.8416,626.9565,674.9928,636.56,672.8083" style="stroke:#181818;stroke-width:1;stroke-linejoin:miter;stroke-miterlimit:10;"/><text fill="#000000" font-family="sans-serif" font-size="13" lengthAdjust="spacing" textLength="162.3413" x="347.93" y="608.4266">merge lifecycle and result</text></g><!--link TerminalEvents to SessionState--><g class="link" data-entity-1="ent0006" data-entity-2="ent0015" data-link-type="dependency" data-source-line="204" id="lnk24"><path d="M236.8,882.1483 C337.91,894.7883 505.2887,915.7176 619.2687,929.9776" fill="none" id="TerminalEvents-to-SessionState" style="stroke:#181818;stroke-width:1;"/><polygon fill="#181818" points="624.23,930.5983,615.7962,925.5119,619.2687,929.9776,614.8031,933.4501,624.23,930.5983" style="stroke:#181818;stroke-width:1;stroke-linejoin:miter;stroke-miterlimit:10;"/><text fill="#000000" font-family="sans-serif" font-size="13" lengthAdjust="spacing" textLength="223.0376" x="317.43" y="890.0166">idle, complete, or recoverable error</text></g><!--link ThinkingDisclosure to ActivityPanel--><g class="link" data-entity-1="ent0010" data-entity-2="ent0012" data-link-type="dependency" data-source-line="205" id="lnk25"><path d="M840.76,863.8783 C884.65,863.8783 930.79,863.8783 973.64,863.8783" fill="none" id="ThinkingDisclosure-to-ActivityPanel" style="stroke:#181818;stroke-width:1;"/><polygon fill="#181818" points="978.64,863.8783,969.64,859.8783,973.64,863.8783,969.64,867.8783,978.64,863.8783" style="stroke:#181818;stroke-width:1;stroke-linejoin:miter;stroke-miterlimit:10;"/></g><!--link ToolDisclosure to ActivityPanel--><g class="link" data-entity-1="ent0011" data-entity-2="ent0012" data-link-type="dependency" data-source-line="206" id="lnk26"><path d="M842.31,711.4683 C865.03,718.5983 888.09,728.4083 907.43,741.8783 C944.7,767.8383 932.34,796.2983 968.43,823.8783 C976.66,830.1683 981.4965,833.4261 991.1165,838.0661" fill="none" id="ToolDisclosure-to-ActivityPanel" style="stroke:#181818;stroke-width:1;"/><polygon fill="#181818" points="995.62,840.2383,989.2514,832.7256,991.1165,838.0661,985.7759,839.9312,995.62,840.2383" style="stroke:#181818;stroke-width:1;stroke-linejoin:miter;stroke-miterlimit:10;"/></g><!--link AssistantTurn to AgentRound--><g class="link" data-entity-1="ent0009" data-entity-2="ent0013" data-link-type="dependency" data-source-line="207" id="lnk27"><path d="M1174.75,768.8283 C1224.16,762.0383 1277.3563,754.7372 1322.2263,748.5872" fill="none" id="AssistantTurn-to-AgentRound" style="stroke:#181818;stroke-width:1;"/><polygon fill="#181818" points="1327.18,747.9083,1317.7202,745.1675,1322.2263,748.5872,1318.8065,753.0934,1327.18,747.9083" style="stroke:#181818;stroke-width:1;stroke-linejoin:miter;stroke-miterlimit:10;"/></g><!--link ActivityPanel to AgentRound--><g class="link" data-entity-1="ent0012" data-entity-2="ent0013" data-link-type="dependency" data-source-line="208" id="lnk28"><path d="M1134.02,840.1783 C1188.84,819.1083 1264.3927,790.0816 1322.4327,767.7816" fill="none" id="ActivityPanel-to-AgentRound" style="stroke:#181818;stroke-width:1;"/><polygon fill="#181818" points="1327.1,765.9883,1317.2641,765.4823,1322.4327,767.7816,1320.1334,772.9501,1327.1,765.9883" style="stroke:#181818;stroke-width:1;stroke-linejoin:miter;stroke-miterlimit:10;"/></g><!--link BrandAsset to AgentRound--><g class="link" data-entity-1="ent0014" data-entity-2="ent0013" data-link-type="dependency" data-source-line="209" id="lnk29"><path d="M1165.87,705.7083 C1217.07,712.7383 1274.6364,720.6384 1322.2164,727.1684" fill="none" id="BrandAsset-to-AgentRound" style="stroke:#181818;stroke-width:1;"/><polygon fill="#181818" points="1327.17,727.8483,1318.7975,722.6617,1322.2164,727.1684,1317.7097,730.5874,1327.17,727.8483" style="stroke:#181818;stroke-width:1;stroke-linejoin:miter;stroke-miterlimit:10;"/></g><!--link Adjust to SessionState--><g class="link" data-entity-1="ent0017" data-entity-2="ent0015" data-link-type="dependency" data-source-line="211" id="lnk30"><path d="M228.35,1008.6683 C328.11,996.1983 502.2186,974.4187 619.4486,959.7587" fill="none" id="Adjust-to-SessionState" style="stroke:#181818;stroke-width:1;"/><polygon fill="#181818" points="624.41,959.1383,614.9832,956.286,619.4486,959.7587,615.9759,964.2241,624.41,959.1383" style="stroke:#181818;stroke-width:1;stroke-linejoin:miter;stroke-miterlimit:10;"/><text fill="#000000" font-family="sans-serif" font-size="13" lengthAdjust="spacing" textLength="83.6621" x="387.43" y="967.1466">internal steer</text></g><!--link Continue to SessionState--><g class="link" data-entity-1="ent0018" data-entity-2="ent0015" data-link-type="dependency" data-source-line="212" id="lnk31"><path d="M284.76,1088.2783 C360.33,1071.1583 457.01,1047.4083 541.43,1020.8783 C589.86,1005.6583 638.9257,986.5598 678.0057,970.4898" fill="none" id="Continue-to-SessionState" style="stroke:#181818;stroke-width:1;"/><polygon fill="#181818" points="682.63,968.5883,672.785,968.3116,678.0057,970.4898,675.8275,975.7105,682.63,968.5883" style="stroke:#181818;stroke-width:1;stroke-linejoin:miter;stroke-miterlimit:10;"/><text fill="#000000" font-family="sans-serif" font-size="13" lengthAdjust="spacing" textLength="114.4229" x="371.93" y="1017.4466">internal follow-up</text></g><!--link Stop to SessionState--><g class="link" data-entity-1="ent0019" data-entity-2="ent0015" data-link-type="dependency" data-source-line="213" id="lnk32"><path d="M189.29,1201.8583 C259.11,1192.6783 420.56,1166.0883 541.43,1104.8783 C612.77,1068.7483 678.482,1006.9909 712.712,972.0309" fill="none" id="Stop-to-SessionState" style="stroke:#181818;stroke-width:1;"/><polygon fill="#181818" points="716.21,968.4583,707.0554,972.0906,712.712,972.0309,712.7716,977.6875,716.21,968.4583" style="stroke:#181818;stroke-width:1;stroke-linejoin:miter;stroke-miterlimit:10;"/><text fill="#000000" font-family="sans-serif" font-size="13" lengthAdjust="spacing" textLength="85.8965" x="386.43" y="1101.4466">internal abort</text></g><!--link ThinkingDisclosure to GMN33--><g class="link" data-entity-1="ent0010" data-entity-2="ent0034" data-link-type="association" data-source-line="216" id="lnk35"><path d="M637.95,874.3783 C570.77,875.1483 486.72,863.0083 439.93,806.3783 C347.07,693.9983 349.43,592.6583 439.93,478.3783 C471.6,438.3883 521.32,418.4183 571.22,409.1083" fill="none" id="ThinkingDisclosure-GMN33" style="stroke:#181818;stroke-width:1;stroke-dasharray:7,7;"/></g><!--link ToolDisclosure to GMN36--><g class="link" data-entity-1="ent0011" data-entity-2="ent0037" data-link-type="association" data-source-line="223" id="lnk38"><path d="M636.7,694.6083 C569.19,689.6683 485.25,670.6783 439.93,611.3783 C375.43,526.9783 375.04,456.4683 439.93,372.3783 C472.36,330.3583 524.33,309.0683 575.95,298.7783" fill="none" id="ToolDisclosure-GMN36" style="stroke:#181818;stroke-width:1;stroke-dasharray:7,7;"/></g><!--link SessionState to GMN42--><g class="link" data-entity-1="ent0015" data-entity-2="ent0043" data-link-type="association" data-source-line="238" id="lnk44"><path d="M624.3,955.3483 C559.73,954.3283 483.6,940.2383 439.93,887.3783 C376.52,810.6283 383.96,745.7083 439.93,663.3783 C473.72,613.6683 531.95,584.8083 588.13,568.0583" fill="none" id="SessionState-GMN42" style="stroke:#181818;stroke-width:1;stroke-dasharray:7,7;"/></g><?plantuml-src nLZRSXkv4NsVhq3vPQqgSIHHLqjLgP8eR-mujXLBtaggz09YcYGip60Mm8XYKlllUng36N8esPjzIHxMI-BIwClfquVwILn9zK1L8Rnjd28nbPwChkXSMAVdkjehfQx4oQ4irFwPcXshurCwbATA7Ief3mzEZux7-oVZa_qJHMVJeppxIVpiR1NOeiR_d5H1sshaQ0QZ9LNXEo_WkYmEQ2QFtgYp_V7XuV7-zEIie34T52UpmwFJuzCJASV7_C8lsZVIY8AydbSRzfGiwyOh8vUZMN9Yb0uTg_7uyE3a-8ZacwEY61-TJO_nKHwTdXLZDHsVgkBmH1wFsVnjcmbwr0LL2dOxOtlUgRtQsM-aWdL-ppLLq2MzVKHODzro7hnudGvzsJZWTqLQlVHU-o2h4DVxvRk5hXvqDTzQjTOyNxbqyuQJwNV-s65bozfwEJNaznfFoQVBMaTF2-rh6TJYrjFFJfQqAqfoSzhqV5SOAujtyDcwrSwVof2orICvBna3NsnJ5Ju-EdUsgISRUtUDgv2Wk7uvnvjNngg7_pgwYbEnDp08vnaK-ME3aAB9-7xxlKlrjGPQh6zSEXTJ2y0-wh1gLoHmVENmxqVf7dZfZpsItXEysG1ZYRiZUv3NrJmQ71ptOMKeLzx_oLYvgEIkx1Dx9LxRwWEj2hkiTeLgdED6crbZx7BKrAAq1RsSI-mq30nb2-HZ93bH8sLqV8yRS--RV9JyyaP0wNGyt3M1hFKUCLhsDg5pjwefPmlYzVRo_yMVTPUsJYMeVYJlSVisIBVkixJujIvae47t3S_53gsA_tayLN2h2GghKYp1fXPDJHiiUlfQ1XazG-H5em8JCJdsRSF9oKA6lzxSvRAknPAcZvgM7OgnDDAL3bgQqTNax_-wfjao_uOMRi7rjVv7GmrzX1kxuiCRlnFnlMNZtulHvDFeQlNbbzlt_moupVvydWAzZrI8AItaexRkNBoxkxiH1_dX6VXcIMu2DZ8JaBkeqTK8ZJ6D_vmc7vy9w4klu-eJgORRNiGKUU4Nqf50hmX7lpRamyWhM-ErszktMF9e8qyN8gLIXCG70dmLK1Gld5pYdFIsqgbfAokyd95WmZHo9NnJegzNWrYu74yR4M7uF0HRRtKYbcUoCN0pm6OWSXT2yewUQN8mF2qrDjdxiiMWMEgmW9U4cSeKHz5E11m2Ts0hWO1HJJXx7dtl8z9UOFvPHyK5dhD6o6vq24xHb4aHddE4E8Df7KiommLn_VbZXt6abb-xT6gX0xw3COLQo6eEz7n5y28mWRVMMhOLBjBzXI2f5eAPon3RZii2FDK6YAgiXEmVI2ZbEdYK5mhYF7wEvNtSA5IiFuS3Tygktb8ifIj5HGtkGXz8l-3G4g6BMbPa-9NhLXEqzJsFUVtwlWlLyuTW5MmdCC4BhXDFKB4vq8ITnWkxm1-JiOzXuhaMADsxxH1fU3z6_28xun4WGI8pCn6MTXFoQc6r8ZHD5dI02nreatVmhKvPMmS1xp93iy2x45cB0DYwj9xn1vGEfbuDR8cPBBL1TxqIqejMj8Z_P4BqSqUyGXWkJwYCnxZwyUZmdEmqJdSuzqoQLDnNpxSACa6-jD739Zurr4t-Umzs67bkjjyPsXq8hospZB6yfvTr45lhlS6q0uf1WxVMEm6tPHbuyCbaQ7ok2qFt37gIPOw1l_xid7Mj9NAbhcHdxRT19NlLlKP0l7JJVzqkPT-tVHrPXGtFt4OVOiDrMLnVwUlnmZrkWBvPYrvc3VAzLb_3ovFKHR6_rtVlmMvr4xXTqNfDmES-mTypTVqI1RJEfwKRNXbUsk2l-sgBfDgxlPmSNdpxn6v_FX1JLemYZZ-seE88s-J5Q2Rgoai-j9My5XcHDbJIUSm_eKrVshxbXIqGn9Bo37FMUB5SQ2n2F_1OY5SdtTOM52wBRutVu8ZxwdMQKJjjm75_U2SE_ZMBuGeUdkavQW0MSynr8x-meHjPExq7kcfe6sQsRcF31uwfPnKn6lsbnwOuxtWnpIkCBfTjqKAyCO0cNtF4YgJ5ZYCCS9M6wemxAXjIG3Jn7AMmCr00cDQcy1nhB0uYDgjitUwjbG4uOI7-kX96pqYj5ChJ1i9iaGtxErxVh3KkCqdiziDqbvz6nIpo6uTJf8hi1STZIWQ0t_Bh-O5X1kF-6lM3ezkRQrXlxsG9Poz5ndyhGEoj7iewcFpmQ8-zZ67pmwDoQbt8iie6bZmXs987xGj4z0cJqFKLPYKLfmXdMaM23JaIZ7vkfaOhDBekKCwIemBnigA62eaeYSCwu_8cfNWXBE3dbXho3Osnx0v6C2wi0PPRsslA4z8ivGfgbCgeIg4pO91hdMSKDIaeu5bKGpwS9BqHVtXAC48hd3gZoIOLUNRRAEWCFsjCebw25ZQiQeoHDRoUhZhfccUN0ndfx78NUtLOj6h7K3L7SoLrcMSJa08EurT4Aztxmho_JWQIzeJXgRUcGKIr38j-ir7HxwZLZ4IsFStBM8tlvc43U20GPBiVUCmqRAZJJQqcZSv6HVytYxo0jqTKrXWQVIim7lZl0Fmp6o405B5cRv-KQOgNn6cX9RIt3rfv_YLVnacIP-zqF9q6YmQm4bVpMkiCP7iSMZygz60GV2B8HlU0dqxUYy92RE9qItMhQFVcy-rTddqWgkFNzbS6A_B2IGX55e96RCgx39ZVaA6BziUbY2pleBabXFPIn9-XUVP-rcsqqXZ-8snZHAdXP3NV5Vn747uvm-W6Wn5ULEJurrOBJUkc6aKmEX9YD9fjpwLrO150hgcZ7CWwJSrAsWWbyIwSZoLOQxG-aRy3?></g></svg>