<svg xmlns="http://www.w3.org/2000/svg" xmlns:xlink="http://www.w3.org/1999/xlink" contentStyleType="text/css" data-diagram-type="SEQUENCE" height="832px" preserveAspectRatio="none" style="width:1079px;height:832px;background:#FFFFFF;" version="1.1" viewBox="0 0 1079 832" width="1079px" zoomAndPan="magnify"><?plantuml 1.2026.6?><defs/><g><g class="title" data-source-line="11"><text fill="#000000" font-family="sans-serif" font-size="14" font-weight="700" lengthAdjust="spacing" textLength="302.9824" x="384.8044" y="28.5352">Compact database admission - slice 6b2a</text></g><rect fill="none" height="212.1289" style="stroke:#000000;stroke-width:1.5;" width="464.3203" x="402.4229" y="151.2871"/><rect fill="none" height="151.5078" style="stroke:#000000;stroke-width:1.5;" width="444.3203" x="412.4229" y="204.9082"/><rect fill="none" height="75.9316" style="stroke:#000000;stroke-width:1.5;" width="424.3203" x="422.4229" y="273.4844"/><rect fill="none" height="262.0605" style="stroke:#000000;stroke-width:1.5;" width="993.5913" x="70" y="501.9688"/><rect fill="none" height="201.4395" style="stroke:#000000;stroke-width:1.5;" width="973.5913" x="80" y="555.5898"/><g class="participant-lifeline" data-entity-uid="part1" data-qualified-name="Caller" data-source-line="13" id="part1-lifeline"><g><title>Future Runtime Service</title><rect fill="#000000" fill-opacity="0.00000" height="726.6738" width="8" x="181.3921" y="104.9766"/><line style="stroke:#181818;stroke-width:0.5;stroke-dasharray:5,5;" x1="185" x2="185" y1="104.9766" y2="831.6504"/></g></g><g class="participant-lifeline" data-entity-uid="part2" data-qualified-name="Repo" data-source-line="14" id="part2-lifeline"><g><title>Repository</title><rect fill="#000000" fill-opacity="0.00000" height="726.6738" width="8" x="471.4858" y="104.9766"/><line style="stroke:#181818;stroke-width:0.5;stroke-dasharray:5,5;" x1="475.4229" x2="475.4229" y1="104.9766" y2="831.6504"/></g></g><g class="participant-lifeline" data-entity-uid="part3" data-qualified-name="DB" data-source-line="15" id="part3-lifeline"><g><title>Session . current branch</title><rect fill="#000000" fill-opacity="0.00000" height="726.6738" width="8" x="744.1299" y="104.9766"/><line style="stroke:#181818;stroke-width:0.5;stroke-dasharray:5,5;" x1="747.5166" x2="747.5166" y1="104.9766" y2="831.6504"/></g></g><g class="participant participant-head" data-entity-uid="part1" data-qualified-name="Caller" data-source-line="13" id="part1-head"><rect fill="#E2E2F0" height="46.9766" rx="2.5" ry="2.5" style="stroke:#181818;stroke-width:0.5;" width="190.7842" x="90" y="57"/><text fill="#000000" font-family="sans-serif" font-size="14" lengthAdjust="spacing" textLength="156.2217" x="107.2813" y="77.5352">Future Runtime Service</text><text fill="#000000" font-family="sans-serif" font-size="14" lengthAdjust="spacing" textLength="176.7842" x="97" y="94.0234">(6b2b, not delivered here)</text></g><g class="participant participant-head" data-entity-uid="part2" data-qualified-name="Repo" data-source-line="14" id="part2-head"><rect fill="#E2E2F0" height="30.4883" rx="2.5" ry="2.5" style="stroke:#181818;stroke-width:0.5;" width="86.126" x="432.4229" y="73.4883"/><text fill="#000000" font-family="sans-serif" font-size="14" lengthAdjust="spacing" textLength="72.126" x="439.4229" y="94.0234">Repository</text></g><g class="participant participant-head" data-entity-uid="part3" data-qualified-name="DB" data-source-line="15" id="part3-head"><text fill="#000000" font-family="sans-serif" font-size="14" lengthAdjust="spacing" textLength="171.2266" x="659.5166" y="102.0234">Session + current branch</text><path d="M730.1299,52.4883 C730.1299,42.4883 748.1299,42.4883 748.1299,42.4883 C748.1299,42.4883 766.1299,42.4883 766.1299,52.4883 L766.1299,78.4883 C766.1299,88.4883 748.1299,88.4883 748.1299,88.4883 C748.1299,88.4883 730.1299,88.4883 730.1299,78.4883 L730.1299,52.4883" fill="#E2E2F0" style="stroke:#181818;stroke-width:0.5;"/><path d="M730.1299,52.4883 C730.1299,62.4883 748.1299,62.4883 748.1299,62.4883 C748.1299,62.4883 766.1299,62.4883 766.1299,52.4883" fill="none" style="stroke:#181818;stroke-width:0.5;"/></g><g class="message" data-entity-1="part1" data-entity-2="part2" data-source-line="16" id="msg1"><polygon fill="#181818" points="463.4858,132.2871,473.4858,136.2871,463.4858,140.2871,467.4858,136.2871" style="stroke:#181818;stroke-width:1;stroke-linejoin:miter;stroke-miterlimit:10;"/><line style="stroke:#181818;stroke-width:1;" x1="185.3921" x2="469.4858" y1="136.2871" y2="136.2871"/><text fill="#000000" font-family="sans-serif" font-size="13" lengthAdjust="spacing" textLength="192.4546" x="192.3921" y="131.5449">observeCompaction(sessionId)</text></g><path d="M402.4229,151.2871 L609.1992,151.2871 L609.1992,158.5977 L599.1992,168.5977 L402.4229,168.5977 L402.4229,151.2871" fill="#EEEEEE" style="stroke:#000000;stroke-width:1.5;"/><rect fill="none" height="212.1289" style="stroke:#000000;stroke-width:1.5;" width="464.3203" x="402.4229" y="151.2871"/><text fill="#000000" font-family="sans-serif" font-size="13" font-weight="700" lengthAdjust="spacing" textLength="161.7764" x="417.4229" y="164.8555">Observation transaction</text><g class="message" data-entity-1="part2" data-entity-2="part3" data-source-line="18" id="msg2"><polygon fill="#181818" points="736.1299,185.9082,746.1299,189.9082,736.1299,193.9082,740.1299,189.9082" style="stroke:#181818;stroke-width:1;stroke-linejoin:miter;stroke-miterlimit:10;"/><line style="stroke:#181818;stroke-width:1;" x1="475.4858" x2="742.1299" y1="189.9082" y2="189.9082"/><text fill="#000000" font-family="sans-serif" font-size="13" lengthAdjust="spacing" textLength="180.3433" x="482.4858" y="185.166">SELECT Session FOR UPDATE</text></g><path d="M412.4229,204.9082 L474.5615,204.9082 L474.5615,212.2188 L464.5615,222.2188 L412.4229,222.2188 L412.4229,204.9082" fill="#EEEEEE" style="stroke:#000000;stroke-width:1.5;"/><rect fill="none" height="151.5078" style="stroke:#000000;stroke-width:1.5;" width="444.3203" x="412.4229" y="204.9082"/><text fill="#000000" font-family="sans-serif" font-size="13" font-weight="700" lengthAdjust="spacing" textLength="17.1387" x="427.4229" y="218.4766">alt</text><text fill="#000000" font-family="sans-serif" font-size="11" font-weight="700" lengthAdjust="spacing" textLength="116.9019" x="489.5615" y="217.543">[missing or running]</text><g class="message" data-entity-1="part3" data-entity-2="part2" data-source-line="20" id="msg3"><polygon fill="#181818" points="486.4858,239.5293,476.4858,243.5293,486.4858,247.5293,482.4858,243.5293" style="stroke:#181818;stroke-width:1;stroke-linejoin:miter;stroke-miterlimit:10;"/><line style="stroke:#181818;stroke-width:1;stroke-dasharray:2,2;" x1="480.4858" x2="747.1299" y1="243.5293" y2="243.5293"/><text fill="#000000" font-family="sans-serif" font-size="13" lengthAdjust="spacing" textLength="141.7178" x="492.4858" y="238.7871">absent or Session only</text></g><line style="stroke:#000000;stroke-width:1;stroke-dasharray:2,2;" x1="412.4229" x2="856.7432" y1="252.5293" y2="252.5293"/><text fill="#000000" font-family="sans-serif" font-size="11" font-weight="700" lengthAdjust="spacing" textLength="29.0415" x="417.4229" y="263.1641">[idle]</text><path d="M422.4229,273.4844 L496.8696,273.4844 L496.8696,280.7949 L486.8696,290.7949 L422.4229,290.7949 L422.4229,273.4844" fill="#EEEEEE" style="stroke:#000000;stroke-width:1.5;"/><rect fill="none" height="75.9316" style="stroke:#000000;stroke-width:1.5;" width="424.3203" x="422.4229" y="273.4844"/><text fill="#000000" font-family="sans-serif" font-size="13" font-weight="700" lengthAdjust="spacing" textLength="29.4468" x="437.4229" y="287.0527">loop</text><text fill="#000000" font-family="sans-serif" font-size="11" font-weight="700" lengthAdjust="spacing" textLength="138.9395" x="511.8696" y="286.1191">[pages of 500 while full]</text><g class="message" data-entity-1="part2" data-entity-2="part3" data-source-line="23" id="msg4"><polygon fill="#181818" points="736.1299,308.1055,746.1299,312.1055,736.1299,316.1055,740.1299,312.1055" style="stroke:#181818;stroke-width:1;stroke-linejoin:miter;stroke-miterlimit:10;"/><line style="stroke:#181818;stroke-width:1;" x1="475.4858" x2="742.1299" y1="312.1055" y2="312.1055"/><text fill="#000000" font-family="sans-serif" font-size="13" lengthAdjust="spacing" textLength="248.644" x="482.4858" y="307.3633">read current branch after last sequence</text></g><g class="message" data-entity-1="part3" data-entity-2="part2" data-source-line="24" id="msg5"><polygon fill="#181818" points="486.4858,337.416,476.4858,341.416,486.4858,345.416,482.4858,341.416" style="stroke:#181818;stroke-width:1;stroke-linejoin:miter;stroke-miterlimit:10;"/><line style="stroke:#181818;stroke-width:1;stroke-dasharray:2,2;" x1="480.4858" x2="747.1299" y1="341.416" y2="341.416"/><text fill="#000000" font-family="sans-serif" font-size="13" lengthAdjust="spacing" textLength="96.7065" x="492.4858" y="336.6738">ordered entries</text></g><g class="message" data-entity-1="part2" data-entity-2="part1" data-source-line="28" id="msg6"><polygon fill="#181818" points="196.3921,387.7266,186.3921,391.7266,196.3921,395.7266,192.3921,391.7266" style="stroke:#181818;stroke-width:1;stroke-linejoin:miter;stroke-miterlimit:10;"/><line style="stroke:#181818;stroke-width:1;stroke-dasharray:2,2;" x1="190.3921" x2="474.4858" y1="391.7266" y2="391.7266"/><text fill="#000000" font-family="sans-serif" font-size="13" lengthAdjust="spacing" textLength="128.1592" x="202.3921" y="386.9844">snapshot (no writes)</text></g><path d="M5,404.7266 L5,459.7266 L366,459.7266 L366,414.7266 L356,404.7266 L5,404.7266" fill="#FEFFDD" style="stroke:#181818;stroke-width:0.5;"/><path d="M356,404.7266 L356,414.7266 L366,414.7266 L356,404.7266" fill="#FEFFDD" style="stroke:#181818;stroke-width:0.5;"/><text fill="#000000" font-family="sans-serif" font-size="13" lengthAdjust="spacing" textLength="299.3364" x="11" y="422.2949">Future work: reject busy, detect empty context,</text><text fill="#000000" font-family="sans-serif" font-size="13" lengthAdjust="spacing" textLength="252.8589" x="11" y="437.6055">prepare Agent and execution resources.</text><text fill="#000000" font-family="sans-serif" font-size="13" lengthAdjust="spacing" textLength="340.2661" x="11" y="452.916">Empty observation alone is not command completion.</text><g class="message" data-entity-1="part1" data-entity-2="part2" data-source-line="34" id="msg7"><polygon fill="#181818" points="463.4858,482.9688,473.4858,486.9688,463.4858,490.9688,467.4858,486.9688" style="stroke:#181818;stroke-width:1;stroke-linejoin:miter;stroke-miterlimit:10;"/><line style="stroke:#181818;stroke-width:1;" x1="185.3921" x2="469.4858" y1="486.9688" y2="486.9688"/><text fill="#000000" font-family="sans-serif" font-size="13" lengthAdjust="spacing" textLength="266.0938" x="192.3921" y="482.2266">acceptCompaction(observedSession, time)</text></g><path d="M70,501.9688 L270.5176,501.9688 L270.5176,509.2793 L260.5176,519.2793 L70,519.2793 L70,501.9688" fill="#EEEEEE" style="stroke:#000000;stroke-width:1.5;"/><rect fill="none" height="262.0605" style="stroke:#000000;stroke-width:1.5;" width="993.5913" x="70" y="501.9688"/><text fill="#000000" font-family="sans-serif" font-size="13" font-weight="700" lengthAdjust="spacing" textLength="155.5176" x="85" y="515.5371">Acceptance transaction</text><g class="message" data-entity-1="part2" data-entity-2="part3" data-source-line="36" id="msg8"><polygon fill="#181818" points="736.1299,536.5898,746.1299,540.5898,736.1299,544.5898,740.1299,540.5898" style="stroke:#181818;stroke-width:1;stroke-linejoin:miter;stroke-miterlimit:10;"/><line style="stroke:#181818;stroke-width:1;" x1="475.4858" x2="742.1299" y1="540.5898" y2="540.5898"/><text fill="#000000" font-family="sans-serif" font-size="13" lengthAdjust="spacing" textLength="180.3433" x="482.4858" y="535.8477">SELECT Session FOR UPDATE</text></g><path d="M80,555.5898 L142.1387,555.5898 L142.1387,562.9004 L132.1387,572.9004 L80,572.9004 L80,555.5898" fill="#EEEEEE" style="stroke:#000000;stroke-width:1.5;"/><rect fill="none" height="201.4395" style="stroke:#000000;stroke-width:1.5;" width="973.5913" x="80" y="555.5898"/><text fill="#000000" font-family="sans-serif" font-size="13" font-weight="700" lengthAdjust="spacing" textLength="17.1387" x="95" y="569.1582">alt</text><text fill="#000000" font-family="sans-serif" font-size="11" font-weight="700" lengthAdjust="spacing" textLength="275.7573" x="157.1387" y="568.2246">[missing, busy, or changed leaf/model/thinking]</text><g class="message" data-entity-1="part2" data-entity-2="part1" data-source-line="38" id="msg9"><polygon fill="#181818" points="196.3921,590.2109,186.3921,594.2109,196.3921,598.2109,192.3921,594.2109" style="stroke:#181818;stroke-width:1;stroke-linejoin:miter;stroke-miterlimit:10;"/><line style="stroke:#181818;stroke-width:1;stroke-dasharray:2,2;" x1="190.3921" x2="474.4858" y1="594.2109" y2="594.2109"/><text fill="#000000" font-family="sans-serif" font-size="13" lengthAdjust="spacing" textLength="197.0313" x="202.3921" y="589.4688">NOT_FOUND / BUSY (no writes)</text></g><line style="stroke:#000000;stroke-width:1;stroke-dasharray:2,2;" x1="80" x2="1053.5913" y1="603.2109" y2="603.2109"/><text fill="#000000" font-family="sans-serif" font-size="11" font-weight="700" lengthAdjust="spacing" textLength="189.5835" x="85" y="613.8457">[same context (Name may differ)]</text><g class="message" data-entity-1="part2" data-entity-2="part3" data-source-line="40" id="msg10"><polygon fill="#181818" points="736.1299,634.4766,746.1299,638.4766,736.1299,642.4766,740.1299,638.4766" style="stroke:#181818;stroke-width:1;stroke-linejoin:miter;stroke-miterlimit:10;"/><line style="stroke:#181818;stroke-width:1;" x1="475.4858" x2="742.1299" y1="638.4766" y2="638.4766"/><text fill="#000000" font-family="sans-serif" font-size="13" lengthAdjust="spacing" textLength="216.1885" x="482.4858" y="633.7344">mark running; current version + 1</text></g><path d="M753,651.4766 L753,722.4766 L1043,722.4766 L1043,661.4766 L1033,651.4766 L753,651.4766" fill="#FEFFDD" style="stroke:#181818;stroke-width:0.5;"/><path d="M1033,651.4766 L1033,661.4766 L1043,661.4766 L1033,651.4766" fill="#FEFFDD" style="stroke:#181818;stroke-width:0.5;"/><text fill="#000000" font-family="sans-serif" font-size="13" lengthAdjust="spacing" textLength="192.4546" x="759" y="669.0449">Preserve Name and active leaf.</text><text fill="#000000" font-family="sans-serif" font-size="13" lengthAdjust="spacing" textLength="269.5913" x="759" y="684.3555">No Entry, Usage, sequence, or stats writes.</text><text fill="#000000" font-family="sans-serif" font-size="13" lengthAdjust="spacing" textLength="210.6089" x="759" y="699.666">Require exactly one affected row.</text><text fill="#000000" font-family="sans-serif" font-size="13" lengthAdjust="spacing" textLength="200.6304" x="759" y="714.9766">Roll back on transaction failure.</text><g class="message" data-entity-1="part2" data-entity-2="part1" data-source-line="47" id="msg11"><polygon fill="#181818" points="196.3921,745.0293,186.3921,749.0293,196.3921,753.0293,192.3921,749.0293" style="stroke:#181818;stroke-width:1;stroke-linejoin:miter;stroke-miterlimit:10;"/><line style="stroke:#181818;stroke-width:1;stroke-dasharray:2,2;" x1="190.3921" x2="474.4858" y1="749.0293" y2="749.0293"/><text fill="#000000" font-family="sans-serif" font-size="13" lengthAdjust="spacing" textLength="151.3408" x="202.3921" y="744.2871">ACCEPTED after commit</text></g><path d="M20,776.0293 L20,816.0293 L350,816.0293 L350,786.0293 L340,776.0293 L20,776.0293" fill="#FEFFDD" style="stroke:#181818;stroke-width:0.5;"/><path d="M340,776.0293 L340,786.0293 L350,786.0293 L340,776.0293" fill="#FEFFDD" style="stroke:#181818;stroke-width:0.5;"/><text fill="#000000" font-family="sans-serif" font-size="13" lengthAdjust="spacing" textLength="309.334" x="26" y="793.5977">Future work: connect slice 6b1 and own cleanup.</text><text fill="#000000" font-family="sans-serif" font-size="13" lengthAdjust="spacing" textLength="301.0439" x="26" y="808.9082">No public Command or HTTP route in this slice.</text><?plantuml-src hLLTR-Cs47pNhrZSooMeOyK-vyi75CY7WxRe9S4bUIXGeA2ebSqBHUf8oh7xwpkaP2U-10KAD803a5eETsTcbn_fDx4KL0ZFMXcUqcXoSdmsEZqz-dJAGeohKLcDU7p4rRZYQd9Odfv85XMNsKUwjwsJE5BRijNiSsbBPUO7Oiuc74YjSkzaNWjbSiS-nNeicuPTxjbxPKt-jJL1rNpVBR-aZyDLhIFwkYwizbFILZxr0TVMFJQb23mWhNouR9t3NHTE6BcOcU0K-m7LmctY0M-Gqd_AzHlumESwbw9kMY-rUEwZKt3kkfH5et8awv466ydvb_M52Chl5lIL6-jLi6uzZB38uxRmx9PSKi4BiLJMJQd53l4Is9w4AKbQKwbvwm1d3Jqx5TWJOfJGwcycx8K5Kty3EViy16vICGWtvq2YB771WXtgjTrzbxPkX4o0yGeX9JVXPVCp6Hk8LoW6TLAZjkb5x2lsQewRM7XhfjGuReH38ctmgkIK3JGHqKD9h47SYl7VM0RoGMYc1Q110rctMr_4ZzTj_JSHrLav7fMVYabvV3pXYHYVLL8K5SlJez79wF3aP3mvvK-lD4KHJz1cLzGagBIEyqxZtd73uAUogtj0eh3k5GiR6akrP11f8hOgDHzOezSl9OgoLWahiaP-RL1jK19rrNKaLolakfOecZjB3hEW0fRzJUyWqG5vhIJJSJ4MsIAoMbaR2hlAG3N0LIDCe0_NRMZ1V6yoUC0jSUfFiuTpnI29M897fDyROFy32K-NGcjskr0lramXSPbj4_kmSTTF9BiUeo8rMOgzkiWwH3huEHsaTtosrnF-QxcVpPrjczxwdQi3q7pFEdKOmBgw0DBzxFVPvSFMtzUtN-dnxkhyOOP0eGCboc1IECdrxKtumzc3btG4xaBIYDdWH0qHo1hbHL7J8Mrj0_l0EsGhEZeyfEU5Wb9LgtKA-24tj43v0oCagW0cjF2mEdzlestwexifMLScMNfJf1WsPTRzZx_kAfpesPsIDwBn2wYw1wTras0_WyfeFcYyqRLtnRDrJzDDrnMjNmzWXX0NN3TX7Viky2eCiaq3dyV6IFE0LopR9CnsKW-pMJfbNwacj3LWpoUZRUmUkqbpryke8dxZj_xuSUBizOOfUtqmC-3eZLNEKpJevV_1AOEUZ3Xw5iBCeO764vRZAM2TXuKoJniJlLNWvlRXh-lRnvihokdYyVwF7ILwEtc1NkpPfRsRkAe51eQgAdRxsHiNnGTguztFMpijusEIMcwKZYIPdPelGlGcUYvkta6VI1kbMxfH7j3lgQ9X2hcn59z25FpeuUp1rfM90KnZF3DT0SC-jU-jWXju1IZCkIYnGEOoWAZqkgGegpMcj7oYtUwbIYWDzmqtVkxqVv_CyylBsTt3xAhlcUWW5LurmByx6moRzA3qatAKwhVFXZ1hXMcROORQcxR0zpXhapjHyYyF3tSef0MsYcyd_9iWNkpw3m00?></g></svg>